STARTFONT 2.1
COMMENT
COMMENT Shinonome 14dot font for JISX 0208, 1983/1990, Mincho Style
COMMENT
COMMENT The original is k14-screen.bdf (modified k14 to add screening
COMMENT processing) by
COMMENT   Yasuyuki Furukawa <Furukawa.Yasuyuki@fujixerox.co.jp>, 2000.
COMMENT   (Public Domain)
COMMENT
COMMENT > Donated by H. Kagotani <kagotani@cs.titech.ac.jp>; public domain
COMMENT > font from Japan
COMMENT > Modified by TAKADA Toshihiro <takada@seraph.ntt.jp>
COMMENT > 	changed to JIS X 0208-1990
COMMENT
COMMENT Modified and Maintained by /efont/.
COMMENT
COMMENT (c) /efont/ -- Efont Open Laboratory 2001
COMMENT http://openlab.ring.gr.jp/efont/
COMMENT
FONT -Shinonome-Mincho-Bold-R-Normal--14-130-75-75-C-140-JISX0208.1990-0
SIZE 14 75 75
FONTBOUNDINGBOX 14 14 0 -2
STARTPROPERTIES 20
FONTNAME_REGISTRY ""
FOUNDRY "Shinonome"
FAMILY_NAME "Mincho"
WEIGHT_NAME "Bold"
SLANT "R"
SETWIDTH_NAME "Normal"
ADD_STYLE_NAME ""
PIXEL_SIZE 14
POINT_SIZE 130
RESOLUTION_X 75
RESOLUTION_Y 75
SPACING "C"
AVERAGE_WIDTH 140
CHARSET_REGISTRY "JISX0208.1990"
CHARSET_ENCODING "0"
DEFAULT_CHAR 8481
FONT_DESCENT 2
FONT_ASCENT 12
COPYRIGHT "Public domain font.  Share and enjoy."
_XMBDFED_INFO "Edited with xmbdfed 4.4."
ENDPROPERTIES
CHARS 6879
STARTCHAR 2121
ENCODING 8481
SWIDTH 960 0
DWIDTH 14 0
BBX 14 14 0 -2
BITMAP
0000
0000
0000
0000
0000
0000
0000
0000
0000
0000
0000
0000
0000
0000
ENDCHAR
STARTCHAR 2122
ENCODING 8482
SWIDTH 960 0
DWIDTH 14 0
BBX 14 14 0 -2
BITMAP
0000
0000
0000
0000
0000
0000
0000
0000
0000
0000
c000
7000
3800
1800
ENDCHAR
STARTCHAR 2123
ENCODING 8483
SWIDTH 960 0
DWIDTH 14 0
BBX 14 14 0 -2
BITMAP
0000
0000
0000
0000
0000
0000
0000
0000
0000
0000
7000
d800
d800
7000
ENDCHAR
STARTCHAR 2124
ENCODING 8484
SWIDTH 960 0
DWIDTH 14 0
BBX 14 14 0 -2
BITMAP
0000
0000
0000
0000
0000
0000
0000
0000
0000
0000
e000
e000
6000
c000
ENDCHAR
STARTCHAR 2125
ENCODING 8485
SWIDTH 960 0
DWIDTH 14 0
BBX 14 14 0 -2
BITMAP
0000
0000
0000
0000
0000
0000
0000
0000
0000
0000
0000
e000
e000
0000
ENDCHAR
STARTCHAR 2126
ENCODING 8486
SWIDTH 960 0
DWIDTH 14 0
BBX 14 14 0 -2
BITMAP
0000
0000
0000
0000
0000
0000
0300
0780
0300
0000
0000
0000
0000
0000
ENDCHAR
STARTCHAR 2127
ENCODING 8487
SWIDTH 960 0
DWIDTH 14 0
BBX 14 14 0 -2
BITMAP
0000
0000
0000
0700
0700
0000
0000
0000
0700
0700
0000
0000
0000
0000
ENDCHAR
STARTCHAR 2128
ENCODING 8488
SWIDTH 960 0
DWIDTH 14 0
BBX 14 14 0 -2
BITMAP
0000
0000
0000
0700
0700
0000
0000
0000
0700
0700
0300
0600
0000
0000
ENDCHAR
STARTCHAR 2129
ENCODING 8489
SWIDTH 960 0
DWIDTH 14 0
BBX 14 14 0 -2
BITMAP
0000
0f80
18c0
3060
3060
3060
00c0
0180
0300
0300
0300
0000
0700
0700
ENDCHAR
STARTCHAR 212a
ENCODING 8490
SWIDTH 960 0
DWIDTH 14 0
BBX 14 14 0 -2
BITMAP
0300
0380
0380
0380
0380
0300
0300
0300
0300
0300
0000
0300
0780
0300
ENDCHAR
STARTCHAR 212b
ENCODING 8491
SWIDTH 960 0
DWIDTH 14 0
BBX 14 14 0 -2
BITMAP
3000
d800
6000
0000
0000
0000
0000
0000
0000
0000
0000
0000
0000
0000
ENDCHAR
STARTCHAR 212c
ENCODING 8492
SWIDTH 960 0
DWIDTH 14 0
BBX 14 14 0 -2
BITMAP
7000
d800
d800
7000
0000
0000
0000
0000
0000
0000
0000
0000
0000
0000
ENDCHAR
STARTCHAR 212d
ENCODING 8493
SWIDTH 960 0
DWIDTH 14 0
BBX 14 14 0 -2
BITMAP
0380
0700
0c00
0000
0000
0000
0000
0000
0000
0000
0000
0000
0000
0000
ENDCHAR
STARTCHAR 212e
ENCODING 8494
SWIDTH 960 0
DWIDTH 14 0
BBX 14 14 0 -2
BITMAP
0e00
0700
0180
0000
0000
0000
0000
0000
0000
0000
0000
0000
0000
0000
ENDCHAR
STARTCHAR 212f
ENCODING 8495
SWIDTH 960 0
DWIDTH 14 0
BBX 14 14 0 -2
BITMAP
1ce0
1ce0
0000
0000
0000
0000
0000
0000
0000
0000
0000
0000
0000
0000
ENDCHAR
STARTCHAR 2130
ENCODING 8496
SWIDTH 960 0
DWIDTH 14 0
BBX 14 14 0 -2
BITMAP
0300
0680
0cc0
1860
0000
0000
0000
0000
0000
0000
0000
0000
0000
0000
ENDCHAR
STARTCHAR 2131
ENCODING 8497
SWIDTH 960 0
DWIDTH 14 0
BBX 14 14 0 -2
BITMAP
fffc
0000
0000
0000
0000
0000
0000
0000
0000
0000
0000
0000
0000
0000
ENDCHAR
STARTCHAR 2132
ENCODING 8498
SWIDTH 960 0
DWIDTH 14 0
BBX 14 14 0 -2
BITMAP
0000
0000
0000
0000
0000
0000
0000
0000
0000
0000
0000
0000
0000
fffc
ENDCHAR
STARTCHAR 2133
ENCODING 8499
SWIDTH 960 0
DWIDTH 14 0
BBX 14 14 0 -2
BITMAP
0000
0000
0000
0000
1c00
0700
0180
00c0
0060
0000
0000
0000
0000
0000
ENDCHAR
STARTCHAR 2134
ENCODING 8500
SWIDTH 960 0
DWIDTH 14 0
BBX 14 14 0 -2
BITMAP
0000
0000
0060
01b0
1cc0
0700
0180
00c0
0060
0000
0000
0000
0000
0000
ENDCHAR
STARTCHAR 2135
ENCODING 8501
SWIDTH 960 0
DWIDTH 14 0
BBX 14 14 0 -2
BITMAP
0000
0000
0000
0000
1c00
0700
0180
01c0
0300
0000
0000
0000
0000
0000
ENDCHAR
STARTCHAR 2136
ENCODING 8502
SWIDTH 960 0
DWIDTH 14 0
BBX 14 14 0 -2
BITMAP
0000
0000
0060
01b0
1cc0
0700
0180
01c0
0300
0000
0000
0000
0000
0000
ENDCHAR
STARTCHAR 2137
ENCODING 8503
SWIDTH 960 0
DWIDTH 14 0
BBX 14 14 0 -2
BITMAP
0000
0000
0000
0000
0cc0
0cc0
0cc0
1980
1980
3300
0000
0000
0000
0000
ENDCHAR
STARTCHAR 2138
ENCODING 8504
SWIDTH 960 0
DWIDTH 14 0
BBX 14 14 0 -2
BITMAP
0300
0300
0680
0cc0
1860
3030
e01c
1fe0
0300
0300
0300
0300
fffc
0000
ENDCHAR
STARTCHAR 2139
ENCODING 8505
SWIDTH 960 0
DWIDTH 14 0
BBX 14 14 0 -2
BITMAP
0000
0000
0000
0000
0600
0600
07f0
0c60
0c60
18c0
3680
0380
00c0
0060
ENDCHAR
STARTCHAR 213a
ENCODING 8506
SWIDTH 960 0
DWIDTH 14 0
BBX 14 14 0 -2
BITMAP
0000
0000
0030
0030
0060
0ec0
1b80
1b00
3680
3400
3800
3000
6000
0000
ENDCHAR
STARTCHAR 213b
ENCODING 8507
SWIDTH 960 0
DWIDTH 14 0
BBX 14 14 0 -2
BITMAP
0000
0fc0
3870
6018
6018
c00c
c00c
c00c
c00c
c00c
6018
6018
3870
0fc0
ENDCHAR
STARTCHAR 213c
ENCODING 8508
SWIDTH 960 0
DWIDTH 14 0
BBX 14 14 0 -2
BITMAP
0000
0000
0000
0000
0000
0000
c1f8
7f00
0000
0000
0000
0000
0000
0000
ENDCHAR
STARTCHAR 213d
ENCODING 8509
SWIDTH 960 0
DWIDTH 14 0
BBX 14 14 0 -2
BITMAP
0000
0000
0000
0000
0000
0000
fffc
0000
0000
0000
0000
0000
0000
0000
ENDCHAR
STARTCHAR 213e
ENCODING 8510
SWIDTH 960 0
DWIDTH 14 0
BBX 14 14 0 -2
BITMAP
0000
0000
0000
0000
0000
0000
0fc0
0000
0000
0000
0000
0000
0000
0000
ENDCHAR
STARTCHAR 213f
ENCODING 8511
SWIDTH 960 0
DWIDTH 14 0
BBX 14 14 0 -2
BITMAP
000c
0018
0030
0060
00c0
0180
0300
0600
0c00
1800
3000
6000
c000
8000
ENDCHAR
STARTCHAR 2140
ENCODING 8512
SWIDTH 960 0
DWIDTH 14 0
BBX 14 14 0 -2
BITMAP
8000
c000
6000
3000
1800
0c00
0600
0300
0180
00c0
0060
0030
0018
000c
ENDCHAR
STARTCHAR 2141
ENCODING 8513
SWIDTH 960 0
DWIDTH 14 0
BBX 14 14 0 -2
BITMAP
0000
0000
0000
0000
0000
3c00
6618
c330
01e0
0000
0000
0000
0000
0000
ENDCHAR
STARTCHAR 2142
ENCODING 8514
SWIDTH 960 0
DWIDTH 14 0
BBX 14 14 0 -2
BITMAP
0d80
0d80
0d80
0d80
0d80
0d80
0d80
0d80
0d80
0d80
0d80
0d80
0d80
0d80
ENDCHAR
STARTCHAR 2143
ENCODING 8515
SWIDTH 960 0
DWIDTH 14 0
BBX 14 14 0 -2
BITMAP
0300
0300
0300
0300
0300
0300
0300
0300
0300
0300
0300
0300
0300
0300
ENDCHAR
STARTCHAR 2144
ENCODING 8516
SWIDTH 960 0
DWIDTH 14 0
BBX 14 14 0 -2
BITMAP
0000
0000
0000
0000
0000
0000
7770
7770
0000
0000
0000
0000
0000
0000
ENDCHAR
STARTCHAR 2145
ENCODING 8517
SWIDTH 960 0
DWIDTH 14 0
BBX 14 14 0 -2
BITMAP
0000
0000
0000
0000
0000
0000
38e0
38e0
0000
0000
0000
0000
0000
0000
ENDCHAR
STARTCHAR 2146
ENCODING 8518
SWIDTH 960 0
DWIDTH 14 0
BBX 14 14 0 -2
BITMAP
0038
0060
0070
0078
0030
0000
0000
0000
0000
0000
0000
0000
0000
0000
ENDCHAR
STARTCHAR 2147
ENCODING 8519
SWIDTH 960 0
DWIDTH 14 0
BBX 14 14 0 -2
BITMAP
6000
f000
7000
3000
e000
0000
0000
0000
0000
0000
0000
0000
0000
0000
ENDCHAR
STARTCHAR 2148
ENCODING 8520
SWIDTH 960 0
DWIDTH 14 0
BBX 14 14 0 -2
BITMAP
03b8
0660
0770
07b8
0330
0000
0000
0000
0000
0000
0000
0000
0000
0000
ENDCHAR
STARTCHAR 2149
ENCODING 8521
SWIDTH 960 0
DWIDTH 14 0
BBX 14 14 0 -2
BITMAP
6600
f700
7700
3300
ee00
0000
0000
0000
0000
0000
0000
0000
0000
0000
ENDCHAR
STARTCHAR 214a
ENCODING 8522
SWIDTH 960 0
DWIDTH 14 0
BBX 14 14 0 -2
BITMAP
0018
0030
0060
00c0
00c0
0180
0180
0180
0180
00c0
00c0
0060
0030
0018
ENDCHAR
STARTCHAR 214b
ENCODING 8523
SWIDTH 960 0
DWIDTH 14 0
BBX 14 14 0 -2
BITMAP
c000
6000
3000
1800
1800
0c00
0c00
0c00
0c00
1800
1800
3000
6000
c000
ENDCHAR
STARTCHAR 214c
ENCODING 8524
SWIDTH 960 0
DWIDTH 14 0
BBX 14 14 0 -2
BITMAP
0018
0030
0060
00c0
00c0
00c0
00c0
00c0
00c0
00c0
00c0
0060
0030
0018
ENDCHAR
STARTCHAR 214d
ENCODING 8525
SWIDTH 960 0
DWIDTH 14 0
BBX 14 14 0 -2
BITMAP
c000
6000
3000
1800
1800
1800
1800
1800
1800
1800
1800
3000
6000
c000
ENDCHAR
STARTCHAR 214e
ENCODING 8526
SWIDTH 960 0
DWIDTH 14 0
BBX 14 14 0 -2
BITMAP
01f8
01c0
01c0
01c0
01c0
01c0
01c0
01c0
01c0
01c0
01c0
01c0
01c0
01f8
ENDCHAR
STARTCHAR 214f
ENCODING 8527
SWIDTH 960 0
DWIDTH 14 0
BBX 14 14 0 -2
BITMAP
fc00
1c00
1c00
1c00
1c00
1c00
1c00
1c00
1c00
1c00
1c00
1c00
1c00
fc00
ENDCHAR
STARTCHAR 2150
ENCODING 8528
SWIDTH 960 0
DWIDTH 14 0
BBX 14 14 0 -2
BITMAP
0038
0060
00c0
00c0
00c0
00c0
0380
00c0
00c0
00c0
00c0
00c0
0060
0038
ENDCHAR
STARTCHAR 2151
ENCODING 8529
SWIDTH 960 0
DWIDTH 14 0
BBX 14 14 0 -2
BITMAP
e000
3000
1800
1800
1800
1800
0e00
1800
1800
1800
1800
1800
3000
e000
ENDCHAR
STARTCHAR 2152
ENCODING 8530
SWIDTH 960 0
DWIDTH 14 0
BBX 14 14 0 -2
BITMAP
0018
0030
0060
00c0
0180
0300
0600
0600
0300
0180
00c0
0060
0030
0018
ENDCHAR
STARTCHAR 2153
ENCODING 8531
SWIDTH 960 0
DWIDTH 14 0
BBX 14 14 0 -2
BITMAP
c000
6000
3000
1800
0c00
0600
0300
0300
0600
0c00
1800
3000
6000
c000
ENDCHAR
STARTCHAR 2154
ENCODING 8532
SWIDTH 960 0
DWIDTH 14 0
BBX 14 14 0 -2
BITMAP
00d8
00d8
01b0
01b0
0360
0360
06c0
06c0
0360
0360
01b0
01b0
00d8
00d8
ENDCHAR
STARTCHAR 2155
ENCODING 8533
SWIDTH 960 0
DWIDTH 14 0
BBX 14 14 0 -2
BITMAP
d800
d800
6c00
6c00
3600
3600
1b00
1b00
3600
3600
6c00
6c00
d800
d800
ENDCHAR
STARTCHAR 2156
ENCODING 8534
SWIDTH 960 0
DWIDTH 14 0
BBX 14 14 0 -2
BITMAP
03f8
0300
0300
0300
0300
0300
0300
0300
0300
0300
0300
0300
0300
0300
ENDCHAR
STARTCHAR 2157
ENCODING 8535
SWIDTH 960 0
DWIDTH 14 0
BBX 14 14 0 -2
BITMAP
0600
0600
0600
0600
0600
0600
0600
0600
0600
0600
0600
0600
0600
fe00
ENDCHAR
STARTCHAR 2158
ENCODING 8536
SWIDTH 960 0
DWIDTH 14 0
BBX 14 14 0 -2
BITMAP
07f8
0618
06f8
0680
0680
0680
0680
0680
0680
0680
0680
0680
0680
0780
ENDCHAR
STARTCHAR 2159
ENCODING 8537
SWIDTH 960 0
DWIDTH 14 0
BBX 14 14 0 -2
BITMAP
0f00
0d00
0d00
0d00
0d00
0d00
0d00
0d00
0d00
0d00
0d00
fd00
c300
ff00
ENDCHAR
STARTCHAR 215a
ENCODING 8538
SWIDTH 960 0
DWIDTH 14 0
BBX 14 14 0 -2
BITMAP
01f8
01f0
01e0
01e0
01c0
01c0
01c0
01c0
01c0
01c0
01e0
01e0
01f0
01f8
ENDCHAR
STARTCHAR 215b
ENCODING 8539
SWIDTH 960 0
DWIDTH 14 0
BBX 14 14 0 -2
BITMAP
fc00
7c00
3c00
3c00
1c00
1c00
1c00
1c00
1c00
1c00
3c00
3c00
7c00
fc00
ENDCHAR
STARTCHAR 215c
ENCODING 8540
SWIDTH 960 0
DWIDTH 14 0
BBX 14 14 0 -2
BITMAP
0000
0300
0300
0300
0300
0300
7ff8
0300
0300
0300
0300
0300
0300
0000
ENDCHAR
STARTCHAR 215d
ENCODING 8541
SWIDTH 960 0
DWIDTH 14 0
BBX 14 14 0 -2
BITMAP
0000
0000
0000
0000
0000
0000
7ff8
0000
0000
0000
0000
0000
0000
0000
ENDCHAR
STARTCHAR 215e
ENCODING 8542
SWIDTH 960 0
DWIDTH 14 0
BBX 14 14 0 -2
BITMAP
0000
0300
0300
0300
0300
7ff8
0300
0300
0300
0300
0000
7ff8
0000
0000
ENDCHAR
STARTCHAR 215f
ENCODING 8543
SWIDTH 960 0
DWIDTH 14 0
BBX 14 14 0 -2
BITMAP
0000
6018
3030
1860
0cc0
0680
0300
0680
0cc0
1860
3030
6018
0000
0000
ENDCHAR
STARTCHAR 2160
ENCODING 8544
SWIDTH 960 0
DWIDTH 14 0
BBX 14 14 0 -2
BITMAP
0000
0300
0780
0300
0000
0000
7ff8
0000
0000
0300
0780
0300
0000
0000
ENDCHAR
STARTCHAR 2161
ENCODING 8545
SWIDTH 960 0
DWIDTH 14 0
BBX 14 14 0 -2
BITMAP
0000
0000
0000
0000
7ff8
0000
0000
0000
7ff8
0000
0000
0000
0000
0000
ENDCHAR
STARTCHAR 2162
ENCODING 8546
SWIDTH 960 0
DWIDTH 14 0
BBX 14 14 0 -2
BITMAP
0000
0180
0180
0180
7ff8
0300
0300
0300
7ff8
0600
0600
0600
0000
0000
ENDCHAR
STARTCHAR 2163
ENCODING 8547
SWIDTH 960 0
DWIDTH 14 0
BBX 14 14 0 -2
BITMAP
0030
00e0
0180
0700
0c00
3800
6000
3800
0c00
0700
0180
00e0
0030
0000
ENDCHAR
STARTCHAR 2164
ENCODING 8548
SWIDTH 960 0
DWIDTH 14 0
BBX 14 14 0 -2
BITMAP
6000
3800
0c00
0700
0180
00e0
0030
00e0
0180
0700
0c00
3800
6000
0000
ENDCHAR
STARTCHAR 2165
ENCODING 8549
SWIDTH 960 0
DWIDTH 14 0
BBX 14 14 0 -2
BITMAP
0070
01c0
0700
1c00
7000
1c00
0700
01c0
0070
0000
7ff8
0000
7ff8
0000
ENDCHAR
STARTCHAR 2166
ENCODING 8550
SWIDTH 960 0
DWIDTH 14 0
BBX 14 14 0 -2
BITMAP
7000
1c00
0700
01c0
0070
01c0
0700
1c00
7000
0000
7ff8
0000
7ff8
0000
ENDCHAR
STARTCHAR 2167
ENCODING 8551
SWIDTH 960 0
DWIDTH 14 0
BBX 14 14 0 -2
BITMAP
0000
0000
0000
0000
3cf0
76d8
6798
6798
76d8
3cf0
0000
0000
0000
0000
ENDCHAR
STARTCHAR 2168
ENCODING 8552
SWIDTH 960 0
DWIDTH 14 0
BBX 14 14 0 -2
BITMAP
0000
0000
0300
0780
0300
0000
0000
0000
0000
3030
7878
3030
0000
0000
ENDCHAR
STARTCHAR 2169
ENCODING 8553
SWIDTH 960 0
DWIDTH 14 0
BBX 14 14 0 -2
BITMAP
0000
07f8
0038
0068
00d8
0198
3d18
6618
c300
c300
c300
6600
3c00
0000
ENDCHAR
STARTCHAR 216a
ENCODING 8554
SWIDTH 960 0
DWIDTH 14 0
BBX 14 14 0 -2
BITMAP
0000
0780
0cc0
1860
1860
1860
0cc0
0780
0300
0300
3ff0
0300
0300
0300
ENDCHAR
STARTCHAR 216b
ENCODING 8555
SWIDTH 960 0
DWIDTH 14 0
BBX 14 14 0 -2
BITMAP
0000
3800
6c00
6c00
3800
0000
0000
0000
0000
0000
0000
0000
0000
0000
ENDCHAR
STARTCHAR 216c
ENCODING 8556
SWIDTH 960 0
DWIDTH 14 0
BBX 14 14 0 -2
BITMAP
0000
3800
3800
7000
6000
c000
0000
0000
0000
0000
0000
0000
0000
0000
ENDCHAR
STARTCHAR 216d
ENCODING 8557
SWIDTH 960 0
DWIDTH 14 0
BBX 14 14 0 -2
BITMAP
0000
3b00
3b00
7600
6c00
d800
0000
0000
0000
0000
0000
0000
0000
0000
ENDCHAR
STARTCHAR 216e
ENCODING 8558
SWIDTH 960 0
DWIDTH 14 0
BBX 14 14 0 -2
BITMAP
0000
7000
d9e8
db38
7718
0e18
0e00
0e00
0e00
0e00
0618
0330
01e0
0000
ENDCHAR
STARTCHAR 216f
ENCODING 8559
SWIDTH 960 0
DWIDTH 14 0
BBX 14 14 0 -2
BITMAP
0000
f878
7030
3860
1cc0
7ff0
0e80
0700
7ff0
0700
0700
0700
1fc0
0000
ENDCHAR
STARTCHAR 2170
ENCODING 8560
SWIDTH 960 0
DWIDTH 14 0
BBX 14 14 0 -2
BITMAP
0000
0300
0fc0
1b60
3330
3330
1d00
0780
0360
3330
3330
1b60
0fc0
0300
ENDCHAR
STARTCHAR 2171
ENCODING 8561
SWIDTH 960 0
DWIDTH 14 0
BBX 14 14 0 -2
BITMAP
0000
0180
0180
0780
0d40
1b60
3360
3300
3600
1a60
0ec0
0f80
0c00
0c00
ENDCHAR
STARTCHAR 2172
ENCODING 8562
SWIDTH 960 0
DWIDTH 14 0
BBX 14 14 0 -2
BITMAP
0000
01c0
0360
0630
0600
0c00
0c00
7fe0
0c00
7400
dc18
db30
71e0
0000
ENDCHAR
STARTCHAR 2173
ENCODING 8563
SWIDTH 960 0
DWIDTH 14 0
BBX 14 14 0 -2
BITMAP
0000
3818
6c30
c660
c6c0
6d80
3b00
06e0
0db0
1b18
3318
61b0
c0e0
0000
ENDCHAR
STARTCHAR 2174
ENCODING 8564
SWIDTH 960 0
DWIDTH 14 0
BBX 14 14 0 -2
BITMAP
0000
0660
0660
0660
3ff8
0cc0
0cc0
0cc0
0cc0
7ff0
1980
1980
1980
1980
ENDCHAR
STARTCHAR 2175
ENCODING 8565
SWIDTH 960 0
DWIDTH 14 0
BBX 14 14 0 -2
BITMAP
0000
1e00
3300
3300
3300
1a00
0c78
1a30
3360
61c0
61c0
3360
1e38
0000
ENDCHAR
STARTCHAR 2176
ENCODING 8566
SWIDTH 960 0
DWIDTH 14 0
BBX 14 14 0 -2
BITMAP
0000
0000
0300
0780
3b70
3d70
0780
0780
3d70
3b70
0780
0300
0000
0000
ENDCHAR
STARTCHAR 2177
ENCODING 8567
SWIDTH 960 0
DWIDTH 14 0
BBX 14 14 0 -2
BITMAP
0000
0780
1ce0
3030
67d8
6dd8
cdd8
d998
dbb0
6f60
6018
3870
0fc0
0000
ENDCHAR
STARTCHAR 2178
ENCODING 8568
SWIDTH 960 0
DWIDTH 14 0
BBX 14 14 0 -2
BITMAP
0780
0cc0
0cc0
0e00
0700
0780
0dc0
0ec0
0780
0380
01c0
0cc0
0cc0
0780
ENDCHAR
STARTCHAR 2179
ENCODING 8569
SWIDTH 960 0
DWIDTH 14 0
BBX 14 14 0 -2
BITMAP
0000
0300
0300
0680
0680
fcfc
7038
1ce0
0cc0
1b60
1aa0
3cf0
3030
0000
ENDCHAR
STARTCHAR 217a
ENCODING 8570
SWIDTH 960 0
DWIDTH 14 0
BBX 14 14 0 -2
BITMAP
0000
0300
0300
0780
0780
fffc
7ff8
1fe0
0fc0
1fe0
1ee0
3cf0
3030
0000
ENDCHAR
STARTCHAR 217b
ENCODING 8571
SWIDTH 960 0
DWIDTH 14 0
BBX 14 14 0 -2
BITMAP
0000
0000
0780
1ce0
3030
3030
6018
6018
6018
3030
3030
1ce0
0780
0000
ENDCHAR
STARTCHAR 217c
ENCODING 8572
SWIDTH 960 0
DWIDTH 14 0
BBX 14 14 0 -2
BITMAP
0000
0000
0780
1fe0
3ff0
3ff0
7ff8
7ff8
7ff8
3ff0
3ff0
1fe0
0780
0000
ENDCHAR
STARTCHAR 217d
ENCODING 8573
SWIDTH 960 0
DWIDTH 14 0
BBX 14 14 0 -2
BITMAP
0000
0000
0780
1ce0
37b0
34d0
6868
6868
6868
34d0
37b0
1ce0
0780
0000
ENDCHAR
STARTCHAR 217e
ENCODING 8574
SWIDTH 960 0
DWIDTH 14 0
BBX 14 14 0 -2
BITMAP
0000
0300
0680
0cc0
1860
3030
6018
c00c
6018
3030
1860
0cc0
0680
0300
ENDCHAR
STARTCHAR 2221
ENCODING 8737
SWIDTH 960 0
DWIDTH 14 0
BBX 14 14 0 -2
BITMAP
0000
0300
0780
0fc0
1fe0
3ff0
7ff8
fffc
7ff8
3ff0
1fe0
0fc0
0780
0300
ENDCHAR
STARTCHAR 2222
ENCODING 8738
SWIDTH 960 0
DWIDTH 14 0
BBX 14 14 0 -2
BITMAP
0000
fff8
c018
c018
c018
c018
c018
c018
c018
c018
c018
c018
fff8
0000
ENDCHAR
STARTCHAR 2223
ENCODING 8739
SWIDTH 960 0
DWIDTH 14 0
BBX 14 14 0 -2
BITMAP
0000
fff8
fff8
fff8
fff8
fff8
fff8
fff8
fff8
fff8
fff8
fff8
fff8
0000
ENDCHAR
STARTCHAR 2224
ENCODING 8740
SWIDTH 960 0
DWIDTH 14 0
BBX 14 14 0 -2
BITMAP
0000
0300
0300
0680
0680
0cc0
0cc0
1860
1860
3030
3030
7ff8
0000
0000
ENDCHAR
STARTCHAR 2225
ENCODING 8741
SWIDTH 960 0
DWIDTH 14 0
BBX 14 14 0 -2
BITMAP
0000
0300
0300
0780
0780
0fc0
0fc0
1fe0
1fe0
3ff0
3ff0
7ff8
0000
0000
ENDCHAR
STARTCHAR 2226
ENCODING 8742
SWIDTH 960 0
DWIDTH 14 0
BBX 14 14 0 -2
BITMAP
0000
7ff8
3030
3030
1860
1860
0cc0
0cc0
0680
0680
0300
0300
0000
0000
ENDCHAR
STARTCHAR 2227
ENCODING 8743
SWIDTH 960 0
DWIDTH 14 0
BBX 14 14 0 -2
BITMAP
0000
7ff8
3ff0
3ff0
1fe0
1fe0
0fc0
0fc0
0780
0780
0300
0300
0000
0000
ENDCHAR
STARTCHAR 2228
ENCODING 8744
SWIDTH 960 0
DWIDTH 14 0
BBX 14 14 0 -2
BITMAP
0000
0000
6318
37b0
1b60
0cc0
36b0
7b78
36b0
0cc0
1b60
37b0
6318
0000
ENDCHAR
STARTCHAR 2229
ENCODING 8745
SWIDTH 960 0
DWIDTH 14 0
BBX 14 14 0 -2
BITMAP
0000
7ff0
7ff0
0000
0000
fff8
fff8
0700
0700
0700
0700
0700
0700
0000
ENDCHAR
STARTCHAR 222a
ENCODING 8746
SWIDTH 960 0
DWIDTH 14 0
BBX 14 14 0 -2
BITMAP
0000
0000
0000
0300
0180
00e0
fff8
00e0
0180
0300
0000
0000
0000
0000
ENDCHAR
STARTCHAR 222b
ENCODING 8747
SWIDTH 960 0
DWIDTH 14 0
BBX 14 14 0 -2
BITMAP
0000
0000
0000
0600
0c00
3800
fff8
3800
0c00
0600
0000
0000
0000
0000
ENDCHAR
STARTCHAR 222c
ENCODING 8748
SWIDTH 960 0
DWIDTH 14 0
BBX 14 14 0 -2
BITMAP
0000
0300
0300
0780
0780
0d40
1b60
0300
0300
0300
0300
0300
0300
0000
ENDCHAR
STARTCHAR 222d
ENCODING 8749
SWIDTH 960 0
DWIDTH 14 0
BBX 14 14 0 -2
BITMAP
0000
0300
0300
0300
0300
0300
0300
1b60
0d40
0780
0780
0300
0300
0000
ENDCHAR
STARTCHAR 222e
ENCODING 8750
SWIDTH 960 0
DWIDTH 14 0
BBX 14 14 0 -2
BITMAP
0000
0000
0000
0000
7ff0
7ff0
0000
0000
7ff0
7ff0
0000
0000
0000
0000
ENDCHAR
STARTCHAR 223a
ENCODING 8762
SWIDTH 960 0
DWIDTH 14 0
BBX 14 14 0 -2
BITMAP
0000
0000
07f0
1c00
3000
6000
7ff0
6000
3000
1c00
07f0
0000
0000
0000
ENDCHAR
STARTCHAR 223b
ENCODING 8763
SWIDTH 960 0
DWIDTH 14 0
BBX 14 14 0 -2
BITMAP
0000
0000
7f00
01c0
0060
0030
7ff0
0030
0060
01c0
7f00
0000
0000
0000
ENDCHAR
STARTCHAR 223c
ENCODING 8764
SWIDTH 960 0
DWIDTH 14 0
BBX 14 14 0 -2
BITMAP
0000
0000
1ff0
3000
6000
6000
6000
3000
1ff0
0000
0000
7ff0
0000
0000
ENDCHAR
STARTCHAR 223d
ENCODING 8765
SWIDTH 960 0
DWIDTH 14 0
BBX 14 14 0 -2
BITMAP
0000
0000
7fc0
0060
0030
0030
0030
0060
7fc0
0000
0000
7ff0
0000
0000
ENDCHAR
STARTCHAR 223e
ENCODING 8766
SWIDTH 960 0
DWIDTH 14 0
BBX 14 14 0 -2
BITMAP
0000
0000
07f0
1c00
3000
6000
6000
6000
6000
3000
1c00
07f0
0000
0000
ENDCHAR
STARTCHAR 223f
ENCODING 8767
SWIDTH 960 0
DWIDTH 14 0
BBX 14 14 0 -2
BITMAP
0000
0000
7f00
01c0
0060
0030
0030
0030
0030
0060
01c0
7f00
0000
0000
ENDCHAR
STARTCHAR 2240
ENCODING 8768
SWIDTH 960 0
DWIDTH 14 0
BBX 14 14 0 -2
BITMAP
0000
0000
6030
6030
6030
6030
6030
6030
3060
3060
18c0
0f80
0000
0000
ENDCHAR
STARTCHAR 2241
ENCODING 8769
SWIDTH 960 0
DWIDTH 14 0
BBX 14 14 0 -2
BITMAP
0000
0000
0f80
18c0
3060
3060
6030
6030
6030
6030
6030
6030
0000
0000
ENDCHAR
STARTCHAR 224a
ENCODING 8778
SWIDTH 960 0
DWIDTH 14 0
BBX 14 14 0 -2
BITMAP
0000
0000
0300
0300
0680
0680
0cc0
0cc0
1860
1860
3030
3030
0000
0000
ENDCHAR
STARTCHAR 224b
ENCODING 8779
SWIDTH 960 0
DWIDTH 14 0
BBX 14 14 0 -2
BITMAP
0000
0000
3030
3030
1860
1860
0cc0
0cc0
0680
0680
0300
0300
0000
0000
ENDCHAR
STARTCHAR 224c
ENCODING 8780
SWIDTH 960 0
DWIDTH 14 0
BBX 14 14 0 -2
BITMAP
0000
0000
0000
0000
0000
0000
7ff0
0030
0030
0030
0030
0030
0000
0000
ENDCHAR
STARTCHAR 224d
ENCODING 8781
SWIDTH 960 0
DWIDTH 14 0
BBX 14 14 0 -2
BITMAP
0000
0000
0000
00c0
0060
fff0
0018
fff0
0060
00c0
0000
0000
0000
0000
ENDCHAR
STARTCHAR 224e
ENCODING 8782
SWIDTH 960 0
DWIDTH 14 0
BBX 14 14 0 -2
BITMAP
0000
0000
0000
18c0
3060
7ff0
c018
7ff0
3060
18c0
0000
0000
0000
0000
ENDCHAR
STARTCHAR 224f
ENCODING 8783
SWIDTH 960 0
DWIDTH 14 0
BBX 14 14 0 -2
BITMAP
0000
6018
6018
3030
3ff0
1860
1860
0cc0
0cc0
0680
0680
0300
0300
0000
ENDCHAR
STARTCHAR 2250
ENCODING 8784
SWIDTH 960 0
DWIDTH 14 0
BBX 14 14 0 -2
BITMAP
0000
3fe0
0060
0060
0060
0060
3fe0
0060
0060
0060
0060
3fe0
0000
0000
ENDCHAR
STARTCHAR 225c
ENCODING 8796
SWIDTH 960 0
DWIDTH 14 0
BBX 14 14 0 -2
BITMAP
0000
0000
0030
0060
00c0
0180
0300
0600
0c00
1800
3000
7ff0
0000
0000
ENDCHAR
STARTCHAR 225d
ENCODING 8797
SWIDTH 960 0
DWIDTH 14 0
BBX 14 14 0 -2
BITMAP
0000
0000
0300
0300
0300
0300
0300
0300
0300
0300
0300
7ff8
0000
0000
ENDCHAR
STARTCHAR 225e
ENCODING 8798
SWIDTH 960 0
DWIDTH 14 0
BBX 14 14 0 -2
BITMAP
0000
1fe0
7038
c00c
0000
0000
0000
0000
0000
0000
0000
0000
0000
0000
ENDCHAR
STARTCHAR 225f
ENCODING 8799
SWIDTH 960 0
DWIDTH 14 0
BBX 14 14 0 -2
BITMAP
0000
03c0
06e0
0060
0060
07a0
0ee0
0ce0
1ce0
1cc0
1dc0
0d80
0700
0000
ENDCHAR
STARTCHAR 2260
ENCODING 8800
SWIDTH 960 0
DWIDTH 14 0
BBX 14 14 0 -2
BITMAP
0000
0000
7ff8
3ff0
3830
1860
1c60
0cc0
0ec0
0680
0780
0300
0300
0000
ENDCHAR
STARTCHAR 2261
ENCODING 8801
SWIDTH 960 0
DWIDTH 14 0
BBX 14 14 0 -2
BITMAP
0000
0000
0000
7ff0
0000
0000
7ff0
0000
0000
7ff0
0000
0000
0000
0000
ENDCHAR
STARTCHAR 2262
ENCODING 8802
SWIDTH 960 0
DWIDTH 14 0
BBX 14 14 0 -2
BITMAP
0000
0000
1800
3c00
1800
7ff0
0000
0000
7ff0
00c0
01e0
00c0
0000
0000
ENDCHAR
STARTCHAR 2263
ENCODING 8803
SWIDTH 960 0
DWIDTH 14 0
BBX 14 14 0 -2
BITMAP
0000
0330
0660
0cc0
1980
3300
6600
3300
1980
0cc0
0660
0330
0000
0000
ENDCHAR
STARTCHAR 2264
ENCODING 8804
SWIDTH 960 0
DWIDTH 14 0
BBX 14 14 0 -2
BITMAP
0000
6600
3300
1980
0cc0
0660
0330
0660
0cc0
1980
3300
6600
0000
0000
ENDCHAR
STARTCHAR 2265
ENCODING 8805
SWIDTH 960 0
DWIDTH 14 0
BBX 14 14 0 -2
BITMAP
0000
03f8
0300
0300
0300
0600
0600
0600
6600
f400
3c00
1c00
0c00
0000
ENDCHAR
STARTCHAR 2266
ENCODING 8806
SWIDTH 960 0
DWIDTH 14 0
BBX 14 14 0 -2
BITMAP
0000
0000
0000
0000
1ce0
31b0
6318
6318
3630
1ce0
0000
0000
0000
0000
ENDCHAR
STARTCHAR 2267
ENCODING 8807
SWIDTH 960 0
DWIDTH 14 0
BBX 14 14 0 -2
BITMAP
0000
0000
0000
0000
0e70
1b40
3180
3180
1b40
0e70
0000
0000
0000
0000
ENDCHAR
STARTCHAR 2268
ENCODING 8808
SWIDTH 960 0
DWIDTH 14 0
BBX 14 14 0 -2
BITMAP
0000
0000
3030
7878
3030
0000
0000
0000
0000
0300
0780
0300
0000
0000
ENDCHAR
STARTCHAR 2269
ENCODING 8809
SWIDTH 960 0
DWIDTH 14 0
BBX 14 14 0 -2
BITMAP
01c0
03c0
0600
0600
0700
0700
0380
0380
01c0
01c0
00c0
00c0
0780
0700
ENDCHAR
STARTCHAR 226a
ENCODING 8810
SWIDTH 960 0
DWIDTH 14 0
BBX 14 14 0 -2
BITMAP
0ee0
1ee0
3300
3300
3b80
3b80
1dc0
1dc0
0ee0
0ee0
0660
0660
3dc0
3b80
ENDCHAR
STARTCHAR 2272
ENCODING 8818
SWIDTH 960 0
DWIDTH 14 0
BBX 14 14 0 -2
BITMAP
0700
0d80
0d80
0700
0300
0780
0780
0dc0
0dc0
18e0
1fe0
3070
78f8
0000
ENDCHAR
STARTCHAR 2273
ENCODING 8819
SWIDTH 960 0
DWIDTH 14 0
BBX 14 14 0 -2
BITMAP
0000
3860
6cc0
ee80
ee80
6d00
3a00
0730
0ea8
1eec
36ec
36a8
6330
0000
ENDCHAR
STARTCHAR 2274
ENCODING 8820
SWIDTH 960 0
DWIDTH 14 0
BBX 14 14 0 -2
BITMAP
0180
0d80
0de0
0fe0
3f80
3d80
0d80
0de0
0fe0
3f80
3d80
0d80
0c00
0000
ENDCHAR
STARTCHAR 2275
ENCODING 8821
SWIDTH 960 0
DWIDTH 14 0
BBX 14 14 0 -2
BITMAP
0000
0c00
0c00
0c00
0c00
0c00
0dc0
0ee0
0ce0
0cc0
0d80
0d00
0e00
0000
ENDCHAR
STARTCHAR 2276
ENCODING 8822
SWIDTH 960 0
DWIDTH 14 0
BBX 14 14 0 -2
BITMAP
0300
0380
03c0
0360
0360
0370
0330
0330
0330
0f60
1f00
1f00
0e00
0000
ENDCHAR
STARTCHAR 2277
ENCODING 8823
SWIDTH 960 0
DWIDTH 14 0
BBX 14 14 0 -2
BITMAP
0300
0780
0300
1b60
3ff0
1b60
0780
0780
0300
0300
0300
0300
0300
0300
ENDCHAR
STARTCHAR 2278
ENCODING 8824
SWIDTH 960 0
DWIDTH 14 0
BBX 14 14 0 -2
BITMAP
0300
0780
1b60
3ff0
1b60
0780
0300
0300
0780
1b60
3ff0
1b60
0780
0300
ENDCHAR
STARTCHAR 2279
ENCODING 8825
SWIDTH 960 0
DWIDTH 14 0
BBX 14 14 0 -2
BITMAP
0000
07c0
0f40
0f40
0f40
0740
0340
0340
0340
0340
0340
0340
0340
0000
ENDCHAR
STARTCHAR 227e
ENCODING 8830
SWIDTH 960 0
DWIDTH 14 0
BBX 14 14 0 -2
BITMAP
0000
0fc0
3870
6018
6018
c00c
c00c
c00c
c00c
c00c
6018
6018
3870
0fc0
ENDCHAR
STARTCHAR 2330
ENCODING 9008
SWIDTH 960 0
DWIDTH 14 0
BBX 14 14 0 -2
BITMAP
0000
0780
0cc0
1860
1860
1860
1860
1860
1860
1860
0cc0
0780
0000
0000
ENDCHAR
STARTCHAR 2331
ENCODING 9009
SWIDTH 960 0
DWIDTH 14 0
BBX 14 14 0 -2
BITMAP
0000
0300
0300
0f00
0300
0300
0300
0300
0300
0300
0300
0780
0000
0000
ENDCHAR
STARTCHAR 2332
ENCODING 9010
SWIDTH 960 0
DWIDTH 14 0
BBX 14 14 0 -2
BITMAP
0000
0f80
18c0
3060
3060
00c0
0180
0700
0c00
1800
3000
3fe0
0000
0000
ENDCHAR
STARTCHAR 2333
ENCODING 9011
SWIDTH 960 0
DWIDTH 14 0
BBX 14 14 0 -2
BITMAP
0000
0f80
18c0
3060
3060
00c0
0780
00c0
3060
3060
18c0
0f80
0000
0000
ENDCHAR
STARTCHAR 2334
ENCODING 9012
SWIDTH 960 0
DWIDTH 14 0
BBX 14 14 0 -2
BITMAP
0000
00c0
01c0
0340
06c0
0cc0
18c0
30c0
3ff0
00c0
00c0
01e0
0000
0000
ENDCHAR
STARTCHAR 2335
ENCODING 9013
SWIDTH 960 0
DWIDTH 14 0
BBX 14 14 0 -2
BITMAP
0000
1fe0
1800
1800
1800
1b80
1cc0
0060
0060
0060
18c0
0f80
0000
0000
ENDCHAR
STARTCHAR 2336
ENCODING 9014
SWIDTH 960 0
DWIDTH 14 0
BBX 14 14 0 -2
BITMAP
0000
07c0
0c60
1800
1800
37c0
3460
3830
3030
1830
0c60
07c0
0000
0000
ENDCHAR
STARTCHAR 2337
ENCODING 9015
SWIDTH 960 0
DWIDTH 14 0
BBX 14 14 0 -2
BITMAP
0000
1ff0
1860
30c0
0180
0180
0300
0300
0300
0300
0300
0300
0000
0000
ENDCHAR
STARTCHAR 2338
ENCODING 9016
SWIDTH 960 0
DWIDTH 14 0
BBX 14 14 0 -2
BITMAP
0000
0f80
18c0
3060
30c0
1980
0f80
18c0
3060
3060
18c0
0f80
0000
0000
ENDCHAR
STARTCHAR 2339
ENCODING 9017
SWIDTH 960 0
DWIDTH 14 0
BBX 14 14 0 -2
BITMAP
0000
0f80
18c0
3060
3060
3060
18e0
0fa0
0060
3060
18c0
0f80
0000
0000
ENDCHAR
STARTCHAR 2341
ENCODING 9025
SWIDTH 960 0
DWIDTH 14 0
BBX 14 14 0 -2
BITMAP
0000
0300
0300
0680
0680
0cc0
0cc0
1860
1fe0
3030
3030
7878
0000
0000
ENDCHAR
STARTCHAR 2342
ENCODING 9026
SWIDTH 960 0
DWIDTH 14 0
BBX 14 14 0 -2
BITMAP
0000
3f80
18e0
1830
1830
18e0
1fc0
1870
1818
1818
1870
3fc0
0000
0000
ENDCHAR
STARTCHAR 2343
ENCODING 9027
SWIDTH 960 0
DWIDTH 14 0
BBX 14 14 0 -2
BITMAP
0000
07d0
1c70
3030
6000
6000
6000
6000
6000
3030
1c60
07c0
0000
0000
ENDCHAR
STARTCHAR 2344
ENCODING 9028
SWIDTH 960 0
DWIDTH 14 0
BBX 14 14 0 -2
BITMAP
0000
7f00
31c0
3060
3030
3030
3030
3030
3030
3060
31c0
7f00
0000
0000
ENDCHAR
STARTCHAR 2345
ENCODING 9029
SWIDTH 960 0
DWIDTH 14 0
BBX 14 14 0 -2
BITMAP
0000
7fc0
30c0
3060
3000
30c0
3fc0
30c0
3000
3000
3060
7fe0
0000
0000
ENDCHAR
STARTCHAR 2346
ENCODING 9030
SWIDTH 960 0
DWIDTH 14 0
BBX 14 14 0 -2
BITMAP
0000
7fc0
30c0
3060
3000
3180
3f80
3180
3000
3000
3000
7800
0000
0000
ENDCHAR
STARTCHAR 2347
ENCODING 9031
SWIDTH 960 0
DWIDTH 14 0
BBX 14 14 0 -2
BITMAP
0000
07a0
1ce0
3060
6000
6000
61f8
6060
6060
3060
1ce0
07a0
0060
0000
ENDCHAR
STARTCHAR 2348
ENCODING 9032
SWIDTH 960 0
DWIDTH 14 0
BBX 14 14 0 -2
BITMAP
0000
78f0
3060
3060
3060
3060
3fe0
3060
3060
3060
3060
78f0
0000
0000
ENDCHAR
STARTCHAR 2349
ENCODING 9033
SWIDTH 960 0
DWIDTH 14 0
BBX 14 14 0 -2
BITMAP
0000
0f00
0600
0600
0600
0600
0600
0600
0600
0600
0600
0f00
0000
0000
ENDCHAR
STARTCHAR 234a
ENCODING 9034
SWIDTH 960 0
DWIDTH 14 0
BBX 14 14 0 -2
BITMAP
0000
01e0
00c0
00c0
00c0
00c0
00c0
00c0
00c0
18c0
1980
0f00
0000
0000
ENDCHAR
STARTCHAR 234b
ENCODING 9035
SWIDTH 960 0
DWIDTH 14 0
BBX 14 14 0 -2
BITMAP
0000
79e0
30c0
3180
3300
3600
3a00
3300
3180
30c0
3060
78f0
0000
0000
ENDCHAR
STARTCHAR 234c
ENCODING 9036
SWIDTH 960 0
DWIDTH 14 0
BBX 14 14 0 -2
BITMAP
0000
7800
3000
3000
3000
3000
3000
3000
3000
3060
30c0
7fc0
0000
0000
ENDCHAR
STARTCHAR 234d
ENCODING 9037
SWIDTH 960 0
DWIDTH 14 0
BBX 14 14 0 -2
BITMAP
0000
e038
7070
70d0
68d0
69b0
6db0
6d30
6630
6630
6030
f078
0000
0000
ENDCHAR
STARTCHAR 234e
ENCODING 9038
SWIDTH 960 0
DWIDTH 14 0
BBX 14 14 0 -2
BITMAP
0000
70f0
3860
3860
3460
3660
3360
3360
31a0
30e0
30e0
7860
0000
0000
ENDCHAR
STARTCHAR 234f
ENCODING 9039
SWIDTH 960 0
DWIDTH 14 0
BBX 14 14 0 -2
BITMAP
0000
0780
1ce0
3030
6018
6018
6018
6018
6018
3030
1ce0
0780
0000
0000
ENDCHAR
STARTCHAR 2350
ENCODING 9040
SWIDTH 960 0
DWIDTH 14 0
BBX 14 14 0 -2
BITMAP
0000
7f00
31c0
3060
3060
31c0
3f00
3000
3000
3000
3000
7800
0000
0000
ENDCHAR
STARTCHAR 2351
ENCODING 9041
SWIDTH 960 0
DWIDTH 14 0
BBX 14 14 0 -2
BITMAP
0000
0780
1ce0
3030
6018
6018
6018
6018
6f18
39b0
1ce0
07e0
0038
0000
ENDCHAR
STARTCHAR 2352
ENCODING 9042
SWIDTH 960 0
DWIDTH 14 0
BBX 14 14 0 -2
BITMAP
0000
7f00
31c0
3060
3060
31c0
3f00
3180
30c0
30c0
3060
78f0
0000
0000
ENDCHAR
STARTCHAR 2353
ENCODING 9043
SWIDTH 960 0
DWIDTH 14 0
BBX 14 14 0 -2
BITMAP
0000
0fa0
18e0
3060
1800
0e00
0380
00e0
3030
3030
3860
37c0
0000
0000
ENDCHAR
STARTCHAR 2354
ENCODING 9044
SWIDTH 960 0
DWIDTH 14 0
BBX 14 14 0 -2
BITMAP
0000
7fe0
6660
c630
0600
0600
0600
0600
0600
0600
0600
0f00
0000
0000
ENDCHAR
STARTCHAR 2355
ENCODING 9045
SWIDTH 960 0
DWIDTH 14 0
BBX 14 14 0 -2
BITMAP
0000
78f0
3060
3060
3060
3060
3060
3060
3060
3060
18c0
0f80
0000
0000
ENDCHAR
STARTCHAR 2356
ENCODING 9046
SWIDTH 960 0
DWIDTH 14 0
BBX 14 14 0 -2
BITMAP
0000
7878
3030
3030
1860
1860
0cc0
0cc0
0680
0680
0300
0300
0000
0000
ENDCHAR
STARTCHAR 2357
ENCODING 9047
SWIDTH 960 0
DWIDTH 14 0
BBX 14 14 0 -2
BITMAP
0000
f33c
6318
6318
6330
36b0
36b0
35b0
34e0
1ce0
1860
1860
0000
0000
ENDCHAR
STARTCHAR 2358
ENCODING 9048
SWIDTH 960 0
DWIDTH 14 0
BBX 14 14 0 -2
BITMAP
0000
78f0
3060
18c0
0d80
0700
0300
0680
0cc0
1860
3030
7878
0000
0000
ENDCHAR
STARTCHAR 2359
ENCODING 9049
SWIDTH 960 0
DWIDTH 14 0
BBX 14 14 0 -2
BITMAP
0000
79e0
30c0
1980
0d00
0600
0600
0600
0600
0600
0600
0f00
0000
0000
ENDCHAR
STARTCHAR 235a
ENCODING 9050
SWIDTH 960 0
DWIDTH 14 0
BBX 14 14 0 -2
BITMAP
0000
3ff0
3060
60c0
0180
0300
0300
0600
0c00
1818
3030
7ff0
0000
0000
ENDCHAR
STARTCHAR 2361
ENCODING 9057
SWIDTH 960 0
DWIDTH 14 0
BBX 14 14 0 -2
BITMAP
0000
0000
0000
0000
0f80
18c0
18c0
07c0
1cc0
30c0
31c0
1f60
0000
0000
ENDCHAR
STARTCHAR 2362
ENCODING 9058
SWIDTH 960 0
DWIDTH 14 0
BBX 14 14 0 -2
BITMAP
0000
3800
1800
1800
1bc0
1a60
1c60
1860
1860
1860
1cc0
3b80
0000
0000
ENDCHAR
STARTCHAR 2363
ENCODING 9059
SWIDTH 960 0
DWIDTH 14 0
BBX 14 14 0 -2
BITMAP
0000
0000
0000
0000
0f80
18c0
3060
3000
3000
3060
18c0
0f80
0000
0000
ENDCHAR
STARTCHAR 2364
ENCODING 9060
SWIDTH 960 0
DWIDTH 14 0
BBX 14 14 0 -2
BITMAP
0000
00e0
00c0
00c0
0f40
19c0
30c0
30c0
30c0
30c0
19c0
0f60
0000
0000
ENDCHAR
STARTCHAR 2365
ENCODING 9061
SWIDTH 960 0
DWIDTH 14 0
BBX 14 14 0 -2
BITMAP
0000
0000
0000
0000
0f80
18c0
3060
3fe0
3000
3060
1cc0
0780
0000
0000
ENDCHAR
STARTCHAR 2366
ENCODING 9062
SWIDTH 960 0
DWIDTH 14 0
BBX 14 14 0 -2
BITMAP
0000
0380
06c0
0c00
0c00
3fc0
0c00
0c00
0c00
0c00
0c00
1e00
0000
0000
ENDCHAR
STARTCHAR 2367
ENCODING 9063
SWIDTH 960 0
DWIDTH 14 0
BBX 14 14 0 -2
BITMAP
0000
0000
0000
0000
0f60
19c0
18c0
1980
0f00
1800
1f80
30e0
3060
1fc0
ENDCHAR
STARTCHAR 2368
ENCODING 9064
SWIDTH 960 0
DWIDTH 14 0
BBX 14 14 0 -2
BITMAP
0000
3800
1800
1800
1b80
1ac0
1c60
1860
1860
1860
1860
3cf0
0000
0000
ENDCHAR
STARTCHAR 2369
ENCODING 9065
SWIDTH 960 0
DWIDTH 14 0
BBX 14 14 0 -2
BITMAP
0000
0600
0600
0000
0e00
0600
0600
0600
0600
0600
0600
0f00
0000
0000
ENDCHAR
STARTCHAR 236a
ENCODING 9066
SWIDTH 960 0
DWIDTH 14 0
BBX 14 14 0 -2
BITMAP
0000
0300
0300
0000
0700
0300
0300
0300
0300
0300
0300
0300
3300
1e00
ENDCHAR
STARTCHAR 236b
ENCODING 9067
SWIDTH 960 0
DWIDTH 14 0
BBX 14 14 0 -2
BITMAP
0000
3c00
1800
18f0
18c0
1980
1b00
1b00
1d80
18c0
1860
3cf0
0000
0000
ENDCHAR
STARTCHAR 236c
ENCODING 9068
SWIDTH 960 0
DWIDTH 14 0
BBX 14 14 0 -2
BITMAP
0000
0e00
0600
0600
0600
0600
0600
0600
0600
0600
0600
0f00
0000
0000
ENDCHAR
STARTCHAR 236d
ENCODING 9069
SWIDTH 960 0
DWIDTH 14 0
BBX 14 14 0 -2
BITMAP
0000
0000
0000
0000
edc0
7760
6660
6660
6660
6660
6660
f770
0000
0000
ENDCHAR
STARTCHAR 236e
ENCODING 9070
SWIDTH 960 0
DWIDTH 14 0
BBX 14 14 0 -2
BITMAP
0000
0000
0000
0000
3bc0
1a60
1c60
1860
1860
1860
1860
3cf0
0000
0000
ENDCHAR
STARTCHAR 236f
ENCODING 9071
SWIDTH 960 0
DWIDTH 14 0
BBX 14 14 0 -2
BITMAP
0000
0000
0000
0000
0f80
18c0
3060
3060
3060
3060
18c0
0f80
0000
0000
ENDCHAR
STARTCHAR 2370
ENCODING 9072
SWIDTH 960 0
DWIDTH 14 0
BBX 14 14 0 -2
BITMAP
0000
0000
0000
0000
1b80
1cc0
1860
1860
1860
1860
1cc0
1b80
1800
3c00
ENDCHAR
STARTCHAR 2371
ENCODING 9073
SWIDTH 960 0
DWIDTH 14 0
BBX 14 14 0 -2
BITMAP
0000
0000
0000
0000
0f40
19c0
30c0
30c0
30c0
30c0
19c0
0f40
00c0
01e0
ENDCHAR
STARTCHAR 2372
ENCODING 9074
SWIDTH 960 0
DWIDTH 14 0
BBX 14 14 0 -2
BITMAP
0000
0000
0000
0000
1b80
1ac0
1cc0
1800
1800
1800
1800
3c00
0000
0000
ENDCHAR
STARTCHAR 2373
ENCODING 9075
SWIDTH 960 0
DWIDTH 14 0
BBX 14 14 0 -2
BITMAP
0000
0000
0000
0000
1f40
31c0
3000
1c00
0780
00c0
70c0
1f80
0000
0000
ENDCHAR
STARTCHAR 2374
ENCODING 9076
SWIDTH 960 0
DWIDTH 14 0
BBX 14 14 0 -2
BITMAP
0000
0000
0c00
0c00
0c00
3fc0
0c00
0c00
0c00
0c00
0cc0
0780
0000
0000
ENDCHAR
STARTCHAR 2375
ENCODING 9077
SWIDTH 960 0
DWIDTH 14 0
BBX 14 14 0 -2
BITMAP
0000
0000
0000
0000
3cf0
1860
1860
1860
1860
1860
0ce0
07b0
0000
0000
ENDCHAR
STARTCHAR 2376
ENCODING 9078
SWIDTH 960 0
DWIDTH 14 0
BBX 14 14 0 -2
BITMAP
0000
0000
0000
0000
78f0
3060
18c0
18c0
0d80
0d80
0700
0700
0000
0000
ENDCHAR
STARTCHAR 2377
ENCODING 9079
SWIDTH 960 0
DWIDTH 14 0
BBX 14 14 0 -2
BITMAP
0000
0000
0000
0000
7878
3330
3330
1ab0
1aa0
1aa0
0cc0
0cc0
0000
0000
ENDCHAR
STARTCHAR 2378
ENCODING 9080
SWIDTH 960 0
DWIDTH 14 0
BBX 14 14 0 -2
BITMAP
0000
0000
0000
0000
38e0
18c0
0d80
0700
0700
0d80
18c0
38e0
0000
0000
ENDCHAR
STARTCHAR 2379
ENCODING 9081
SWIDTH 960 0
DWIDTH 14 0
BBX 14 14 0 -2
BITMAP
0000
0000
0000
0000
3cf0
1860
0c60
0cc0
06c0
0680
0380
0300
0600
1c00
ENDCHAR
STARTCHAR 237a
ENCODING 9082
SWIDTH 960 0
DWIDTH 14 0
BBX 14 14 0 -2
BITMAP
0000
0000
0000
0000
1fc0
3180
0300
0600
0c00
1860
30c0
3fc0
0000
0000
ENDCHAR
STARTCHAR 2421
ENCODING 9249
SWIDTH 960 0
DWIDTH 14 0
BBX 14 14 0 -2
BITMAP
0000
0000
0000
0c00
0600
3780
1e00
0d80
0fe0
1d30
3630
6e30
6a60
31c0
ENDCHAR
STARTCHAR 2422
ENCODING 9250
SWIDTH 960 0
DWIDTH 14 0
BBX 14 14 0 -2
BITMAP
0c00
0600
06c0
3f00
0d80
0d80
0fe0
1d30
3518
6618
6e18
6a30
30e0
0000
ENDCHAR
STARTCHAR 2423
ENCODING 9251
SWIDTH 960 0
DWIDTH 14 0
BBX 14 14 0 -2
BITMAP
0000
0000
0000
0000
0000
0000
30c0
3060
3030
3070
1a00
1c00
0c00
0000
ENDCHAR
STARTCHAR 2424
ENCODING 9252
SWIDTH 960 0
DWIDTH 14 0
BBX 14 14 0 -2
BITMAP
0000
0000
0000
c000
60e0
6030
6018
6618
6c38
3418
3800
1800
0000
0000
ENDCHAR
STARTCHAR 2425
ENCODING 9253
SWIDTH 960 0
DWIDTH 14 0
BBX 14 14 0 -2
BITMAP
0000
0000
0000
0000
0600
0380
0000
3780
1cc0
00c0
00c0
00c0
0180
0700
ENDCHAR
STARTCHAR 2426
ENCODING 9254
SWIDTH 960 0
DWIDTH 14 0
BBX 14 14 0 -2
BITMAP
0600
03c0
0000
0000
07c0
3c60
0060
0060
0060
0060
00c0
00c0
0180
0300
ENDCHAR
STARTCHAR 2427
ENCODING 9255
SWIDTH 960 0
DWIDTH 14 0
BBX 14 14 0 -2
BITMAP
0000
0000
0000
0000
0600
0380
0000
03c0
1e80
0300
0600
0f00
1b00
31f0
ENDCHAR
STARTCHAR 2428
ENCODING 9256
SWIDTH 960 0
DWIDTH 14 0
BBX 14 14 0 -2
BITMAP
0c00
0780
0000
0000
33c0
1e80
0300
0600
0c00
1e00
3300
6300
61f8
0000
ENDCHAR
STARTCHAR 2429
ENCODING 9257
SWIDTH 960 0
DWIDTH 14 0
BBX 14 14 0 -2
BITMAP
0000
0000
0000
0000
30c0
1870
1c60
7800
1bc0
1c60
3860
6860
39c0
1800
ENDCHAR
STARTCHAR 242a
ENCODING 9258
SWIDTH 960 0
DWIDTH 14 0
BBX 14 14 0 -2
BITMAP
0000
1800
0c70
0d18
0e1c
3c00
0ce0
0db0
0e18
1c18
7598
1cf0
0c00
0000
ENDCHAR
STARTCHAR 242b
ENCODING 9259
SWIDTH 960 0
DWIDTH 14 0
BBX 14 14 0 -2
BITMAP
0000
1800
0c00
0ce0
cf30
7d98
19b8
1980
1980
3180
3300
6d00
6600
0000
ENDCHAR
STARTCHAR 242c
ENCODING 9260
SWIDTH 960 0
DWIDTH 14 0
BBX 14 14 0 -2
BITMAP
0018
186c
0c30
0cc0
cf60
7db0
1998
19b8
1980
3180
3300
6d00
6600
0000
ENDCHAR
STARTCHAR 242d
ENCODING 9261
SWIDTH 960 0
DWIDTH 14 0
BBX 14 14 0 -2
BITMAP
0600
0300
0360
1f80
0180
01f0
3f40
0060
0060
0ff0
1830
1800
0e00
03c0
ENDCHAR
STARTCHAR 242e
ENCODING 9262
SWIDTH 960 0
DWIDTH 14 0
BBX 14 14 0 -2
BITMAP
0c18
066c
06d0
3f00
0300
03e0
7e80
00c0
00c0
1fe0
3060
3000
1c00
0780
ENDCHAR
STARTCHAR 242f
ENCODING 9263
SWIDTH 960 0
DWIDTH 14 0
BBX 14 14 0 -2
BITMAP
0180
00c0
00c0
0180
0300
0e00
1800
1800
0c00
0600
0300
0180
00c0
00c0
ENDCHAR
STARTCHAR 2430
ENCODING 9264
SWIDTH 960 0
DWIDTH 14 0
BBX 14 14 0 -2
BITMAP
0180
00c0
00c0
0198
036c
0e30
1800
1800
0c00
0600
0300
0180
00c0
00c0
ENDCHAR
STARTCHAR 2431
ENCODING 9265
SWIDTH 960 0
DWIDTH 14 0
BBX 14 14 0 -2
BITMAP
0180
60c0
3060
3060
307c
67e0
6060
6060
6060
6060
3860
30c0
30c0
0180
ENDCHAR
STARTCHAR 2432
ENCODING 9266
SWIDTH 960 0
DWIDTH 14 0
BBX 14 14 0 -2
BITMAP
0318
c1ac
60d0
60c0
60f8
cfc0
c0c0
c0c0
c0c0
c0c0
70c0
6180
6180
0300
ENDCHAR
STARTCHAR 2433
ENCODING 9267
SWIDTH 960 0
DWIDTH 14 0
BBX 14 14 0 -2
BITMAP
0000
1800
0fe0
0180
0300
0000
0000
0000
0000
6000
6000
3030
1fe0
0000
ENDCHAR
STARTCHAR 2434
ENCODING 9268
SWIDTH 960 0
DWIDTH 14 0
BBX 14 14 0 -2
BITMAP
0018
180c
0ff0
0198
0300
0000
0000
0000
0000
6000
6000
3030
1fe0
0000
ENDCHAR
STARTCHAR 2435
ENCODING 9269
SWIDTH 960 0
DWIDTH 14 0
BBX 14 14 0 -2
BITMAP
0c00
0600
0370
63c0
3e80
00c0
00c0
0fe0
1860
3000
3000
1c00
07c0
0000
ENDCHAR
STARTCHAR 2436
ENCODING 9270
SWIDTH 960 0
DWIDTH 14 0
BBX 14 14 0 -2
BITMAP
0c18
060c
0370
63d8
3e80
00c0
00c0
0fe0
1860
3000
3000
1c00
07c0
0000
ENDCHAR
STARTCHAR 2437
ENCODING 9271
SWIDTH 960 0
DWIDTH 14 0
BBX 14 14 0 -2
BITMAP
0000
3000
1800
1800
1800
1800
1800
1800
1800
1818
1830
0ce0
0780
0000
ENDCHAR
STARTCHAR 2438
ENCODING 9272
SWIDTH 960 0
DWIDTH 14 0
BBX 14 14 0 -2
BITMAP
0000
3060
19b0
18c0
1800
1800
1800
1800
1800
1818
1830
0ce0
0780
0000
ENDCHAR
STARTCHAR 2439
ENCODING 9273
SWIDTH 960 0
DWIDTH 14 0
BBX 14 14 0 -2
BITMAP
0300
0180
c1f8
7f80
0180
0780
0dc0
0cc0
07c0
00c0
0180
0180
0300
0600
ENDCHAR
STARTCHAR 243a
ENCODING 9274
SWIDTH 960 0
DWIDTH 14 0
BBX 14 14 0 -2
BITMAP
0368
01b4
c1f8
7f80
0180
0780
0dc0
0cc0
07c0
00c0
0180
0180
0300
0600
ENDCHAR
STARTCHAR 243b
ENCODING 9275
SWIDTH 960 0
DWIDTH 14 0
BBX 14 14 0 -2
BITMAP
0000
0180
30c0
18c0
18f8
dbc0
7cc0
18c0
18c0
19c0
18c0
0c00
07e0
0000
ENDCHAR
STARTCHAR 243c
ENCODING 9276
SWIDTH 960 0
DWIDTH 14 0
BBX 14 14 0 -2
BITMAP
0018
018c
30d0
18d8
18f8
dbc0
7cc0
18c0
18c0
19c0
18c0
0c00
07e0
0000
ENDCHAR
STARTCHAR 243d
ENCODING 9277
SWIDTH 960 0
DWIDTH 14 0
BBX 14 14 0 -2
BITMAP
0000
1bc0
0ec0
0180
0300
0678
0fc0
7980
0300
0600
0600
0600
0300
01e0
ENDCHAR
STARTCHAR 243e
ENCODING 9278
SWIDTH 960 0
DWIDTH 14 0
BBX 14 14 0 -2
BITMAP
0000
1bd8
0eec
01b0
0300
0678
0fc0
7980
0300
0600
0600
0600
0300
01e0
ENDCHAR
STARTCHAR 243f
ENCODING 9279
SWIDTH 960 0
DWIDTH 14 0
BBX 14 14 0 -2
BITMAP
0000
1800
0d80
0f00
7c00
19f0
1838
1860
3000
3000
3300
6300
61f8
0000
ENDCHAR
STARTCHAR 2440
ENCODING 9280
SWIDTH 960 0
DWIDTH 14 0
BBX 14 14 0 -2
BITMAP
0018
186c
0db0
0f00
7c00
19f0
1838
1860
3000
3000
3300
6300
61f8
0000
ENDCHAR
STARTCHAR 2441
ENCODING 9281
SWIDTH 960 0
DWIDTH 14 0
BBX 14 14 0 -2
BITMAP
1800
0c00
0dc0
cf00
7c00
1800
19c0
1b60
3c30
3030
0030
0060
01c0
0f00
ENDCHAR
STARTCHAR 2442
ENCODING 9282
SWIDTH 960 0
DWIDTH 14 0
BBX 14 14 0 -2
BITMAP
1800
0c18
0dcc
cf30
7c18
1800
19c0
1b60
3c30
3030
0030
0060
01c0
0f00
ENDCHAR
STARTCHAR 2443
ENCODING 9283
SWIDTH 960 0
DWIDTH 14 0
BBX 14 14 0 -2
BITMAP
0000
0000
0000
0000
0000
0000
03c0
0e60
7830
0030
0030
0060
01c0
0f00
ENDCHAR
STARTCHAR 2444
ENCODING 9284
SWIDTH 960 0
DWIDTH 14 0
BBX 14 14 0 -2
BITMAP
0000
0000
0000
07e0
dc30
7018
0018
0018
0018
0030
00e0
0780
0000
0000
ENDCHAR
STARTCHAR 2445
ENCODING 9285
SWIDTH 960 0
DWIDTH 14 0
BBX 14 14 0 -2
BITMAP
0018
006c
0030
07e0
dc30
7018
0018
0018
0018
0030
00e0
0780
0000
0000
ENDCHAR
STARTCHAR 2446
ENCODING 9286
SWIDTH 960 0
DWIDTH 14 0
BBX 14 14 0 -2
BITMAP
0000
0078
c7c0
7d80
0300
0300
0600
0600
0600
0600
0600
0300
01e0
0000
ENDCHAR
STARTCHAR 2447
ENCODING 9287
SWIDTH 960 0
DWIDTH 14 0
BBX 14 14 0 -2
BITMAP
0000
0078
c7c0
7d98
036c
0330
0600
0600
0600
0600
0600
0300
01e0
0000
ENDCHAR
STARTCHAR 2448
ENCODING 9288
SWIDTH 960 0
DWIDTH 14 0
BBX 14 14 0 -2
BITMAP
0000
0c00
0600
0600
0600
06f0
0780
0e00
1800
3000
3000
1800
0ff0
0000
ENDCHAR
STARTCHAR 2449
ENCODING 9289
SWIDTH 960 0
DWIDTH 14 0
BBX 14 14 0 -2
BITMAP
0000
0c18
066c
0630
0600
06f0
0780
0e00
1800
3000
3000
1800
0ff0
0000
ENDCHAR
STARTCHAR 244a
ENCODING 9290
SWIDTH 960 0
DWIDTH 14 0
BBX 14 14 0 -2
BITMAP
0c00
0600
0680
7f00
0cf0
1838
1860
30c0
30c0
60c0
07c0
0ce0
0cd0
0780
ENDCHAR
STARTCHAR 244b
ENCODING 9291
SWIDTH 960 0
DWIDTH 14 0
BBX 14 14 0 -2
BITMAP
0000
6000
3000
31f0
3738
6060
6000
6000
6000
6600
6a00
33f8
3000
3000
ENDCHAR
STARTCHAR 244c
ENCODING 9292
SWIDTH 960 0
DWIDTH 14 0
BBX 14 14 0 -2
BITMAP
0000
0300
0180
0180
37e0
3530
3b18
3618
6a18
dc18
dce8
d5b0
60e8
0000
ENDCHAR
STARTCHAR 244d
ENCODING 9293
SWIDTH 960 0
DWIDTH 14 0
BBX 14 14 0 -2
BITMAP
3000
1800
1800
1800
dde0
7f30
1c30
1830
3830
3830
69f0
db38
19e0
0000
ENDCHAR
STARTCHAR 244e
ENCODING 9294
SWIDTH 960 0
DWIDTH 14 0
BBX 14 14 0 -2
BITMAP
0000
0000
07c0
1d60
3330
3318
6618
6618
6c18
6c30
6830
30e0
0380
0000
ENDCHAR
STARTCHAR 244f
ENCODING 9295
SWIDTH 960 0
DWIDTH 14 0
BBX 14 14 0 -2
BITMAP
00c0
6060
3060
3478
37e0
6060
6060
6060
6060
6be0
3670
3668
33c0
0000
ENDCHAR
STARTCHAR 2450
ENCODING 9296
SWIDTH 960 0
DWIDTH 14 0
BBX 14 14 0 -2
BITMAP
0198
c0cc
60d0
68f8
6fc0
c0c0
c0c0
c0c0
c0c0
d7c0
6ce0
6cd0
6780
0000
ENDCHAR
STARTCHAR 2451
ENCODING 9297
SWIDTH 960 0
DWIDTH 14 0
BBX 14 14 0 -2
BITMAP
01b8
c0ec
60ec
68f8
6fc0
c0c0
c0c0
c0c0
c0c0
d7c0
6ce0
6cd0
6780
0000
ENDCHAR
STARTCHAR 2452
ENCODING 9298
SWIDTH 960 0
DWIDTH 14 0
BBX 14 14 0 -2
BITMAP
0000
00c0
0cc0
7c60
1860
1870
3068
3060
3060
30c0
30c0
1980
0f00
0000
ENDCHAR
STARTCHAR 2453
ENCODING 9299
SWIDTH 960 0
DWIDTH 14 0
BBX 14 14 0 -2
BITMAP
0018
00cc
0cd0
7c68
1860
1870
3068
3060
3060
30c0
30c0
1980
0f00
0000
ENDCHAR
STARTCHAR 2454
ENCODING 9300
SWIDTH 960 0
DWIDTH 14 0
BBX 14 14 0 -2
BITMAP
0070
00d8
0cd8
7c70
1860
1870
3068
3060
3060
30c0
30c0
1980
0f00
0000
ENDCHAR
STARTCHAR 2455
ENCODING 9301
SWIDTH 960 0
DWIDTH 14 0
BBX 14 14 0 -2
BITMAP
0000
0c00
0780
0180
0300
0600
0600
0300
06b0
dd98
79bc
6d80
0700
0000
ENDCHAR
STARTCHAR 2456
ENCODING 9302
SWIDTH 960 0
DWIDTH 14 0
BBX 14 14 0 -2
BITMAP
0000
0c00
0798
01ac
0330
0600
0600
0300
06b0
dd98
79bc
6d80
0700
0000
ENDCHAR
STARTCHAR 2457
ENCODING 9303
SWIDTH 960 0
DWIDTH 14 0
BBX 14 14 0 -2
BITMAP
0000
0c00
07b8
01ac
036c
0638
0600
0300
06b0
dd98
79bc
6d80
0700
0000
ENDCHAR
STARTCHAR 2458
ENCODING 9304
SWIDTH 960 0
DWIDTH 14 0
BBX 14 14 0 -2
BITMAP
0000
0000
0000
0000
0e00
1b00
d180
60c0
0070
001c
0000
0000
0000
0000
ENDCHAR
STARTCHAR 2459
ENCODING 9305
SWIDTH 960 0
DWIDTH 14 0
BBX 14 14 0 -2
BITMAP
0000
0000
0030
00d8
0e60
1b00
d180
60c0
0070
001c
0000
0000
0000
0000
ENDCHAR
STARTCHAR 245a
ENCODING 9306
SWIDTH 960 0
DWIDTH 14 0
BBX 14 14 0 -2
BITMAP
0000
0070
00d8
00d8
0e70
1b00
d180
60c0
0070
001c
0000
0000
0000
0000
ENDCHAR
STARTCHAR 245b
ENCODING 9307
SWIDTH 960 0
DWIDTH 14 0
BBX 14 14 0 -2
BITMAP
0000
6670
33c0
30c0
3078
67e0
6060
6060
6060
6be0
3670
3668
33c0
0000
ENDCHAR
STARTCHAR 245c
ENCODING 9308
SWIDTH 960 0
DWIDTH 14 0
BBX 14 14 0 -2
BITMAP
0000
cce8
678c
61b0
60f8
cfc0
c0c0
c0c0
c0c0
d7c0
6ce0
6cd0
6780
0000
ENDCHAR
STARTCHAR 245d
ENCODING 9309
SWIDTH 960 0
DWIDTH 14 0
BBX 14 14 0 -2
BITMAP
0038
ccec
67ac
61b8
60f0
cfc0
c0c0
c0c0
c0c0
d7c0
6ce0
6cd0
6780
0000
ENDCHAR
STARTCHAR 245e
ENCODING 9310
SWIDTH 960 0
DWIDTH 14 0
BBX 14 14 0 -2
BITMAP
0300
0180
31f0
1f80
0180
31e0
1f80
0180
0180
1f80
31e0
31b0
1f00
0000
ENDCHAR
STARTCHAR 245f
ENCODING 9311
SWIDTH 960 0
DWIDTH 14 0
BBX 14 14 0 -2
BITMAP
0000
1980
0f80
0300
0300
0660
0630
1ff0
7438
cc6c
d860
70c0
0180
0000
ENDCHAR
STARTCHAR 2460
ENCODING 9312
SWIDTH 960 0
DWIDTH 14 0
BBX 14 14 0 -2
BITMAP
1800
0c00
6f00
3c70
0c18
3c1c
6c00
6c00
6c60
3830
1830
1830
0fe0
0000
ENDCHAR
STARTCHAR 2461
ENCODING 9313
SWIDTH 960 0
DWIDTH 14 0
BBX 14 14 0 -2
BITMAP
0000
0300
0180
3180
37c0
3da0
3330
6b18
6a18
ce18
cc18
da30
70e0
0000
ENDCHAR
STARTCHAR 2462
ENCODING 9314
SWIDTH 960 0
DWIDTH 14 0
BBX 14 14 0 -2
BITMAP
0600
0300
3300
1e00
0780
3600
6c60
3c60
0f30
0c30
0c30
0c30
0660
03c0
ENDCHAR
STARTCHAR 2463
ENCODING 9315
SWIDTH 960 0
DWIDTH 14 0
BBX 14 14 0 -2
BITMAP
0000
0000
0000
0000
0300
1980
1be0
1e30
7c30
0ce0
0600
0600
0300
0300
ENDCHAR
STARTCHAR 2464
ENCODING 9316
SWIDTH 960 0
DWIDTH 14 0
BBX 14 14 0 -2
BITMAP
0300
0180
03c0
3800
31f0
1b18
dc18
7418
06f0
0600
0300
0300
0180
0180
ENDCHAR
STARTCHAR 2465
ENCODING 9317
SWIDTH 960 0
DWIDTH 14 0
BBX 14 14 0 -2
BITMAP
0000
0000
0000
0000
0600
0300
63e0
6f30
6b30
7330
6760
63c0
0300
0600
ENDCHAR
STARTCHAR 2466
ENCODING 9318
SWIDTH 960 0
DWIDTH 14 0
BBX 14 14 0 -2
BITMAP
0000
0700
c180
63e0
66b0
6d98
6998
7198
7598
66b0
63e0
0180
0300
0600
ENDCHAR
STARTCHAR 2467
ENCODING 9319
SWIDTH 960 0
DWIDTH 14 0
BBX 14 14 0 -2
BITMAP
0000
0000
0000
0600
0300
0360
03c0
0300
0300
0300
1f00
33c0
3360
1e00
ENDCHAR
STARTCHAR 2468
ENCODING 9320
SWIDTH 960 0
DWIDTH 14 0
BBX 14 14 0 -2
BITMAP
0600
0300
0300
0370
03c0
0300
0300
0300
0300
3f80
6360
6330
3e00
0000
ENDCHAR
STARTCHAR 2469
ENCODING 9321
SWIDTH 960 0
DWIDTH 14 0
BBX 14 14 0 -2
BITMAP
0600
0300
03c0
0e00
1800
1800
1800
1be0
1e30
1830
1830
0060
01c0
0700
ENDCHAR
STARTCHAR 246a
ENCODING 9322
SWIDTH 960 0
DWIDTH 14 0
BBX 14 14 0 -2
BITMAP
3000
1b80
1ac0
1c60
1c60
1860
1860
1860
1860
00c0
00c0
0180
0300
0600
ENDCHAR
STARTCHAR 246b
ENCODING 9323
SWIDTH 960 0
DWIDTH 14 0
BBX 14 14 0 -2
BITMAP
0000
19c0
0f40
0180
0300
0600
0fc0
1c60
3030
6030
07b0
0ce0
0cc0
0780
ENDCHAR
STARTCHAR 246c
ENCODING 9324
SWIDTH 960 0
DWIDTH 14 0
BBX 14 14 0 -2
BITMAP
0000
3000
1800
1bc0
1a60
3c60
ec60
1860
3860
3860
6860
d86c
3838
1800
ENDCHAR
STARTCHAR 246d
ENCODING 9325
SWIDTH 960 0
DWIDTH 14 0
BBX 14 14 0 -2
BITMAP
0000
3380
1e80
0300
0600
0c00
1fc0
1860
3030
6030
0030
0060
01c0
0f00
ENDCHAR
STARTCHAR 246e
ENCODING 9326
SWIDTH 960 0
DWIDTH 14 0
BBX 14 14 0 -2
BITMAP
0000
0000
0000
0000
1800
0c00
0c00
0ee0
3d30
0e30
1c30
1c30
3460
0cc0
ENDCHAR
STARTCHAR 246f
ENCODING 9327
SWIDTH 960 0
DWIDTH 14 0
BBX 14 14 0 -2
BITMAP
3000
1800
1800
1800
dde0
7f30
1c18
1818
3818
3818
6830
d860
39c0
1800
ENDCHAR
STARTCHAR 2470
ENCODING 9328
SWIDTH 960 0
DWIDTH 14 0
BBX 14 14 0 -2
BITMAP
0000
1b80
0e80
0300
0300
07e0
1e30
3618
6c18
6c18
69d8
3b70
31e0
0000
ENDCHAR
STARTCHAR 2471
ENCODING 9329
SWIDTH 960 0
DWIDTH 14 0
BBX 14 14 0 -2
BITMAP
0000
1b80
0f00
0600
0fc0
1860
3060
0e60
1bc0
0f00
1800
3de0
6730
c078
ENDCHAR
STARTCHAR 2472
ENCODING 9330
SWIDTH 960 0
DWIDTH 14 0
BBX 14 14 0 -2
BITMAP
0c00
0600
36c0
1f00
0c00
0c60
1f78
39c0
6380
0680
0d80
1800
1800
0fe0
ENDCHAR
STARTCHAR 2473
ENCODING 9331
SWIDTH 960 0
DWIDTH 14 0
BBX 14 14 0 -2
BITMAP
0600
0300
0300
0600
0600
0c00
0c00
1f00
1980
3180
3198
61b0
60e0
0000
ENDCHAR
STARTCHAR 2521
ENCODING 9505
SWIDTH 960 0
DWIDTH 14 0
BBX 14 14 0 -2
BITMAP
0000
0000
0000
0000
0000
0000
63e0
3e60
06c0
0380
0300
0300
0600
0c00
ENDCHAR
STARTCHAR 2522
ENCODING 9506
SWIDTH 960 0
DWIDTH 14 0
BBX 14 14 0 -2
BITMAP
0000
0000
63f0
3e30
0060
06c0
0380
0300
0300
0300
0600
0600
0c00
1800
ENDCHAR
STARTCHAR 2523
ENCODING 9507
SWIDTH 960 0
DWIDTH 14 0
BBX 14 14 0 -2
BITMAP
0000
0000
0000
0000
0060
00c0
0180
0780
3d80
0180
0180
0180
0180
0180
ENDCHAR
STARTCHAR 2524
ENCODING 9508
SWIDTH 960 0
DWIDTH 14 0
BBX 14 14 0 -2
BITMAP
0000
0060
0060
00c0
0180
0700
1d00
7180
0180
0180
0180
0180
0180
0180
ENDCHAR
STARTCHAR 2525
ENCODING 9509
SWIDTH 960 0
DWIDTH 14 0
BBX 14 14 0 -2
BITMAP
0000
0000
0000
0000
0600
0300
03e0
3e60
1860
18c0
00c0
0180
0300
0600
ENDCHAR
STARTCHAR 2526
ENCODING 9510
SWIDTH 960 0
DWIDTH 14 0
BBX 14 14 0 -2
BITMAP
0000
0600
0300
0300
03f0
7e30
3030
3060
1860
18c0
00c0
0180
0300
0600
ENDCHAR
STARTCHAR 2527
ENCODING 9511
SWIDTH 960 0
DWIDTH 14 0
BBX 14 14 0 -2
BITMAP
0000
0000
0000
0000
0000
0000
01e0
1f00
0300
0300
0300
03e0
3e30
0000
ENDCHAR
STARTCHAR 2528
ENCODING 9512
SWIDTH 960 0
DWIDTH 14 0
BBX 14 14 0 -2
BITMAP
0000
0000
0000
00f0
3f80
0600
0300
0300
0300
0300
07f0
7c18
0000
0000
ENDCHAR
STARTCHAR 2529
ENCODING 9513
SWIDTH 960 0
DWIDTH 14 0
BBX 14 14 0 -2
BITMAP
0000
0000
0000
0000
0300
0180
31e0
1f80
0380
0680
0d80
1980
3380
0180
ENDCHAR
STARTCHAR 252a
ENCODING 9514
SWIDTH 960 0
DWIDTH 14 0
BBX 14 14 0 -2
BITMAP
0000
0180
00c0
00c0
60f8
3fc0
01c0
0340
06c0
0cc0
18c0
30c0
01c0
00c0
ENDCHAR
STARTCHAR 252b
ENCODING 9515
SWIDTH 960 0
DWIDTH 14 0
BBX 14 14 0 -2
BITMAP
0000
0600
0300
0300
63f0
3f30
0630
0630
0c60
0c60
1860
3340
61c0
0180
ENDCHAR
STARTCHAR 252c
ENCODING 9516
SWIDTH 960 0
DWIDTH 14 0
BBX 14 14 0 -2
BITMAP
0018
066c
0334
0330
63f0
3f30
0630
0630
0c60
0c60
1860
3340
61c0
0180
ENDCHAR
STARTCHAR 252d
ENCODING 9517
SWIDTH 960 0
DWIDTH 14 0
BBX 14 14 0 -2
BITMAP
0000
0c00
0600
06f0
0780
3d00
0300
0378
0780
7d80
0180
00c0
00c0
00c0
ENDCHAR
STARTCHAR 252e
ENCODING 9518
SWIDTH 960 0
DWIDTH 14 0
BBX 14 14 0 -2
BITMAP
0018
0c6c
0634
06f0
0780
3d00
0300
0378
0780
7d80
0180
00c0
00c0
00c0
ENDCHAR
STARTCHAR 252f
ENCODING 9519
SWIDTH 960 0
DWIDTH 14 0
BBX 14 14 0 -2
BITMAP
0000
0c00
06f0
07b0
0660
0c60
0cc0
18c0
3180
0180
0300
0600
0c00
1800
ENDCHAR
STARTCHAR 2530
ENCODING 9520
SWIDTH 960 0
DWIDTH 14 0
BBX 14 14 0 -2
BITMAP
0018
186c
0dd4
0f50
0cc0
18c0
1980
3180
6300
0300
0600
0c00
1800
3000
ENDCHAR
STARTCHAR 2531
ENCODING 9521
SWIDTH 960 0
DWIDTH 14 0
BBX 14 14 0 -2
BITMAP
0000
1800
0c00
0c00
0c78
1fc0
1b00
3180
6180
0180
0300
0300
0600
0c00
ENDCHAR
STARTCHAR 2532
ENCODING 9522
SWIDTH 960 0
DWIDTH 14 0
BBX 14 14 0 -2
BITMAP
0018
186c
0c34
0c30
0c78
1fc0
1b00
3180
6180
0180
0300
0300
0600
0c00
ENDCHAR
STARTCHAR 2533
ENCODING 9523
SWIDTH 960 0
DWIDTH 14 0
BBX 14 14 0 -2
BITMAP
0000
0000
0000
63f0
3e30
0030
0030
0030
0060
0060
07e0
3c60
0000
0000
ENDCHAR
STARTCHAR 2534
ENCODING 9524
SWIDTH 960 0
DWIDTH 14 0
BBX 14 14 0 -2
BITMAP
0018
006c
0034
c7d0
7cc0
00c0
00c0
00c0
0180
0180
0f80
7980
0000
0000
ENDCHAR
STARTCHAR 2535
ENCODING 9525
SWIDTH 960 0
DWIDTH 14 0
BBX 14 14 0 -2
BITMAP
0000
0180
18c0
0cc0
0cc0
6df8
3f40
0cc0
0cc0
0cc0
0180
0180
0300
0600
ENDCHAR
STARTCHAR 2536
ENCODING 9526
SWIDTH 960 0
DWIDTH 14 0
BBX 14 14 0 -2
BITMAP
0018
01ac
18d4
0cd0
0cc0
6df8
3f40
0cc0
0cc0
0cc0
0180
0180
0300
0600
ENDCHAR
STARTCHAR 2537
ENCODING 9527
SWIDTH 960 0
DWIDTH 14 0
BBX 14 14 0 -2
BITMAP
0000
0000
1c00
0600
0000
3800
0c18
0030
0060
00c0
0180
3700
1c00
0000
ENDCHAR
STARTCHAR 2538
ENCODING 9528
SWIDTH 960 0
DWIDTH 14 0
BBX 14 14 0 -2
BITMAP
0000
0018
1c6c
0634
0030
3800
0c18
0030
0060
00c0
0180
3700
1c00
0000
ENDCHAR
STARTCHAR 2539
ENCODING 9529
SWIDTH 960 0
DWIDTH 14 0
BBX 14 14 0 -2
BITMAP
0000
0000
31e0
1f60
00c0
00c0
0180
0180
0340
0660
1c30
7030
0000
0000
ENDCHAR
STARTCHAR 253a
ENCODING 9530
SWIDTH 960 0
DWIDTH 14 0
BBX 14 14 0 -2
BITMAP
0018
006c
63d4
3ed0
0180
0180
0300
0300
0680
0cc0
3860
e060
0000
0000
ENDCHAR
STARTCHAR 253b
ENCODING 9531
SWIDTH 960 0
DWIDTH 14 0
BBX 14 14 0 -2
BITMAP
0000
1800
0c00
0c00
0cf8
0d98
6e30
3c60
0cc0
0c00
0c00
0600
03f0
0000
ENDCHAR
STARTCHAR 253c
ENCODING 9532
SWIDTH 960 0
DWIDTH 14 0
BBX 14 14 0 -2
BITMAP
0018
186c
0c34
0c30
0cf8
0d98
6e30
3c60
0cc0
0c00
0c00
0600
03f8
0000
ENDCHAR
STARTCHAR 253d
ENCODING 9533
SWIDTH 960 0
DWIDTH 14 0
BBX 14 14 0 -2
BITMAP
0000
0060
3030
1830
0c30
0c60
0c60
00c0
00c0
0180
0180
0300
0600
0c00
ENDCHAR
STARTCHAR 253e
ENCODING 9534
SWIDTH 960 0
DWIDTH 14 0
BBX 14 14 0 -2
BITMAP
0018
01ac
60d4
30d0
18c0
18c0
18c0
0180
0180
0300
0300
0600
0c00
1800
ENDCHAR
STARTCHAR 253f
ENCODING 9535
SWIDTH 960 0
DWIDTH 14 0
BBX 14 14 0 -2
BITMAP
0000
0600
0300
03f0
0630
0660
0d60
19c0
30c0
0180
0300
0600
1c00
7000
ENDCHAR
STARTCHAR 2540
ENCODING 9536
SWIDTH 960 0
DWIDTH 14 0
BBX 14 14 0 -2
BITMAP
0018
0c6c
0634
07f0
0c60
0c60
1ac0
3340
6180
0300
0600
0c00
3800
e000
ENDCHAR
STARTCHAR 2541
ENCODING 9537
SWIDTH 960 0
DWIDTH 14 0
BBX 14 14 0 -2
BITMAP
0000
00c0
0380
3e00
0300
01f8
6780
3d80
0180
0180
0300
0300
0600
0c00
ENDCHAR
STARTCHAR 2542
ENCODING 9538
SWIDTH 960 0
DWIDTH 14 0
BBX 14 14 0 -2
BITMAP
0018
00ec
03b4
3e30
0300
01f8
6780
3d80
0180
0180
0300
0300
0600
0c00
ENDCHAR
STARTCHAR 2543
ENCODING 9539
SWIDTH 960 0
DWIDTH 14 0
BBX 14 14 0 -2
BITMAP
0000
0000
0000
0000
0000
0000
0cc0
3660
1a60
18c0
00c0
0180
0300
0600
ENDCHAR
STARTCHAR 2544
ENCODING 9540
SWIDTH 960 0
DWIDTH 14 0
BBX 14 14 0 -2
BITMAP
0000
0000
0c30
6618
3318
1b30
1830
0060
0060
00c0
0180
0300
0600
0000
ENDCHAR
STARTCHAR 2545
ENCODING 9541
SWIDTH 960 0
DWIDTH 14 0
BBX 14 14 0 -2
BITMAP
0018
006c
31b4
18d0
ccc0
6cc0
30c0
3180
0180
0300
0600
0c00
1800
0000
ENDCHAR
STARTCHAR 2546
ENCODING 9542
SWIDTH 960 0
DWIDTH 14 0
BBX 14 14 0 -2
BITMAP
0000
0000
33e0
1e00
0000
00f8
6780
3d80
0180
0300
0300
0600
0c00
1800
ENDCHAR
STARTCHAR 2547
ENCODING 9543
SWIDTH 960 0
DWIDTH 14 0
BBX 14 14 0 -2
BITMAP
0018
006c
33d4
1e30
0000
61f0
3f00
0180
0180
0300
0300
0600
0c00
1800
ENDCHAR
STARTCHAR 2548
ENCODING 9544
SWIDTH 960 0
DWIDTH 14 0
BBX 14 14 0 -2
BITMAP
0000
1800
0c00
0c00
0c00
0c00
0f00
0dc0
0c60
0c00
0c00
0c00
0c00
0c00
ENDCHAR
STARTCHAR 2549
ENCODING 9545
SWIDTH 960 0
DWIDTH 14 0
BBX 14 14 0 -2
BITMAP
0060
31b0
18d0
18c0
1800
1800
1e00
1b80
18c0
1800
1800
1800
1800
1800
ENDCHAR
STARTCHAR 254a
ENCODING 9546
SWIDTH 960 0
DWIDTH 14 0
BBX 14 14 0 -2
BITMAP
0000
0300
0180
0180
61f8
3f80
0180
0180
0180
0300
0300
0600
0c00
1800
ENDCHAR
STARTCHAR 254b
ENCODING 9547
SWIDTH 960 0
DWIDTH 14 0
BBX 14 14 0 -2
BITMAP
0000
0000
0000
01e0
3f00
0000
0000
0000
0000
03f0
7e18
0000
0000
0000
ENDCHAR
STARTCHAR 254c
ENCODING 9548
SWIDTH 960 0
DWIDTH 14 0
BBX 14 14 0 -2
BITMAP
0000
0000
31f0
1f30
0060
0060
1ec0
03c0
01c0
0360
0630
1c30
7000
0000
ENDCHAR
STARTCHAR 254d
ENCODING 9549
SWIDTH 960 0
DWIDTH 14 0
BBX 14 14 0 -2
BITMAP
0000
0600
0300
03e0
3e60
00c0
0180
0300
0740
1d70
7318
0300
0300
0300
ENDCHAR
STARTCHAR 254e
ENCODING 9550
SWIDTH 960 0
DWIDTH 14 0
BBX 14 14 0 -2
BITMAP
0000
00c0
0060
0060
0060
00c0
00c0
0180
0180
0300
0600
0c00
1800
3000
ENDCHAR
STARTCHAR 254f
ENCODING 9551
SWIDTH 960 0
DWIDTH 14 0
BBX 14 14 0 -2
BITMAP
0000
0000
0000
0000
1980
0cc0
0c60
1830
1830
3018
6018
c018
0000
0000
ENDCHAR
STARTCHAR 2550
ENCODING 9552
SWIDTH 960 0
DWIDTH 14 0
BBX 14 14 0 -2
BITMAP
0000
0018
006c
0034
19b0
0cc0
0c60
1830
1830
3018
6018
c018
0000
0000
ENDCHAR
STARTCHAR 2551
ENCODING 9553
SWIDTH 960 0
DWIDTH 14 0
BBX 14 14 0 -2
BITMAP
0038
006c
006c
0038
1980
0cc0
0c60
1830
1830
3018
6018
c018
0000
0000
ENDCHAR
STARTCHAR 2552
ENCODING 9554
SWIDTH 960 0
DWIDTH 14 0
BBX 14 14 0 -2
BITMAP
0000
0000
3000
1800
1800
19e0
1f00
1800
1800
1800
1800
0c00
07f0
0000
ENDCHAR
STARTCHAR 2553
ENCODING 9555
SWIDTH 960 0
DWIDTH 14 0
BBX 14 14 0 -2
BITMAP
0000
0030
30d8
1868
1860
1800
19e0
1f00
1800
1800
1800
0c00
07f0
0000
ENDCHAR
STARTCHAR 2554
ENCODING 9556
SWIDTH 960 0
DWIDTH 14 0
BBX 14 14 0 -2
BITMAP
0000
0070
30d8
18d8
1870
1800
19e0
1f00
1800
1800
1800
0c00
07f0
0000
ENDCHAR
STARTCHAR 2555
ENCODING 9557
SWIDTH 960 0
DWIDTH 14 0
BBX 14 14 0 -2
BITMAP
0000
0000
31f0
1f30
0030
0060
0060
00c0
00c0
0180
0300
0600
0c00
0000
ENDCHAR
STARTCHAR 2556
ENCODING 9558
SWIDTH 960 0
DWIDTH 14 0
BBX 14 14 0 -2
BITMAP
0018
006c
67d4
3cd0
00c0
0180
0180
0300
0300
0600
0c00
1800
3000
0000
ENDCHAR
STARTCHAR 2557
ENCODING 9559
SWIDTH 960 0
DWIDTH 14 0
BBX 14 14 0 -2
BITMAP
0038
006c
67ec
3cd8
00c0
0180
0180
0300
0300
0600
0c00
1800
3000
0000
ENDCHAR
STARTCHAR 2558
ENCODING 9560
SWIDTH 960 0
DWIDTH 14 0
BBX 14 14 0 -2
BITMAP
0000
0000
0000
0000
0600
0d00
d980
70c0
0070
001c
0000
0000
0000
0000
ENDCHAR
STARTCHAR 2559
ENCODING 9561
SWIDTH 960 0
DWIDTH 14 0
BBX 14 14 0 -2
BITMAP
0000
0060
01b0
00d0
06c0
0d00
d980
70c0
0070
001c
0000
0000
0000
0000
ENDCHAR
STARTCHAR 255a
ENCODING 9562
SWIDTH 960 0
DWIDTH 14 0
BBX 14 14 0 -2
BITMAP
0000
00e0
01b0
01b0
06e0
0d00
d980
70c0
0070
001c
0000
0000
0000
0000
ENDCHAR
STARTCHAR 255b
ENCODING 9563
SWIDTH 960 0
DWIDTH 14 0
BBX 14 14 0 -2
BITMAP
0000
0600
0300
0300
63f0
3f00
0300
0340
1b60
1b30
3330
6300
0700
0300
ENDCHAR
STARTCHAR 255c
ENCODING 9564
SWIDTH 960 0
DWIDTH 14 0
BBX 14 14 0 -2
BITMAP
0018
066c
0334
0330
63f0
3f00
0300
0340
1b60
1b30
3330
6300
0700
0300
ENDCHAR
STARTCHAR 255d
ENCODING 9565
SWIDTH 960 0
DWIDTH 14 0
BBX 14 14 0 -2
BITMAP
0038
066c
036c
0338
63f0
3f00
0300
0340
1b60
1b30
3330
6300
0700
0300
ENDCHAR
STARTCHAR 255e
ENCODING 9566
SWIDTH 960 0
DWIDTH 14 0
BBX 14 14 0 -2
BITMAP
0000
0000
0000
61f0
3f18
0030
0060
00c0
1d80
0700
0180
00c0
0000
0000
ENDCHAR
STARTCHAR 255f
ENCODING 9567
SWIDTH 960 0
DWIDTH 14 0
BBX 14 14 0 -2
BITMAP
0000
0c00
0700
01c0
0060
1800
0e00
0380
00c0
3000
1c00
0700
01c0
0060
ENDCHAR
STARTCHAR 2560
ENCODING 9568
SWIDTH 960 0
DWIDTH 14 0
BBX 14 14 0 -2
BITMAP
0000
0600
0300
0300
0300
0600
0600
06c0
0c60
0c70
6bd8
3e18
0000
0000
ENDCHAR
STARTCHAR 2561
ENCODING 9569
SWIDTH 960 0
DWIDTH 14 0
BBX 14 14 0 -2
BITMAP
0000
00c0
0060
0060
0060
0e60
03c0
00c0
01a0
01b0
0300
0600
1c00
7000
ENDCHAR
STARTCHAR 2562
ENCODING 9570
SWIDTH 960 0
DWIDTH 14 0
BBX 14 14 0 -2
BITMAP
0000
0000
31e0
1f00
0600
0600
67f8
3e00
0600
0600
0600
03f0
0000
0000
ENDCHAR
STARTCHAR 2563
ENCODING 9571
SWIDTH 960 0
DWIDTH 14 0
BBX 14 14 0 -2
BITMAP
0000
0000
0000
0000
0000
0c00
06f0
07b0
3e60
0340
0300
0180
0180
0180
ENDCHAR
STARTCHAR 2564
ENCODING 9572
SWIDTH 960 0
DWIDTH 14 0
BBX 14 14 0 -2
BITMAP
0000
1800
0c00
0cf8
0798
6e30
3a60
0340
0300
0300
0180
0180
0180
0000
ENDCHAR
STARTCHAR 2565
ENCODING 9573
SWIDTH 960 0
DWIDTH 14 0
BBX 14 14 0 -2
BITMAP
0000
0000
0000
0000
0000
0000
03c0
1ec0
00c0
0180
03e0
3e30
0000
0000
ENDCHAR
STARTCHAR 2566
ENCODING 9574
SWIDTH 960 0
DWIDTH 14 0
BBX 14 14 0 -2
BITMAP
0000
0000
0000
0000
33c0
1ec0
00c0
0180
0180
03f0
7e18
0000
0000
0000
ENDCHAR
STARTCHAR 2567
ENCODING 9575
SWIDTH 960 0
DWIDTH 14 0
BBX 14 14 0 -2
BITMAP
0000
0000
0000
0000
0000
03e0
1e60
0060
03e0
1ec0
00c0
03c0
1e60
0000
ENDCHAR
STARTCHAR 2568
ENCODING 9576
SWIDTH 960 0
DWIDTH 14 0
BBX 14 14 0 -2
BITMAP
0000
0000
03f0
3e30
0030
0030
03e0
1e60
0060
0060
0060
03e0
1e30
0000
ENDCHAR
STARTCHAR 2569
ENCODING 9577
SWIDTH 960 0
DWIDTH 14 0
BBX 14 14 0 -2
BITMAP
0000
0000
33c0
1e00
00f0
67b0
3c30
0030
0060
0060
00c0
0180
0700
1c00
ENDCHAR
STARTCHAR 256a
ENCODING 9578
SWIDTH 960 0
DWIDTH 14 0
BBX 14 14 0 -2
BITMAP
0000
00c0
1860
0c60
0c60
0c60
0c60
0c60
0c60
00c0
00c0
0180
0300
0600
ENDCHAR
STARTCHAR 256b
ENCODING 9579
SWIDTH 960 0
DWIDTH 14 0
BBX 14 14 0 -2
BITMAP
0000
0000
0300
1980
0d80
0d80
0d98
0d98
0db0
19b0
19a0
31c0
6180
0000
ENDCHAR
STARTCHAR 256c
ENCODING 9580
SWIDTH 960 0
DWIDTH 14 0
BBX 14 14 0 -2
BITMAP
0000
3000
1800
1800
1800
1800
1800
1830
1860
18c0
1980
1b00
1c00
0000
ENDCHAR
STARTCHAR 256d
ENCODING 9581
SWIDTH 960 0
DWIDTH 14 0
BBX 14 14 0 -2
BITMAP
0000
0000
0000
63f0
3e30
3030
3030
1860
1860
1be0
1e30
1800
0000
0000
ENDCHAR
STARTCHAR 256e
ENCODING 9582
SWIDTH 960 0
DWIDTH 14 0
BBX 14 14 0 -2
BITMAP
0000
0000
0000
0000
0000
0000
31f0
1f30
1860
0c60
0cc0
00c0
0180
0300
ENDCHAR
STARTCHAR 256f
ENCODING 9583
SWIDTH 960 0
DWIDTH 14 0
BBX 14 14 0 -2
BITMAP
0000
0000
63f0
3e30
3030
1830
1860
1860
00c0
00c0
0180
0300
0600
0c00
ENDCHAR
STARTCHAR 2570
ENCODING 9584
SWIDTH 960 0
DWIDTH 14 0
BBX 14 14 0 -2
BITMAP
0000
0300
0180
0180
03f0
3e80
1980
0d80
0df0
7e98
0180
0180
0180
0180
ENDCHAR
STARTCHAR 2571
ENCODING 9585
SWIDTH 960 0
DWIDTH 14 0
BBX 14 14 0 -2
BITMAP
0000
0000
0000
03e0
3e60
06c0
0380
0300
0300
03f0
7e18
0000
0000
0000
ENDCHAR
STARTCHAR 2572
ENCODING 9586
SWIDTH 960 0
DWIDTH 14 0
BBX 14 14 0 -2
BITMAP
0000
0000
03f0
3e30
0030
0060
03e0
1e60
00c0
00c0
0180
0300
0e00
3800
ENDCHAR
STARTCHAR 2573
ENCODING 9587
SWIDTH 960 0
DWIDTH 14 0
BBX 14 14 0 -2
BITMAP
0000
0000
0000
3800
0c18
0618
0030
0030
0060
00c0
0180
3700
1c00
0000
ENDCHAR
STARTCHAR 2574
ENCODING 9588
SWIDTH 960 0
DWIDTH 14 0
BBX 14 14 0 -2
BITMAP
0018
0c6c
0634
0630
c7e0
7c60
6060
30c0
30c0
0180
0180
0300
0600
0c00
ENDCHAR
STARTCHAR 2575
ENCODING 9589
SWIDTH 960 0
DWIDTH 14 0
BBX 14 14 0 -2
BITMAP
0000
0000
0000
0000
0000
0600
0300
33e0
1e60
0660
0660
0c60
19c0
30c0
ENDCHAR
STARTCHAR 2576
ENCODING 9590
SWIDTH 960 0
DWIDTH 14 0
BBX 14 14 0 -2
BITMAP
0000
0000
0000
0000
0000
1800
0c00
0ce0
0f80
1980
3180
0300
0600
0c00
ENDCHAR
STARTCHAR 2621
ENCODING 9761
SWIDTH 960 0
DWIDTH 14 0
BBX 14 14 0 -2
BITMAP
0000
0300
0300
0680
0680
0cc0
0cc0
1860
1fe0
3030
3030
7878
0000
0000
ENDCHAR
STARTCHAR 2622
ENCODING 9762
SWIDTH 960 0
DWIDTH 14 0
BBX 14 14 0 -2
BITMAP
0000
3f80
18e0
1830
1830
18e0
1fc0
1870
1818
1818
1870
3fc0
0000
0000
ENDCHAR
STARTCHAR 2623
ENCODING 9763
SWIDTH 960 0
DWIDTH 14 0
BBX 14 14 0 -2
BITMAP
0000
3fe0
1860
1830
1800
1800
1800
1800
1800
1800
1800
3c00
0000
0000
ENDCHAR
STARTCHAR 2624
ENCODING 9764
SWIDTH 960 0
DWIDTH 14 0
BBX 14 14 0 -2
BITMAP
0000
0300
0300
0680
0680
0cc0
0cc0
1860
1860
3030
3030
7ff8
0000
0000
ENDCHAR
STARTCHAR 2625
ENCODING 9765
SWIDTH 960 0
DWIDTH 14 0
BBX 14 14 0 -2
BITMAP
0000
7fc0
30c0
3060
3000
30c0
3fc0
30c0
3000
3000
3060
7fe0
0000
0000
ENDCHAR
STARTCHAR 2626
ENCODING 9766
SWIDTH 960 0
DWIDTH 14 0
BBX 14 14 0 -2
BITMAP
0000
3ff0
3060
60c0
0180
0300
0300
0600
0c00
1818
3030
7ff0
0000
0000
ENDCHAR
STARTCHAR 2627
ENCODING 9767
SWIDTH 960 0
DWIDTH 14 0
BBX 14 14 0 -2
BITMAP
0000
78f0
3060
3060
3060
3060
3fe0
3060
3060
3060
3060
78f0
0000
0000
ENDCHAR
STARTCHAR 2628
ENCODING 9768
SWIDTH 960 0
DWIDTH 14 0
BBX 14 14 0 -2
BITMAP
0000
0780
1ce0
3030
6018
6cd8
6fd8
6cd8
6018
3030
1ce0
0780
0000
0000
ENDCHAR
STARTCHAR 2629
ENCODING 9769
SWIDTH 960 0
DWIDTH 14 0
BBX 14 14 0 -2
BITMAP
0000
0f00
0600
0600
0600
0600
0600
0600
0600
0600
0600
0f00
0000
0000
ENDCHAR
STARTCHAR 262a
ENCODING 9770
SWIDTH 960 0
DWIDTH 14 0
BBX 14 14 0 -2
BITMAP
0000
79e0
30c0
3180
3300
3600
3a00
3300
3180
30c0
3060
78f0
0000
0000
ENDCHAR
STARTCHAR 262b
ENCODING 9771
SWIDTH 960 0
DWIDTH 14 0
BBX 14 14 0 -2
BITMAP
0000
0300
0300
0680
0680
0cc0
0cc0
1860
1860
3030
3030
7878
0000
0000
ENDCHAR
STARTCHAR 262c
ENCODING 9772
SWIDTH 960 0
DWIDTH 14 0
BBX 14 14 0 -2
BITMAP
0000
e038
7070
70d0
68d0
69b0
6db0
6d30
6630
6630
6030
f078
0000
0000
ENDCHAR
STARTCHAR 262d
ENCODING 9773
SWIDTH 960 0
DWIDTH 14 0
BBX 14 14 0 -2
BITMAP
0000
70f0
3860
3860
3460
3660
3360
3360
31a0
30e0
30e0
7860
0000
0000
ENDCHAR
STARTCHAR 262e
ENCODING 9774
SWIDTH 960 0
DWIDTH 14 0
BBX 14 14 0 -2
BITMAP
0000
3ff0
3060
6060
0000
3060
3fe0
3060
0000
0000
3030
3060
7fe0
0000
ENDCHAR
STARTCHAR 262f
ENCODING 9775
SWIDTH 960 0
DWIDTH 14 0
BBX 14 14 0 -2
BITMAP
0000
0780
1ce0
3030
6018
6018
6018
6018
6018
3030
1ce0
0780
0000
0000
ENDCHAR
STARTCHAR 2630
ENCODING 9776
SWIDTH 960 0
DWIDTH 14 0
BBX 14 14 0 -2
BITMAP
0000
7ff0
3060
3060
3060
3060
3060
3060
3060
3060
3060
78f0
0000
0000
ENDCHAR
STARTCHAR 2631
ENCODING 9777
SWIDTH 960 0
DWIDTH 14 0
BBX 14 14 0 -2
BITMAP
0000
7f00
31c0
3060
3060
31c0
3f00
3000
3000
3000
3000
7800
0000
0000
ENDCHAR
STARTCHAR 2632
ENCODING 9778
SWIDTH 960 0
DWIDTH 14 0
BBX 14 14 0 -2
BITMAP
0000
7fc0
30c0
1860
0c00
0600
0300
0300
0600
0c30
1860
7fe0
0000
0000
ENDCHAR
STARTCHAR 2633
ENCODING 9779
SWIDTH 960 0
DWIDTH 14 0
BBX 14 14 0 -2
BITMAP
0000
7fe0
6660
c630
0600
0600
0600
0600
0600
0600
0600
0f00
0000
0000
ENDCHAR
STARTCHAR 2634
ENCODING 9780
SWIDTH 960 0
DWIDTH 14 0
BBX 14 14 0 -2
BITMAP
0000
79e0
cd30
c630
0600
0600
0600
0600
0600
0600
0600
0f00
0000
0000
ENDCHAR
STARTCHAR 2635
ENCODING 9781
SWIDTH 960 0
DWIDTH 14 0
BBX 14 14 0 -2
BITMAP
0000
0780
0300
0fc0
3b70
6318
6318
6318
3b70
0fc0
0300
0780
0000
0000
ENDCHAR
STARTCHAR 2636
ENCODING 9782
SWIDTH 960 0
DWIDTH 14 0
BBX 14 14 0 -2
BITMAP
0000
78f0
3060
18c0
0d80
0700
0300
0680
0cc0
1860
3030
7878
0000
0000
ENDCHAR
STARTCHAR 2637
ENCODING 9783
SWIDTH 960 0
DWIDTH 14 0
BBX 14 14 0 -2
BITMAP
0000
0f00
c630
6660
36c0
36c0
36c0
1a80
0f00
0600
0600
0f00
0000
0000
ENDCHAR
STARTCHAR 2638
ENCODING 9784
SWIDTH 960 0
DWIDTH 14 0
BBX 14 14 0 -2
BITMAP
0000
0700
1dc0
3060
6030
6030
6030
3060
18c0
0d80
6db0
7df0
0000
0000
ENDCHAR
STARTCHAR 2641
ENCODING 9793
SWIDTH 960 0
DWIDTH 14 0
BBX 14 14 0 -2
BITMAP
0000
0000
0000
0060
0760
0da0
18c0
30c0
30c0
31c0
1b40
0e70
0000
0000
ENDCHAR
STARTCHAR 2642
ENCODING 9794
SWIDTH 960 0
DWIDTH 14 0
BBX 14 14 0 -2
BITMAP
0000
01e0
0330
0630
0630
0c60
0dc0
0c60
0c60
1860
1cc0
1b80
3000
3000
ENDCHAR
STARTCHAR 2643
ENCODING 9795
SWIDTH 960 0
DWIDTH 14 0
BBX 14 14 0 -2
BITMAP
0000
0000
0000
0000
0e70
1b40
0380
0300
0300
0600
0600
0600
0600
0000
ENDCHAR
STARTCHAR 2644
ENCODING 9796
SWIDTH 960 0
DWIDTH 14 0
BBX 14 14 0 -2
BITMAP
0000
0780
0ce0
0c30
0600
0780
0cc0
18c0
18c0
1980
1b00
0e00
0000
0000
ENDCHAR
STARTCHAR 2645
ENCODING 9797
SWIDTH 960 0
DWIDTH 14 0
BBX 14 14 0 -2
BITMAP
0000
0000
0000
0000
0780
0cc0
0c00
0780
0c00
1800
18c0
0f80
0000
0000
ENDCHAR
STARTCHAR 2646
ENCODING 9798
SWIDTH 960 0
DWIDTH 14 0
BBX 14 14 0 -2
BITMAP
0000
0c00
19c0
0f00
0600
0c00
0c00
1800
1800
0e00
0380
00c0
0ec0
0780
ENDCHAR
STARTCHAR 2647
ENCODING 9799
SWIDTH 960 0
DWIDTH 14 0
BBX 14 14 0 -2
BITMAP
0000
0000
0000
0000
1dc0
3760
0660
0c60
0c60
0cc0
18c0
1980
0180
0180
ENDCHAR
STARTCHAR 2648
ENCODING 9800
SWIDTH 960 0
DWIDTH 14 0
BBX 14 14 0 -2
BITMAP
0000
01e0
0330
0630
0c30
0c60
1fe0
1860
18c0
18c0
1980
0f00
0000
0000
ENDCHAR
STARTCHAR 2649
ENCODING 9801
SWIDTH 960 0
DWIDTH 14 0
BBX 14 14 0 -2
BITMAP
0000
0000
0000
0000
0300
0600
0600
0c00
0c00
0c00
0d80
0700
0000
0000
ENDCHAR
STARTCHAR 264a
ENCODING 9802
SWIDTH 960 0
DWIDTH 14 0
BBX 14 14 0 -2
BITMAP
0000
0000
0000
0000
0c70
0dc0
0d00
1e00
1b00
1b00
3360
31c0
0000
0000
ENDCHAR
STARTCHAR 264b
ENCODING 9803
SWIDTH 960 0
DWIDTH 14 0
BBX 14 14 0 -2
BITMAP
0000
0780
00c0
00c0
01c0
0340
0340
06c0
0cc0
0cc0
18c0
1870
0000
0000
ENDCHAR
STARTCHAR 264c
ENCODING 9804
SWIDTH 960 0
DWIDTH 14 0
BBX 14 14 0 -2
BITMAP
0000
0000
0000
0000
0c60
0c60
0cc0
0cc0
18c0
18c0
1dd8
1b70
3000
3000
ENDCHAR
STARTCHAR 264d
ENCODING 9805
SWIDTH 960 0
DWIDTH 14 0
BBX 14 14 0 -2
BITMAP
0000
0000
0000
0000
1860
0c60
0cc0
0cc0
0d80
0d00
0e00
1800
0000
0000
ENDCHAR
STARTCHAR 264e
ENCODING 9806
SWIDTH 960 0
DWIDTH 14 0
BBX 14 14 0 -2
BITMAP
0700
0ce0
0780
0600
0c00
0c00
0780
0cc0
1800
1800
0e00
0380
00c0
0f80
ENDCHAR
STARTCHAR 264f
ENCODING 9807
SWIDTH 960 0
DWIDTH 14 0
BBX 14 14 0 -2
BITMAP
0000
0000
0000
0000
01c0
0760
0c30
1830
1860
1860
0dc0
0700
0000
0000
ENDCHAR
STARTCHAR 2650
ENCODING 9808
SWIDTH 960 0
DWIDTH 14 0
BBX 14 14 0 -2
BITMAP
0000
0000
0000
1c18
37f0
66c0
0cc0
0d80
1980
1980
1980
70e0
0000
0000
ENDCHAR
STARTCHAR 2651
ENCODING 9809
SWIDTH 960 0
DWIDTH 14 0
BBX 14 14 0 -2
BITMAP
0000
0000
0000
0000
01e0
0330
0630
0c30
0c60
1c60
1cc0
1b80
3000
3000
ENDCHAR
STARTCHAR 2652
ENCODING 9810
SWIDTH 960 0
DWIDTH 14 0
BBX 14 14 0 -2
BITMAP
0000
0000
0000
0000
03f0
0e80
18c0
30c0
30c0
3180
3300
1e00
0000
0000
ENDCHAR
STARTCHAR 2653
ENCODING 9811
SWIDTH 960 0
DWIDTH 14 0
BBX 14 14 0 -2
BITMAP
0000
0000
0000
0000
0e70
1bc0
3300
0600
0600
0c00
0d80
0700
0000
0000
ENDCHAR
STARTCHAR 2654
ENCODING 9812
SWIDTH 960 0
DWIDTH 14 0
BBX 14 14 0 -2
BITMAP
0000
0000
0000
0000
0cc0
0c60
1860
1860
18c0
18c0
1980
0f00
0000
0000
ENDCHAR
STARTCHAR 2655
ENCODING 9813
SWIDTH 960 0
DWIDTH 14 0
BBX 14 14 0 -2
BITMAP
0000
0180
0180
0180
0780
1d40
3360
3360
3660
36c0
1a80
0f00
0c00
0c00
ENDCHAR
STARTCHAR 2656
ENCODING 9814
SWIDTH 960 0
DWIDTH 14 0
BBX 14 14 0 -2
BITMAP
0000
0e30
1b30
0360
0340
0380
0300
0700
0d00
0d00
1b00
3300
6360
61c0
ENDCHAR
STARTCHAR 2657
ENCODING 9815
SWIDTH 960 0
DWIDTH 14 0
BBX 14 14 0 -2
BITMAP
0000
0180
0180
0180
71a0
db30
1b30
1b30
3660
36c0
3780
1e00
0c00
0c00
ENDCHAR
STARTCHAR 2658
ENCODING 9816
SWIDTH 960 0
DWIDTH 14 0
BBX 14 14 0 -2
BITMAP
0000
0000
0000
0000
1860
3030
3330
6630
6660
6660
6ec0
3b80
0000
0000
ENDCHAR
STARTCHAR 2721
ENCODING 10017
SWIDTH 960 0
DWIDTH 14 0
BBX 14 14 0 -2
BITMAP
0000
0300
0300
0680
0680
0cc0
0cc0
1860
1fe0
3030
3030
7878
0000
0000
ENDCHAR
STARTCHAR 2722
ENCODING 10018
SWIDTH 960 0
DWIDTH 14 0
BBX 14 14 0 -2
BITMAP
0000
3fe0
1860
1830
1800
1800
1fc0
1870
1818
1818
1870
3fc0
0000
0000
ENDCHAR
STARTCHAR 2723
ENCODING 10019
SWIDTH 960 0
DWIDTH 14 0
BBX 14 14 0 -2
BITMAP
0000
3f80
18e0
1830
1830
18e0
1fc0
1870
1818
1818
1870
3fc0
0000
0000
ENDCHAR
STARTCHAR 2724
ENCODING 10020
SWIDTH 960 0
DWIDTH 14 0
BBX 14 14 0 -2
BITMAP
0000
3fe0
1860
1830
1800
1800
1800
1800
1800
1800
1800
3c00
0000
0000
ENDCHAR
STARTCHAR 2725
ENCODING 10021
SWIDTH 960 0
DWIDTH 14 0
BBX 14 14 0 -2
BITMAP
0000
1ff0
0c60
0c60
0c60
0c60
0c60
0c60
0c60
1860
1860
7ff8
6018
6018
ENDCHAR
STARTCHAR 2726
ENCODING 10022
SWIDTH 960 0
DWIDTH 14 0
BBX 14 14 0 -2
BITMAP
0000
7fc0
30c0
3060
3000
30c0
3fc0
30c0
3000
3000
3060
7fe0
0000
0000
ENDCHAR
STARTCHAR 2727
ENCODING 10023
SWIDTH 960 0
DWIDTH 14 0
BBX 14 14 0 -2
BITMAP
1b00
1b00
7fc0
3060
3000
3180
3f80
3180
3000
3000
3060
7fe0
0000
0000
ENDCHAR
STARTCHAR 2728
ENCODING 10024
SWIDTH 960 0
DWIDTH 14 0
BBX 14 14 0 -2
BITMAP
0000
77b8
6b68
1b60
1b60
1b60
0fc0
0d40
1b60
3330
3330
77b8
0000
0000
ENDCHAR
STARTCHAR 2729
ENCODING 10025
SWIDTH 960 0
DWIDTH 14 0
BBX 14 14 0 -2
BITMAP
0000
0780
1ce0
3030
0030
00e0
07c0
00e0
0030
3030
1ce0
0780
0000
0000
ENDCHAR
STARTCHAR 272a
ENCODING 10026
SWIDTH 960 0
DWIDTH 14 0
BBX 14 14 0 -2
BITMAP
0000
7870
30e0
30e0
31a0
3360
3660
3660
3460
3860
3860
30f0
0000
0000
ENDCHAR
STARTCHAR 272b
ENCODING 10027
SWIDTH 960 0
DWIDTH 14 0
BBX 14 14 0 -2
BITMAP
0d80
0700
7870
30e0
31a0
31a0
3360
3660
3460
3860
3860
30f0
0000
0000
ENDCHAR
STARTCHAR 272c
ENCODING 10028
SWIDTH 960 0
DWIDTH 14 0
BBX 14 14 0 -2
BITMAP
0000
78e0
31b0
3300
3600
3600
3a00
3300
3180
30c0
3060
78f0
0000
0000
ENDCHAR
STARTCHAR 272d
ENCODING 10029
SWIDTH 960 0
DWIDTH 14 0
BBX 14 14 0 -2
BITMAP
0000
07f8
0630
0630
0630
0630
0630
0630
0630
6c30
6c30
3878
0000
0000
ENDCHAR
STARTCHAR 272e
ENCODING 10030
SWIDTH 960 0
DWIDTH 14 0
BBX 14 14 0 -2
BITMAP
0000
7070
3060
38e0
39a0
35a0
3560
6730
6630
6630
6030
f078
0000
0000
ENDCHAR
STARTCHAR 272f
ENCODING 10031
SWIDTH 960 0
DWIDTH 14 0
BBX 14 14 0 -2
BITMAP
0000
78f0
3060
3060
3060
3060
3fe0
3060
3060
3060
3060
78f0
0000
0000
ENDCHAR
STARTCHAR 2730
ENCODING 10032
SWIDTH 960 0
DWIDTH 14 0
BBX 14 14 0 -2
BITMAP
0000
0780
1ce0
3030
6018
6018
6018
6018
6018
3030
1ce0
0780
0000
0000
ENDCHAR
STARTCHAR 2731
ENCODING 10033
SWIDTH 960 0
DWIDTH 14 0
BBX 14 14 0 -2
BITMAP
0000
7ff0
3060
3060
3060
3060
3060
3060
3060
3060
3060
78f0
0000
0000
ENDCHAR
STARTCHAR 2732
ENCODING 10034
SWIDTH 960 0
DWIDTH 14 0
BBX 14 14 0 -2
BITMAP
0000
7f00
31c0
3060
3060
31c0
3f00
3000
3000
3000
3000
7800
0000
0000
ENDCHAR
STARTCHAR 2733
ENCODING 10035
SWIDTH 960 0
DWIDTH 14 0
BBX 14 14 0 -2
BITMAP
0000
07d0
1c70
3030
6000
6000
6000
6000
6000
3030
1c60
07c0
0000
0000
ENDCHAR
STARTCHAR 2734
ENCODING 10036
SWIDTH 960 0
DWIDTH 14 0
BBX 14 14 0 -2
BITMAP
0000
7fe0
6660
c630
0600
0600
0600
0600
0600
0600
0600
0f00
0000
0000
ENDCHAR
STARTCHAR 2735
ENCODING 10037
SWIDTH 960 0
DWIDTH 14 0
BBX 14 14 0 -2
BITMAP
0000
7878
3030
1830
1860
0c60
06c0
06c0
0380
0180
0300
0300
0600
1c00
ENDCHAR
STARTCHAR 2736
ENCODING 10038
SWIDTH 960 0
DWIDTH 14 0
BBX 14 14 0 -2
BITMAP
0000
0780
0300
0fc0
3b70
6318
6318
6318
3b70
0fc0
0300
0780
0000
0000
ENDCHAR
STARTCHAR 2737
ENCODING 10039
SWIDTH 960 0
DWIDTH 14 0
BBX 14 14 0 -2
BITMAP
0000
78f0
3060
18c0
0d80
0700
0300
0680
0cc0
1860
3030
7878
0000
0000
ENDCHAR
STARTCHAR 2738
ENCODING 10040
SWIDTH 960 0
DWIDTH 14 0
BBX 14 14 0 -2
BITMAP
0000
78f0
3060
3060
3060
3060
3060
3060
3060
3060
3060
7ff8
0018
0018
ENDCHAR
STARTCHAR 2739
ENCODING 10041
SWIDTH 960 0
DWIDTH 14 0
BBX 14 14 0 -2
BITMAP
0000
78f0
3060
3060
3060
3060
30e0
19a0
0f60
0060
0060
00f0
0000
0000
ENDCHAR
STARTCHAR 273a
ENCODING 10042
SWIDTH 960 0
DWIDTH 14 0
BBX 14 14 0 -2
BITMAP
0000
7bb8
3330
3330
3330
3330
3330
3330
3330
3330
3330
7ff8
0000
0000
ENDCHAR
STARTCHAR 273b
ENCODING 10043
SWIDTH 960 0
DWIDTH 14 0
BBX 14 14 0 -2
BITMAP
0000
7bb8
3330
3330
3330
3330
3330
3330
3330
3330
3330
7ff8
0018
0018
ENDCHAR
STARTCHAR 273c
ENCODING 10044
SWIDTH 960 0
DWIDTH 14 0
BBX 14 14 0 -2
BITMAP
0000
3f00
3600
6600
0600
07c0
0670
0618
0618
0618
0670
0fc0
0000
0000
ENDCHAR
STARTCHAR 273d
ENCODING 10045
SWIDTH 960 0
DWIDTH 14 0
BBX 14 14 0 -2
BITMAP
0000
78f0
3060
3060
3060
3e60
3360
31a0
31a0
31a0
3760
7cf0
0000
0000
ENDCHAR
STARTCHAR 273e
ENCODING 10046
SWIDTH 960 0
DWIDTH 14 0
BBX 14 14 0 -2
BITMAP
0000
1e00
0c00
0c00
0c00
0f80
0ce0
0c30
0c30
0c30
0ce0
1f80
0000
0000
ENDCHAR
STARTCHAR 273f
ENCODING 10047
SWIDTH 960 0
DWIDTH 14 0
BBX 14 14 0 -2
BITMAP
0000
0780
1ce0
3030
0030
0e18
1b78
01d8
0030
3030
1ce0
0780
0000
0000
ENDCHAR
STARTCHAR 2740
ENCODING 10048
SWIDTH 960 0
DWIDTH 14 0
BBX 14 14 0 -2
BITMAP
0000
79e0
3330
3330
3618
3618
3e18
3618
3618
3330
3330
79e0
0000
0000
ENDCHAR
STARTCHAR 2741
ENCODING 10049
SWIDTH 960 0
DWIDTH 14 0
BBX 14 14 0 -2
BITMAP
0000
07f0
1c60
3060
3060
1c60
07e0
0c60
1860
1860
3060
78f0
0000
0000
ENDCHAR
STARTCHAR 2751
ENCODING 10065
SWIDTH 960 0
DWIDTH 14 0
BBX 14 14 0 -2
BITMAP
0000
0000
0000
0000
0f80
18c0
18c0
07c0
1cc0
30c0
31c0
1f60
0000
0000
ENDCHAR
STARTCHAR 2752
ENCODING 10066
SWIDTH 960 0
DWIDTH 14 0
BBX 14 14 0 -2
BITMAP
0030
01e0
0700
0c00
0d80
1ee0
1830
1830
1830
1830
0ee0
0380
0000
0000
ENDCHAR
STARTCHAR 2753
ENCODING 10067
SWIDTH 960 0
DWIDTH 14 0
BBX 14 14 0 -2
BITMAP
0000
0000
0000
0000
1fc0
0c60
0c60
0fc0
0c60
0c30
0c30
1fe0
0000
0000
ENDCHAR
STARTCHAR 2754
ENCODING 10068
SWIDTH 960 0
DWIDTH 14 0
BBX 14 14 0 -2
BITMAP
0000
0000
0000
0000
3fc0
18c0
1860
1800
1800
1800
1800
3c00
0000
0000
ENDCHAR
STARTCHAR 2755
ENCODING 10069
SWIDTH 960 0
DWIDTH 14 0
BBX 14 14 0 -2
BITMAP
0000
0000
0000
0000
0ff0
0c60
0c60
0c60
0c60
0c60
1860
7fe0
6060
6060
ENDCHAR
STARTCHAR 2756
ENCODING 10070
SWIDTH 960 0
DWIDTH 14 0
BBX 14 14 0 -2
BITMAP
0000
0000
0000
0000
0f80
18c0
3060
3fe0
3000
3060
1cc0
0780
0000
0000
ENDCHAR
STARTCHAR 2757
ENCODING 10071
SWIDTH 960 0
DWIDTH 14 0
BBX 14 14 0 -2
BITMAP
0000
0d80
0d80
0000
0f80
18c0
3060
3fe0
3000
3060
1cc0
0780
0000
0000
ENDCHAR
STARTCHAR 2758
ENCODING 10072
SWIDTH 960 0
DWIDTH 14 0
BBX 14 14 0 -2
BITMAP
0000
0000
0000
0000
77b8
1b60
0d40
0780
0d40
1b60
1b60
77b8
0000
0000
ENDCHAR
STARTCHAR 2759
ENCODING 10073
SWIDTH 960 0
DWIDTH 14 0
BBX 14 14 0 -2
BITMAP
0000
0000
0000
0000
0f80
18e0
3060
07c0
00e0
3060
18c0
0f80
0000
0000
ENDCHAR
STARTCHAR 275a
ENCODING 10074
SWIDTH 960 0
DWIDTH 14 0
BBX 14 14 0 -2
BITMAP
0000
0000
0000
0000
78f0
30e0
31a0
3360
3660
3460
3860
78f0
0000
0000
ENDCHAR
STARTCHAR 275b
ENCODING 10075
SWIDTH 960 0
DWIDTH 14 0
BBX 14 14 0 -2
BITMAP
0000
0000
0d80
0700
78f0
30e0
31a0
3360
3660
3460
3860
78f0
0000
0000
ENDCHAR
STARTCHAR 275c
ENCODING 10076
SWIDTH 960 0
DWIDTH 14 0
BBX 14 14 0 -2
BITMAP
0000
0000
0000
0000
3ce0
19a0
1b00
1f00
1980
18c0
1860
3cf0
0000
0000
ENDCHAR
STARTCHAR 275d
ENCODING 10077
SWIDTH 960 0
DWIDTH 14 0
BBX 14 14 0 -2
BITMAP
0000
0000
0000
0000
0ff0
0660
0660
0660
0660
6c60
6c60
38f0
0000
0000
ENDCHAR
STARTCHAR 275e
ENCODING 10078
SWIDTH 960 0
DWIDTH 14 0
BBX 14 14 0 -2
BITMAP
0000
0000
0000
0000
7878
3870
34d0
34d0
36b0
36b0
3330
7878
0000
0000
ENDCHAR
STARTCHAR 275f
ENCODING 10079
SWIDTH 960 0
DWIDTH 14 0
BBX 14 14 0 -2
BITMAP
0000
0000
0000
0000
3cf0
1860
1860
1fe0
1860
1860
1860
3cf0
0000
0000
ENDCHAR
STARTCHAR 2760
ENCODING 10080
SWIDTH 960 0
DWIDTH 14 0
BBX 14 14 0 -2
BITMAP
0000
0000
0000
0000
0f80
18c0
3060
3060
3060
3060
18c0
0f80
0000
0000
ENDCHAR
STARTCHAR 2761
ENCODING 10081
SWIDTH 960 0
DWIDTH 14 0
BBX 14 14 0 -2
BITMAP
0000
0000
0000
0000
3ff0
1860
1860
1860
1860
1860
1860
3cf0
0000
0000
ENDCHAR
STARTCHAR 2762
ENCODING 10082
SWIDTH 960 0
DWIDTH 14 0
BBX 14 14 0 -2
BITMAP
0000
0000
0000
0000
1b80
1cc0
1860
1860
1860
1860
1cc0
1b80
1800
3c00
ENDCHAR
STARTCHAR 2763
ENCODING 10083
SWIDTH 960 0
DWIDTH 14 0
BBX 14 14 0 -2
BITMAP
0000
0000
0000
0000
0f80
18c0
3060
3000
3000
3060
18c0
0f80
0000
0000
ENDCHAR
STARTCHAR 2764
ENCODING 10084
SWIDTH 960 0
DWIDTH 14 0
BBX 14 14 0 -2
BITMAP
0000
0000
0000
0000
1fe0
1b60
3330
0300
0300
0300
0300
0780
0000
0000
ENDCHAR
STARTCHAR 2765
ENCODING 10085
SWIDTH 960 0
DWIDTH 14 0
BBX 14 14 0 -2
BITMAP
0000
0000
0000
0000
3cf0
1860
0c60
0cc0
06c0
0680
0380
0300
0600
1c00
ENDCHAR
STARTCHAR 2766
ENCODING 10086
SWIDTH 960 0
DWIDTH 14 0
BBX 14 14 0 -2
BITMAP
0000
0780
0300
0300
1d60
37b0
6318
6318
6318
6318
37b0
1d60
0300
0780
ENDCHAR
STARTCHAR 2767
ENCODING 10087
SWIDTH 960 0
DWIDTH 14 0
BBX 14 14 0 -2
BITMAP
0000
0000
0000
0000
38e0
18c0
0d80
0700
0700
0d80
18c0
38e0
0000
0000
ENDCHAR
STARTCHAR 2768
ENCODING 10088
SWIDTH 960 0
DWIDTH 14 0
BBX 14 14 0 -2
BITMAP
0000
0000
0000
0000
3cf0
1860
1860
1860
1860
1860
1860
3ff0
0030
0030
ENDCHAR
STARTCHAR 2769
ENCODING 10089
SWIDTH 960 0
DWIDTH 14 0
BBX 14 14 0 -2
BITMAP
0000
0000
0000
0000
3cf0
1860
1860
18e0
0fa0
0060
0060
00f0
0000
0000
ENDCHAR
STARTCHAR 276a
ENCODING 10090
SWIDTH 960 0
DWIDTH 14 0
BBX 14 14 0 -2
BITMAP
0000
0000
0000
0000
7bb8
3330
3330
3330
3330
3330
3330
3ff8
0000
0000
ENDCHAR
STARTCHAR 276b
ENCODING 10091
SWIDTH 960 0
DWIDTH 14 0
BBX 14 14 0 -2
BITMAP
0000
0000
0000
0000
7bb8
3330
3330
3330
3330
3330
3330
3ff8
0018
0018
ENDCHAR
STARTCHAR 276c
ENCODING 10092
SWIDTH 960 0
DWIDTH 14 0
BBX 14 14 0 -2
BITMAP
0000
0000
0000
0000
3f00
3600
6600
07c0
0670
0630
0670
0fc0
0000
0000
ENDCHAR
STARTCHAR 276d
ENCODING 10093
SWIDTH 960 0
DWIDTH 14 0
BBX 14 14 0 -2
BITMAP
0000
0000
0000
0000
3cf0
1860
1860
1e60
1ba0
19a0
1ba0
3ef0
0000
0000
ENDCHAR
STARTCHAR 276e
ENCODING 10094
SWIDTH 960 0
DWIDTH 14 0
BBX 14 14 0 -2
BITMAP
0000
0000
0000
0000
1e00
0c00
0c00
0f80
0ce0
0c60
0ce0
1f80
0000
0000
ENDCHAR
STARTCHAR 276f
ENCODING 10095
SWIDTH 960 0
DWIDTH 14 0
BBX 14 14 0 -2
BITMAP
0000
0000
0000
0000
0f80
18e0
3060
0770
0db0
3060
18c0
0f80
0000
0000
ENDCHAR
STARTCHAR 2770
ENCODING 10096
SWIDTH 960 0
DWIDTH 14 0
BBX 14 14 0 -2
BITMAP
0000
0000
0000
0000
79c0
3360
3630
3e30
3630
3630
3360
79c0
0000
0000
ENDCHAR
STARTCHAR 2771
ENCODING 10097
SWIDTH 960 0
DWIDTH 14 0
BBX 14 14 0 -2
BITMAP
0000
0000
0000
0000
0fe0
18c0
18c0
18c0
0fc0
0cc0
18c0
3de0
0000
0000
ENDCHAR
STARTCHAR 2821
ENCODING 10273
SWIDTH 960 0
DWIDTH 14 0
BBX 14 14 0 -2
BITMAP
0000
0000
0000
0000
0000
0000
0000
fffc
0000
0000
0000
0000
0000
0000
ENDCHAR
STARTCHAR 2822
ENCODING 10274
SWIDTH 960 0
DWIDTH 14 0
BBX 14 14 0 -2
BITMAP
0300
0300
0300
0300
0300
0300
0300
0300
0300
0300
0300
0300
0300
0300
ENDCHAR
STARTCHAR 2823
ENCODING 10275
SWIDTH 960 0
DWIDTH 14 0
BBX 14 14 0 -2
BITMAP
0000
0000
0000
0000
0000
0000
0000
03fc
0300
0300
0300
0300
0300
0300
ENDCHAR
STARTCHAR 2824
ENCODING 10276
SWIDTH 960 0
DWIDTH 14 0
BBX 14 14 0 -2
BITMAP
0000
0000
0000
0000
0000
0000
0000
ff00
0300
0300
0300
0300
0300
0300
ENDCHAR
STARTCHAR 2825
ENCODING 10277
SWIDTH 960 0
DWIDTH 14 0
BBX 14 14 0 -2
BITMAP
0300
0300
0300
0300
0300
0300
0300
ff00
0000
0000
0000
0000
0000
0000
ENDCHAR
STARTCHAR 2826
ENCODING 10278
SWIDTH 960 0
DWIDTH 14 0
BBX 14 14 0 -2
BITMAP
0300
0300
0300
0300
0300
0300
0300
03fc
0000
0000
0000
0000
0000
0000
ENDCHAR
STARTCHAR 2827
ENCODING 10279
SWIDTH 960 0
DWIDTH 14 0
BBX 14 14 0 -2
BITMAP
0300
0300
0300
0300
0300
0300
0300
03fc
0300
0300
0300
0300
0300
0300
ENDCHAR
STARTCHAR 2828
ENCODING 10280
SWIDTH 960 0
DWIDTH 14 0
BBX 14 14 0 -2
BITMAP
0000
0000
0000
0000
0000
0000
0000
fffc
0300
0300
0300
0300
0300
0300
ENDCHAR
STARTCHAR 2829
ENCODING 10281
SWIDTH 960 0
DWIDTH 14 0
BBX 14 14 0 -2
BITMAP
0300
0300
0300
0300
0300
0300
0300
ff00
0300
0300
0300
0300
0300
0300
ENDCHAR
STARTCHAR 282a
ENCODING 10282
SWIDTH 960 0
DWIDTH 14 0
BBX 14 14 0 -2
BITMAP
0300
0300
0300
0300
0300
0300
0300
fffc
0000
0000
0000
0000
0000
0000
ENDCHAR
STARTCHAR 282b
ENCODING 10283
SWIDTH 960 0
DWIDTH 14 0
BBX 14 14 0 -2
BITMAP
0300
0300
0300
0300
0300
0300
0300
fffc
0300
0300
0300
0300
0300
0300
ENDCHAR
STARTCHAR 282c
ENCODING 10284
SWIDTH 960 0
DWIDTH 14 0
BBX 14 14 0 -2
BITMAP
0000
0000
0000
0000
0000
0000
fffc
fffc
0000
0000
0000
0000
0000
0000
ENDCHAR
STARTCHAR 282d
ENCODING 10285
SWIDTH 960 0
DWIDTH 14 0
BBX 14 14 0 -2
BITMAP
0700
0700
0700
0700
0700
0700
0700
0700
0700
0700
0700
0700
0700
0700
ENDCHAR
STARTCHAR 282e
ENCODING 10286
SWIDTH 960 0
DWIDTH 14 0
BBX 14 14 0 -2
BITMAP
0000
0000
0000
0000
0000
0000
07fc
07fc
0700
0700
0700
0700
0700
0700
ENDCHAR
STARTCHAR 282f
ENCODING 10287
SWIDTH 960 0
DWIDTH 14 0
BBX 14 14 0 -2
BITMAP
0000
0000
0000
0000
0000
0000
ff00
ff00
0700
0700
0700
0700
0700
0700
ENDCHAR
STARTCHAR 2830
ENCODING 10288
SWIDTH 960 0
DWIDTH 14 0
BBX 14 14 0 -2
BITMAP
0700
0700
0700
0700
0700
0700
ff00
ff00
0000
0000
0000
0000
0000
0000
ENDCHAR
STARTCHAR 2831
ENCODING 10289
SWIDTH 960 0
DWIDTH 14 0
BBX 14 14 0 -2
BITMAP
0700
0700
0700
0700
0700
0700
07fc
07fc
0000
0000
0000
0000
0000
0000
ENDCHAR
STARTCHAR 2832
ENCODING 10290
SWIDTH 960 0
DWIDTH 14 0
BBX 14 14 0 -2
BITMAP
0700
0700
0700
0700
0700
0700
07fc
07fc
0700
0700
0700
0700
0700
0700
ENDCHAR
STARTCHAR 2833
ENCODING 10291
SWIDTH 960 0
DWIDTH 14 0
BBX 14 14 0 -2
BITMAP
0000
0000
0000
0000
0000
0000
fffc
fffc
0700
0700
0700
0700
0700
0700
ENDCHAR
STARTCHAR 2834
ENCODING 10292
SWIDTH 960 0
DWIDTH 14 0
BBX 14 14 0 -2
BITMAP
0700
0700
0700
0700
0700
0700
ff00
ff00
0700
0700
0700
0700
0700
0700
ENDCHAR
STARTCHAR 2835
ENCODING 10293
SWIDTH 960 0
DWIDTH 14 0
BBX 14 14 0 -2
BITMAP
0700
0700
0700
0700
0700
0700
fffc
fffc
0000
0000
0000
0000
0000
0000
ENDCHAR
STARTCHAR 2836
ENCODING 10294
SWIDTH 960 0
DWIDTH 14 0
BBX 14 14 0 -2
BITMAP
0700
0700
0700
0700
0700
0700
fffc
fffc
0700
0700
0700
0700
0700
0700
ENDCHAR
STARTCHAR 2837
ENCODING 10295
SWIDTH 960 0
DWIDTH 14 0
BBX 14 14 0 -2
BITMAP
0700
0700
0700
0700
0700
0700
0700
07fc
0700
0700
0700
0700
0700
0700
ENDCHAR
STARTCHAR 2838
ENCODING 10296
SWIDTH 960 0
DWIDTH 14 0
BBX 14 14 0 -2
BITMAP
0000
0000
0000
0000
0000
0000
fffc
fffc
0300
0300
0300
0300
0300
0300
ENDCHAR
STARTCHAR 2839
ENCODING 10297
SWIDTH 960 0
DWIDTH 14 0
BBX 14 14 0 -2
BITMAP
0700
0700
0700
0700
0700
0700
0700
ff00
0700
0700
0700
0700
0700
0700
ENDCHAR
STARTCHAR 283a
ENCODING 10298
SWIDTH 960 0
DWIDTH 14 0
BBX 14 14 0 -2
BITMAP
0300
0300
0300
0300
0300
0300
fffc
fffc
0000
0000
0000
0000
0000
0000
ENDCHAR
STARTCHAR 283b
ENCODING 10299
SWIDTH 960 0
DWIDTH 14 0
BBX 14 14 0 -2
BITMAP
0300
0300
0300
0300
0300
0300
fffc
fffc
0300
0300
0300
0300
0300
0300
ENDCHAR
STARTCHAR 283c
ENCODING 10300
SWIDTH 960 0
DWIDTH 14 0
BBX 14 14 0 -2
BITMAP
0300
0300
0300
0300
0300
0300
03fc
03fc
0300
0300
0300
0300
0300
0300
ENDCHAR
STARTCHAR 283d
ENCODING 10301
SWIDTH 960 0
DWIDTH 14 0
BBX 14 14 0 -2
BITMAP
0000
0000
0000
0000
0000
0000
0000
fffc
0700
0700
0700
0700
0700
0700
ENDCHAR
STARTCHAR 283e
ENCODING 10302
SWIDTH 960 0
DWIDTH 14 0
BBX 14 14 0 -2
BITMAP
0300
0300
0300
0300
0300
0300
ff00
ff00
0300
0300
0300
0300
0300
0300
ENDCHAR
STARTCHAR 283f
ENCODING 10303
SWIDTH 960 0
DWIDTH 14 0
BBX 14 14 0 -2
BITMAP
0700
0700
0700
0700
0700
0700
0700
fffc
0000
0000
0000
0000
0000
0000
ENDCHAR
STARTCHAR 2840
ENCODING 10304
SWIDTH 960 0
DWIDTH 14 0
BBX 14 14 0 -2
BITMAP
0700
0700
0700
0700
0700
0700
0700
fffc
0700
0700
0700
0700
0700
0700
ENDCHAR
STARTCHAR 3021
ENCODING 12321
SWIDTH 960 0
DWIDTH 14 0
BBX 14 14 0 -2
BITMAP
0000
fff8
0d80
0d80
7ff0
6db0
6db0
6db0
7ff0
6db0
0d80
0d80
fff8
0000
ENDCHAR
STARTCHAR 3022
ENCODING 12322
SWIDTH 960 0
DWIDTH 14 0
BBX 14 14 0 -2
BITMAP
0000
0ffc
f9a0
d9a0
dbf8
daa8
daa8
daa8
dbf8
faa8
d9a0
c1a0
1ffc
0000
ENDCHAR
STARTCHAR 3023
ENCODING 12323
SWIDTH 960 0
DWIDTH 14 0
BBX 14 14 0 -2
BITMAP
1860
1860
1860
19f8
fe60
3660
37fc
3660
7c60
6df8
0e60
1a60
33fc
6000
ENDCHAR
STARTCHAR 3024
ENCODING 12324
SWIDTH 960 0
DWIDTH 14 0
BBX 14 14 0 -2
BITMAP
0000
7ffc
6c18
6818
73e8
6b68
6d68
6d68
6de8
6d68
7818
6018
6018
6038
ENDCHAR
STARTCHAR 3025
ENCODING 12325
SWIDTH 960 0
DWIDTH 14 0
BBX 14 14 0 -2
BITMAP
0300
0300
fffc
0000
1fe0
1860
1860
1fe8
0718
1db0
f5a0
0cc0
0f70
781c
ENDCHAR
STARTCHAR 3026
ENCODING 12326
SWIDTH 960 0
DWIDTH 14 0
BBX 14 14 0 -2
BITMAP
0070
7fd0
3630
1b60
7ffc
6d98
d4d0
37d8
6618
0fe0
7ac0
0380
0ee0
f83c
ENDCHAR
STARTCHAR 3027
ENCODING 12327
SWIDTH 960 0
DWIDTH 14 0
BBX 14 14 0 -2
BITMAP
3180
31a0
31b0
fb78
37d8
3300
33f8
3ac0
f4c0
37fc
30c0
31a0
3730
7c1c
ENDCHAR
STARTCHAR 3028
ENCODING 12328
SWIDTH 960 0
DWIDTH 14 0
BBX 14 14 0 -2
BITMAP
1860
1860
1860
18d0
fed0
3698
37fc
3600
76f8
6d98
0d98
1a98
31f8
e198
ENDCHAR
STARTCHAR 3029
ENCODING 12329
SWIDTH 960 0
DWIDTH 14 0
BBX 14 14 0 -2
BITMAP
0180
63f8
36b0
30e0
03f0
1edc
f7f8
30c0
37f8
30c0
37fc
38c0
6ec0
c3fc
ENDCHAR
STARTCHAR 302a
ENCODING 12330
SWIDTH 960 0
DWIDTH 14 0
BBX 14 14 0 -2
BITMAP
0cc0
fffc
0cc0
0f60
3368
1ad8
0cd0
3ff0
e31c
3ff0
0300
0680
1ce0
7038
ENDCHAR
STARTCHAR 302b
ENCODING 12331
SWIDTH 960 0
DWIDTH 14 0
BBX 14 14 0 -2
BITMAP
0cc0
0cc0
fffc
0cc0
fffc
0d80
7ff8
6d98
6db8
68f8
7018
6018
7ff8
6018
ENDCHAR
STARTCHAR 302c
ENCODING 12332
SWIDTH 960 0
DWIDTH 14 0
BBX 14 14 0 -2
BITMAP
0cc0
3bf0
f660
33f0
3350
fdf0
3350
3bf8
76d8
77f8
d6d8
37fc
36cc
307c
ENDCHAR
STARTCHAR 302d
ENCODING 12333
SWIDTH 960 0
DWIDTH 14 0
BBX 14 14 0 -2
BITMAP
0000
7ff8
0680
3ff0
36b0
3ff0
0680
fffc
0300
35b0
3598
6c6c
cc6c
07e0
ENDCHAR
STARTCHAR 302e
ENCODING 12334
SWIDTH 960 0
DWIDTH 14 0
BBX 14 14 0 -2
BITMAP
3000
37f8
3618
fff8
3600
37f8
36e0
3ab0
f7e8
34c0
37f8
38c0
37fc
7000
ENDCHAR
STARTCHAR 302f
ENCODING 12335
SWIDTH 960 0
DWIDTH 14 0
BBX 14 14 0 -2
BITMAP
3000
1bf8
1a18
c7f8
6600
67fc
06d0
06b8
37ec
36c0
6df8
6cc0
dffc
c000
ENDCHAR
STARTCHAR 3030
ENCODING 12336
SWIDTH 960 0
DWIDTH 14 0
BBX 14 14 0 -2
BITMAP
1800
19f8
1998
1998
fe98
1af8
1a98
1a98
1a98
1af8
3698
360c
660c
c3fc
ENDCHAR
STARTCHAR 3031
ENCODING 12337
SWIDTH 960 0
DWIDTH 14 0
BBX 14 14 0 -2
BITMAP
0cc0
fffc
0d40
1fe0
0660
fffc
1860
1fe0
00c0
1ff0
18c0
fffc
00c0
00c0
ENDCHAR
STARTCHAR 3032
ENCODING 12338
SWIDTH 960 0
DWIDTH 14 0
BBX 14 14 0 -2
BITMAP
0cc0
0cc0
fffc
0cc0
7ff8
0000
3ff0
3030
3030
3ff0
3030
3000
6000
c000
ENDCHAR
STARTCHAR 3033
ENCODING 12339
SWIDTH 960 0
DWIDTH 14 0
BBX 14 14 0 -2
BITMAP
1860
1870
3ed8
6df4
fe60
6bfc
7ed0
6ab8
7f6c
0c30
7aec
6e18
6870
c3c0
ENDCHAR
STARTCHAR 3034
ENCODING 12340
SWIDTH 960 0
DWIDTH 14 0
BBX 14 14 0 -2
BITMAP
1860
1860
1bfc
fe98
18d8
3cd0
3bfc
3a60
6860
6bfc
d860
1860
1860
1860
ENDCHAR
STARTCHAR 3035
ENCODING 12341
SWIDTH 960 0
DWIDTH 14 0
BBX 14 14 0 -2
BITMAP
0000
3ffc
3180
3180
3180
3180
37f8
3180
3180
3180
6180
6180
dffc
0000
ENDCHAR
STARTCHAR 3036
ENCODING 12342
SWIDTH 960 0
DWIDTH 14 0
BBX 14 14 0 -2
BITMAP
1860
1860
ff50
1998
7f54
6670
7eb0
66d0
7ed0
183c
fff0
1830
1830
1830
ENDCHAR
STARTCHAR 3037
ENCODING 12343
SWIDTH 960 0
DWIDTH 14 0
BBX 14 14 0 -2
BITMAP
3000
37f0
3330
fd60
3360
33f8
3398
3d98
f6d0
36d0
3660
34d0
3598
7e0c
ENDCHAR
STARTCHAR 3038
ENCODING 12344
SWIDTH 960 0
DWIDTH 14 0
BBX 14 14 0 -2
BITMAP
0300
0300
7ffc
6818
d800
1ef8
3698
3698
6a98
cdb0
0d80
198c
318c
e0fc
ENDCHAR
STARTCHAR 3039
ENCODING 12345
SWIDTH 960 0
DWIDTH 14 0
BBX 14 14 0 -2
BITMAP
1800
19f8
1998
1998
fe98
36f8
3698
3698
7df8
6d98
0e98
1998
37fc
e000
ENDCHAR
STARTCHAR 303a
ENCODING 12346
SWIDTH 960 0
DWIDTH 14 0
BBX 14 14 0 -2
BITMAP
1860
1860
1860
7e60
6bfc
6a80
6a80
7e80
6980
1d80
1a80
1f80
f380
00f8
ENDCHAR
STARTCHAR 303b
ENCODING 12347
SWIDTH 960 0
DWIDTH 14 0
BBX 14 14 0 -2
BITMAP
1860
1c60
3660
6ad0
d8d8
7ebc
67ec
7e00
66f8
7e98
6d98
6e98
7af8
e198
ENDCHAR
STARTCHAR 303c
ENCODING 12348
SWIDTH 960 0
DWIDTH 14 0
BBX 14 14 0 -2
BITMAP
3300
3300
3500
edf8
3a18
37e8
6b68
fde8
3568
3be8
7568
7418
d018
3070
ENDCHAR
STARTCHAR 303d
ENCODING 12349
SWIDTH 960 0
DWIDTH 14 0
BBX 14 14 0 -2
BITMAP
30c0
30c0
37f8
ecc0
3ffc
31a0
6b6c
febc
35f0
7bb0
76a0
74c0
d3b0
361c
ENDCHAR
STARTCHAR 303e
ENCODING 12350
SWIDTH 960 0
DWIDTH 14 0
BBX 14 14 0 -2
BITMAP
1860
1860
3e60
6c7c
fe60
6a60
7e60
6af8
7e98
0d98
7698
6a98
69f8
c198
ENDCHAR
STARTCHAR 303f
ENCODING 12351
SWIDTH 960 0
DWIDTH 14 0
BBX 14 14 0 -2
BITMAP
01b0
0198
0198
fffc
0180
3e98
3698
36d8
3ed0
3070
076c
1cd4
f39c
0e0c
ENDCHAR
STARTCHAR 3040
ENCODING 12352
SWIDTH 960 0
DWIDTH 14 0
BBX 14 14 0 -2
BITMAP
0000
fffc
0680
3ff0
36b0
36b0
3ff0
1b60
0d40
fffc
0780
1d60
f33c
0300
ENDCHAR
STARTCHAR 3041
ENCODING 12353
SWIDTH 960 0
DWIDTH 14 0
BBX 14 14 0 -2
BITMAP
30c0
30c0
31a0
fda0
1b30
1bf8
360c
7c00
d5f0
3730
3330
3330
33f0
3330
ENDCHAR
STARTCHAR 3042
ENCODING 12354
SWIDTH 960 0
DWIDTH 14 0
BBX 14 14 0 -2
BITMAP
0300
0300
7ffc
6618
c600
0600
fffc
0cc0
0cc0
1f40
19c0
0360
0e30
7818
ENDCHAR
STARTCHAR 3043
ENCODING 12355
SWIDTH 960 0
DWIDTH 14 0
BBX 14 14 0 -2
BITMAP
0180
0180
3ffc
3300
3ffc
36a0
35b0
3ffc
35b0
37f0
6db0
6ff0
cd8c
00fc
ENDCHAR
STARTCHAR 3044
ENCODING 12356
SWIDTH 960 0
DWIDTH 14 0
BBX 14 14 0 -2
BITMAP
30c0
30c0
37fc
fe18
34c0
30c0
37fc
39b0
f1b0
33b0
3360
3070
31d8
770c
ENDCHAR
STARTCHAR 3045
ENCODING 12357
SWIDTH 960 0
DWIDTH 14 0
BBX 14 14 0 -2
BITMAP
00c0
00c0
fbf8
db30
d9a0
dffc
f800
dbf0
db30
dbf0
fb30
db30
c3f0
0330
ENDCHAR
STARTCHAR 3046
ENCODING 12358
SWIDTH 960 0
DWIDTH 14 0
BBX 14 14 0 -2
BITMAP
0300
0300
7ffc
6618
fff8
0cc0
1f80
0760
3d30
fffc
0780
1d60
f33c
0300
ENDCHAR
STARTCHAR 3047
ENCODING 12359
SWIDTH 960 0
DWIDTH 14 0
BBX 14 14 0 -2
BITMAP
0000
7ef8
6698
7ef8
7ef8
6318
6fe8
6698
7ff8
6cd8
6fd8
6cd8
6fd8
6cd8
ENDCHAR
STARTCHAR 3048
ENCODING 12360
SWIDTH 960 0
DWIDTH 14 0
BBX 14 14 0 -2
BITMAP
3460
3460
fffc
3598
3d60
1860
7ffc
6ad8
7ed8
19f0
feb0
1868
18cc
1b8c
ENDCHAR
STARTCHAR 3049
ENCODING 12361
SWIDTH 960 0
DWIDTH 14 0
BBX 14 14 0 -2
BITMAP
0300
0300
fffc
0780
0d40
3b70
e31c
0300
3ff0
3030
3030
3030
3ff0
3030
ENDCHAR
STARTCHAR 304a
ENCODING 12362
SWIDTH 960 0
DWIDTH 14 0
BBX 14 14 0 -2
BITMAP
3030
3030
3630
3330
31b0
31b0
3030
3030
3030
3070
3668
38d8
e38c
0e0c
ENDCHAR
STARTCHAR 304b
ENCODING 12363
SWIDTH 960 0
DWIDTH 14 0
BBX 14 14 0 -2
BITMAP
1800
1bf8
18d8
30d8
37fc
70d8
d0d8
37f8
30d8
30c0
3180
3180
3300
3600
ENDCHAR
STARTCHAR 304c
ENCODING 12364
SWIDTH 960 0
DWIDTH 14 0
BBX 14 14 0 -2
BITMAP
1980
1980
1980
3180
3ffc
7030
d630
3330
3330
3360
3360
30c0
3ffc
3000
ENDCHAR
STARTCHAR 304d
ENCODING 12365
SWIDTH 960 0
DWIDTH 14 0
BBX 14 14 0 -2
BITMAP
18c0
18c0
18c0
37fc
3180
71d8
d358
3750
3560
3360
3330
3350
3398
360c
ENDCHAR
STARTCHAR 304e
ENCODING 12366
SWIDTH 960 0
DWIDTH 14 0
BBX 14 14 0 -2
BITMAP
18c0
1bf0
19b0
37fc
3000
77f0
d630
37f0
3060
37f8
3660
3ffc
3060
3060
ENDCHAR
STARTCHAR 304f
ENCODING 12367
SWIDTH 960 0
DWIDTH 14 0
BBX 14 14 0 -2
BITMAP
0000
7ff8
6018
66d8
66d8
6fe8
66d8
66d8
7ff8
66d8
6cd8
68d8
7ff8
6018
ENDCHAR
STARTCHAR 3050
ENCODING 12368
SWIDTH 960 0
DWIDTH 14 0
BBX 14 14 0 -2
BITMAP
0300
0300
fffc
0300
7ff0
0330
7ff0
6300
7ffc
670c
068c
0cd8
3870
e01c
ENDCHAR
STARTCHAR 3051
ENCODING 12369
SWIDTH 960 0
DWIDTH 14 0
BBX 14 14 0 -2
BITMAP
0070
3fc0
0300
fffc
0780
1d60
f33c
0600
fffc
0cc0
1f40
31c0
0770
7c18
ENDCHAR
STARTCHAR 3052
ENCODING 12370
SWIDTH 960 0
DWIDTH 14 0
BBX 14 14 0 -2
BITMAP
00d0
00d8
3ffc
30c0
3fd8
36d8
3fd8
35d0
35b0
3f70
336c
66d4
6d9c
c00c
ENDCHAR
STARTCHAR 3053
ENCODING 12371
SWIDTH 960 0
DWIDTH 14 0
BBX 14 14 0 -2
BITMAP
0018
7f18
6318
7f18
61fc
7e18
60d8
7f68
6c68
6e18
6d18
7518
cc18
1c38
ENDCHAR
STARTCHAR 3054
ENCODING 12372
SWIDTH 960 0
DWIDTH 14 0
BBX 14 14 0 -2
BITMAP
31b0
31b0
3360
3bfc
7760
7560
73f8
d360
3360
33f8
3360
3360
33fc
3300
ENDCHAR
STARTCHAR 3055
ENCODING 12373
SWIDTH 960 0
DWIDTH 14 0
BBX 14 14 0 -2
BITMAP
0300
7ff8
0cc0
fffc
0000
1fe0
1860
1fe0
1860
1fe0
6d18
6d8c
cc6c
07e0
ENDCHAR
STARTCHAR 3056
ENCODING 12374
SWIDTH 960 0
DWIDTH 14 0
BBX 14 14 0 -2
BITMAP
0030
7f30
6330
7ffc
6eb0
60d0
7f50
d630
6d30
dd70
0d98
6dac
6c6c
c7e0
ENDCHAR
STARTCHAR 3057
ENCODING 12375
SWIDTH 960 0
DWIDTH 14 0
BBX 14 14 0 -2
BITMAP
0000
1fe0
1860
1fe0
1860
1fe0
0600
0ff8
3b68
e6d8
1d98
7318
0e30
01e0
ENDCHAR
STARTCHAR 3058
ENCODING 12376
SWIDTH 960 0
DWIDTH 14 0
BBX 14 14 0 -2
BITMAP
1860
1860
1bfc
fee0
18d0
3d98
3bfc
3a18
6be8
6b68
dbe8
1b68
1818
1838
ENDCHAR
STARTCHAR 3059
ENCODING 12377
SWIDTH 960 0
DWIDTH 14 0
BBX 14 14 0 -2
BITMAP
3300
1b00
1b00
7fe0
0660
06c0
0ff0
0c30
1ffc
180c
354c
76ac
daac
1838
ENDCHAR
STARTCHAR 305a
ENCODING 12378
SWIDTH 960 0
DWIDTH 14 0
BBX 14 14 0 -2
BITMAP
0000
3ff0
3330
3ff0
3330
3ff0
0000
fffc
1b30
19b0
19a0
1b40
1c70
f01c
ENDCHAR
STARTCHAR 305b
ENCODING 12379
SWIDTH 960 0
DWIDTH 14 0
BBX 14 14 0 -2
BITMAP
0000
3ff0
3330
3ff0
3330
3ff0
0cc0
7ff8
0cc0
0cc0
fffc
06c0
1c70
7018
ENDCHAR
STARTCHAR 305c
ENCODING 12380
SWIDTH 960 0
DWIDTH 14 0
BBX 14 14 0 -2
BITMAP
06c0
1cf8
7998
1b50
1860
fec0
1ba0
3c7c
3acc
6aa8
db38
1830
18e0
1b80
ENDCHAR
STARTCHAR 305d
ENCODING 12381
SWIDTH 960 0
DWIDTH 14 0
BBX 14 14 0 -2
BITMAP
18d8
18d8
1ab0
f6fc
35b0
19b0
35f8
feb0
1ab0
6df8
6ab0
6ab0
d9fc
1980
ENDCHAR
STARTCHAR 305e
ENCODING 12382
SWIDTH 960 0
DWIDTH 14 0
BBX 14 14 0 -2
BITMAP
1860
1bf8
1ad8
f7fc
3400
1df8
3698
fef8
1830
6df8
6ab0
6bfc
d830
1830
ENDCHAR
STARTCHAR 305f
ENCODING 12383
SWIDTH 960 0
DWIDTH 14 0
BBX 14 14 0 -2
BITMAP
0000
7ff8
6318
7ff8
6318
7ff8
0000
3ff0
3030
3ff0
3030
3ff0
3030
3070
ENDCHAR
STARTCHAR 3060
ENCODING 12384
SWIDTH 960 0
DWIDTH 14 0
BBX 14 14 0 -2
BITMAP
0cc0
fffc
0ce0
3fc0
0300
fffc
0d40
3b70
e61c
7ff8
0cc0
1f80
0760
7c30
ENDCHAR
STARTCHAR 3061
ENCODING 12385
SWIDTH 960 0
DWIDTH 14 0
BBX 14 14 0 -2
BITMAP
0300
0300
0300
fffc
0300
0718
0d98
3db0
ece0
0cc0
0c60
0db0
0e18
780c
ENDCHAR
STARTCHAR 3062
ENCODING 12386
SWIDTH 960 0
DWIDTH 14 0
BBX 14 14 0 -2
BITMAP
0000
7dfc
036c
fffc
036c
7dfc
0000
7df8
0198
7df8
6d98
6df8
7d98
6db8
ENDCHAR
STARTCHAR 3063
ENCODING 12387
SWIDTH 960 0
DWIDTH 14 0
BBX 14 14 0 -2
BITMAP
00c0
67f0
31b0
37fc
03f0
0330
f3f0
3060
33f8
3360
37fc
3860
6e60
c3fc
ENDCHAR
STARTCHAR 3064
ENCODING 12388
SWIDTH 960 0
DWIDTH 14 0
BBX 14 14 0 -2
BITMAP
00c0
63f0
3350
33f0
0ffc
0330
f3f0
3330
33f0
3330
33f0
3b30
6e18
c3fc
ENDCHAR
STARTCHAR 3065
ENCODING 12389
SWIDTH 960 0
DWIDTH 14 0
BBX 14 14 0 -2
BITMAP
0000
7ff8
6600
6600
6ff0
6d80
6980
7ff8
6340
6360
6630
6c30
7ffc
6000
ENDCHAR
STARTCHAR 3066
ENCODING 12390
SWIDTH 960 0
DWIDTH 14 0
BBX 14 14 0 -2
BITMAP
0cc0
0cc0
0cc0
0cc0
7ff8
0cc0
0cc0
0cc0
fffc
0cc0
18c0
18c0
30c0
60c0
ENDCHAR
STARTCHAR 3067
ENCODING 12391
SWIDTH 960 0
DWIDTH 14 0
BBX 14 14 0 -2
BITMAP
0300
0300
fffc
0300
06c0
3ac0
0db0
0760
06c0
1dc0
3360
0e30
3818
e018
ENDCHAR
STARTCHAR 3068
ENCODING 12392
SWIDTH 960 0
DWIDTH 14 0
BBX 14 14 0 -2
BITMAP
00c0
30d0
30d8
37fc
30c0
ffd8
36d8
36a8
37a8
3670
39b4
e774
1cdc
018c
ENDCHAR
STARTCHAR 3069
ENCODING 12393
SWIDTH 960 0
DWIDTH 14 0
BBX 14 14 0 -2
BITMAP
0300
0300
fffc
0660
0cf0
7f98
1fe0
1860
1fe0
1860
1fe0
1860
1860
18e0
ENDCHAR
STARTCHAR 306a
ENCODING 12394
SWIDTH 960 0
DWIDTH 14 0
BBX 14 14 0 -2
BITMAP
0c00
0cf8
ffd8
18d0
18d0
3f60
3350
7f58
d34c
3f4c
336c
3358
3340
3740
ENDCHAR
STARTCHAR 306b
ENCODING 12395
SWIDTH 960 0
DWIDTH 14 0
BBX 14 14 0 -2
BITMAP
0350
fd50
36e8
36d8
3350
7ae8
6ffc
e8d0
6bfc
6b68
7aa8
6ab4
0c6c
19cc
ENDCHAR
STARTCHAR 306c
ENCODING 12396
SWIDTH 960 0
DWIDTH 14 0
BBX 14 14 0 -2
BITMAP
0000
0000
0000
0000
0000
0000
fffc
0000
0000
0000
0000
0000
0000
0000
ENDCHAR
STARTCHAR 306d
ENCODING 12397
SWIDTH 960 0
DWIDTH 14 0
BBX 14 14 0 -2
BITMAP
0300
0300
fffc
0300
3ff0
0000
7ffc
6c18
cce0
0f80
0c00
0c18
0c18
07f8
ENDCHAR
STARTCHAR 306e
ENCODING 12398
SWIDTH 960 0
DWIDTH 14 0
BBX 14 14 0 -2
BITMAP
6c30
3630
3660
dffc
6660
6660
0c30
3ff8
3554
3550
6d50
6d50
dffc
c000
ENDCHAR
STARTCHAR 306f
ENCODING 12399
SWIDTH 960 0
DWIDTH 14 0
BBX 14 14 0 -2
BITMAP
0180
61f0
3360
36c0
0ff8
06d8
f6d8
37f8
36d8
31c0
334c
3a7c
6e00
c3fc
ENDCHAR
STARTCHAR 3070
ENCODING 12400
SWIDTH 960 0
DWIDTH 14 0
BBX 14 14 0 -2
BITMAP
0638
1fec
7acc
1b68
1b70
fe00
3b78
3d58
6b58
6b78
db58
1b58
1b78
1b58
ENDCHAR
STARTCHAR 3071
ENCODING 12401
SWIDTH 960 0
DWIDTH 14 0
BBX 14 14 0 -2
BITMAP
0cc0
0cc0
fffc
0cc0
0d40
6300
33fc
3358
06d0
0cc0
39a0
e330
0e18
380c
ENDCHAR
STARTCHAR 3072
ENCODING 12402
SWIDTH 960 0
DWIDTH 14 0
BBX 14 14 0 -2
BITMAP
0cc0
0cc0
fffc
0cc0
0000
3ff0
0300
0300
fffc
0300
0300
0300
0300
0700
ENDCHAR
STARTCHAR 3073
ENCODING 12403
SWIDTH 960 0
DWIDTH 14 0
BBX 14 14 0 -2
BITMAP
1800
1bf8
3ed8
6cd8
fff8
6b60
7ff8
6ad8
7f68
0dd8
76d8
6b68
68d8
c3b0
ENDCHAR
STARTCHAR 3074
ENCODING 12404
SWIDTH 960 0
DWIDTH 14 0
BBX 14 14 0 -2
BITMAP
0600
06c0
0c70
18e8
ff8c
0d80
0d80
0d80
1980
1980
3180
318c
618c
c0fc
ENDCHAR
STARTCHAR 3075
ENCODING 12405
SWIDTH 960 0
DWIDTH 14 0
BBX 14 14 0 -2
BITMAP
0300
0e00
79f8
6198
6198
7e98
6198
6198
6198
7e98
61f0
6180
0180
0180
ENDCHAR
STARTCHAR 3076
ENCODING 12406
SWIDTH 960 0
DWIDTH 14 0
BBX 14 14 0 -2
BITMAP
0000
07f8
fad8
dad8
dad8
dbf8
dad8
dad8
daa8
fab8
db38
c618
07f8
0618
ENDCHAR
STARTCHAR 3077
ENCODING 12407
SWIDTH 960 0
DWIDTH 14 0
BBX 14 14 0 -2
BITMAP
0000
1fe0
1860
1fe0
0000
3ff0
3030
3ff0
3030
3ff0
3030
3ff0
0ee0
7838
ENDCHAR
STARTCHAR 3078
ENCODING 12408
SWIDTH 960 0
DWIDTH 14 0
BBX 14 14 0 -2
BITMAP
0000
7ff8
6318
6318
6318
7ff8
6318
6718
6698
6cd8
6868
6018
7ff8
6018
ENDCHAR
STARTCHAR 3079
ENCODING 12409
SWIDTH 960 0
DWIDTH 14 0
BBX 14 14 0 -2
BITMAP
3000
33f8
3358
3358
fd58
6df8
6d58
6d58
fb68
dbb8
1db8
3518
63f8
c318
ENDCHAR
STARTCHAR 307a
ENCODING 12410
SWIDTH 960 0
DWIDTH 14 0
BBX 14 14 0 -2
BITMAP
0030
ff30
0330
0330
7f30
6330
6030
7f30
6330
0330
0330
0330
0630
3c30
ENDCHAR
STARTCHAR 307b
ENCODING 12411
SWIDTH 960 0
DWIDTH 14 0
BBX 14 14 0 -2
BITMAP
18c0
18c0
34c0
3ac0
6bfc
fea8
6770
7e60
6660
7ee0
68d0
6db0
7b18
e60c
ENDCHAR
STARTCHAR 307c
ENCODING 12412
SWIDTH 960 0
DWIDTH 14 0
BBX 14 14 0 -2
BITMAP
301c
18f4
1f8c
cd98
66d0
6678
07c0
30c0
30c0
37f8
60c0
60c0
dffc
c000
ENDCHAR
STARTCHAR 307d
ENCODING 12413
SWIDTH 960 0
DWIDTH 14 0
BBX 14 14 0 -2
BITMAP
3330
3350
3ed0
36b0
3350
3ff0
3070
37d0
34d0
37d0
34d0
6fd4
6cd4
cddc
ENDCHAR
STARTCHAR 307e
ENCODING 12414
SWIDTH 960 0
DWIDTH 14 0
BBX 14 14 0 -2
BITMAP
0cc0
fffc
0cc0
7da0
6ff0
6c1c
73f0
6860
6df8
6c00
6ffc
79a0
6370
67d8
ENDCHAR
STARTCHAR 3121
ENCODING 12577
SWIDTH 960 0
DWIDTH 14 0
BBX 14 14 0 -2
BITMAP
00c0
7cc0
6ffc
6a18
7000
6bf8
6c00
6ffc
6da0
6da0
7b60
636c
666c
6c3c
ENDCHAR
STARTCHAR 3122
ENCODING 12578
SWIDTH 960 0
DWIDTH 14 0
BBX 14 14 0 -2
BITMAP
00c0
7cc0
6da0
6b30
76e8
680c
6df0
6c60
6df0
6c00
7ffc
61a0
6370
6fd8
ENDCHAR
STARTCHAR 3123
ENCODING 12579
SWIDTH 960 0
DWIDTH 14 0
BBX 14 14 0 -2
BITMAP
0038
7fec
6ecc
6b68
73f8
6818
6df8
6c18
6df8
6cc0
7aa8
66ac
6db4
60f0
ENDCHAR
STARTCHAR 3124
ENCODING 12580
SWIDTH 960 0
DWIDTH 14 0
BBX 14 14 0 -2
BITMAP
1800
19f8
ff98
66f8
3400
fff8
0198
7df8
6d98
7df8
6d98
6df8
7dd8
6f0c
ENDCHAR
STARTCHAR 3125
ENCODING 12581
SWIDTH 960 0
DWIDTH 14 0
BBX 14 14 0 -2
BITMAP
0030
0030
f830
d830
dffc
d830
db30
d9b0
d9b0
f830
d830
c030
0030
0070
ENDCHAR
STARTCHAR 3126
ENCODING 12582
SWIDTH 960 0
DWIDTH 14 0
BBX 14 14 0 -2
BITMAP
0600
0600
0600
fffc
0c00
0c00
1800
1ff0
3830
3830
6830
d830
1ff0
1830
ENDCHAR
STARTCHAR 3127
ENCODING 12583
SWIDTH 960 0
DWIDTH 14 0
BBX 14 14 0 -2
BITMAP
0300
0300
7ffc
6018
c000
3ff0
0300
0300
fffc
0300
0300
0300
0300
0700
ENDCHAR
STARTCHAR 3128
ENCODING 12584
SWIDTH 960 0
DWIDTH 14 0
BBX 14 14 0 -2
BITMAP
0300
0600
1fe0
1860
1860
1fe0
1800
1ffc
1800
1ff8
6b58
6da8
6c18
c070
ENDCHAR
STARTCHAR 3129
ENCODING 12585
SWIDTH 960 0
DWIDTH 14 0
BBX 14 14 0 -2
BITMAP
0000
fff8
0618
0618
6698
36d8
36d8
0618
0e38
3ae8
e798
0618
0618
0e38
ENDCHAR
STARTCHAR 312a
ENCODING 12586
SWIDTH 960 0
DWIDTH 14 0
BBX 14 14 0 -2
BITMAP
0000
67f8
30c0
30c0
00c0
0ffc
f0c0
30c0
30c0
30c0
30c0
39c0
6e00
c3fc
ENDCHAR
STARTCHAR 312b
ENCODING 12587
SWIDTH 960 0
DWIDTH 14 0
BBX 14 14 0 -2
BITMAP
0000
fffc
0300
0300
7ff8
6b58
6d68
6d68
6318
6b58
6d68
6d68
6318
6338
ENDCHAR
STARTCHAR 312c
ENCODING 12588
SWIDTH 960 0
DWIDTH 14 0
BBX 14 14 0 -2
BITMAP
0600
1c00
71f8
6698
6698
6698
6698
6698
6698
7e98
edf0
0d80
1980
3180
ENDCHAR
STARTCHAR 312d
ENCODING 12589
SWIDTH 960 0
DWIDTH 14 0
BBX 14 14 0 -2
BITMAP
6c60
34c0
39f8
fe98
1af8
7e98
69f8
7efc
7a80
3afc
6ed4
dbac
1b4c
1a38
ENDCHAR
STARTCHAR 312e
ENCODING 12590
SWIDTH 960 0
DWIDTH 14 0
BBX 14 14 0 -2
BITMAP
0300
7ffc
6d98
d8f8
3bf0
1b30
7ff0
1b30
fff0
1b30
35f0
35ac
636c
ce3c
ENDCHAR
STARTCHAR 312f
ENCODING 12591
SWIDTH 960 0
DWIDTH 14 0
BBX 14 14 0 -2
BITMAP
0000
3fe0
0660
0660
0660
0660
7ff8
0c60
0c60
0c60
0c60
0c60
fffc
0000
ENDCHAR
STARTCHAR 3130
ENCODING 12592
SWIDTH 960 0
DWIDTH 14 0
BBX 14 14 0 -2
BITMAP
01b0
feb0
31a0
33fc
3360
7f60
6df8
ed60
6d60
6df8
7d60
6d60
63fc
0300
ENDCHAR
STARTCHAR 3131
ENCODING 12593
SWIDTH 960 0
DWIDTH 14 0
BBX 14 14 0 -2
BITMAP
0300
0e00
79f8
6018
6018
6018
6018
7ef8
6018
6018
6018
6018
7ff8
6018
ENDCHAR
STARTCHAR 3132
ENCODING 12594
SWIDTH 960 0
DWIDTH 14 0
BBX 14 14 0 -2
BITMAP
3000
1bf0
1a30
c6f0
66b0
66b0
0ff8
3418
35e8
3568
6de8
6d68
cc18
cc38
ENDCHAR
STARTCHAR 3133
ENCODING 12595
SWIDTH 960 0
DWIDTH 14 0
BBX 14 14 0 -2
BITMAP
0180
01f8
f180
d7fc
d5f8
d798
d4f8
d5a0
d6a8
f5a8
dbb0
19a0
37fc
0000
ENDCHAR
STARTCHAR 3134
ENCODING 12596
SWIDTH 960 0
DWIDTH 14 0
BBX 14 14 0 -2
BITMAP
0000
03f8
7d18
6d18
6df8
6d18
6d18
6df8
6d18
7d18
6df8
61b0
0718
1c0c
ENDCHAR
STARTCHAR 3135
ENCODING 12597
SWIDTH 960 0
DWIDTH 14 0
BBX 14 14 0 -2
BITMAP
36b0
fdfc
7ab8
d5d4
3ff0
36b0
3ff0
7e30
67fc
7eb0
7ed0
6cd0
7e30
e070
ENDCHAR
STARTCHAR 3136
ENCODING 12598
SWIDTH 960 0
DWIDTH 14 0
BBX 14 14 0 -2
BITMAP
0cc0
fffc
0cc0
7f18
6318
7ffc
6018
6ed8
6068
7f68
6e18
6d18
d518
1c38
ENDCHAR
STARTCHAR 3137
ENCODING 12599
SWIDTH 960 0
DWIDTH 14 0
BBX 14 14 0 -2
BITMAP
1800
19f8
3e98
6df8
fe98
6bfc
7f54
6bfc
7e00
0df8
76d0
6a60
69d0
c71c
ENDCHAR
STARTCHAR 3138
ENCODING 12600
SWIDTH 960 0
DWIDTH 14 0
BBX 14 14 0 -2
BITMAP
30c0
30d8
33f8
30d0
fcd0
6ffc
6c60
6dc0
f9b8
dbe0
1e80
358c
618c
c0fc
ENDCHAR
STARTCHAR 3139
ENCODING 12601
SWIDTH 960 0
DWIDTH 14 0
BBX 14 14 0 -2
BITMAP
0000
7ffc
6000
6f78
6b50
6f50
6b50
6ffc
6870
6a70
6b50
6b54
ddb4
731c
ENDCHAR
STARTCHAR 313a
ENCODING 12602
SWIDTH 960 0
DWIDTH 14 0
BBX 14 14 0 -2
BITMAP
30d0
18d8
1ffc
c0c0
67f8
66d8
06d8
1bf8
1ad8
1ad8
37f8
36d8
66d8
66d8
ENDCHAR
STARTCHAR 313b
ENCODING 12603
SWIDTH 960 0
DWIDTH 14 0
BBX 14 14 0 -2
BITMAP
0030
01e0
1f60
1b60
1b60
1b60
1b60
1b60
1b30
1bb0
3350
33e8
6e68
c00c
ENDCHAR
STARTCHAR 313c
ENCODING 12604
SWIDTH 960 0
DWIDTH 14 0
BBX 14 14 0 -2
BITMAP
0000
7ef8
6698
7ef8
6698
7ef8
6018
6fe8
6318
6fd8
6318
6fe8
6018
6038
ENDCHAR
STARTCHAR 313d
ENCODING 12605
SWIDTH 960 0
DWIDTH 14 0
BBX 14 14 0 -2
BITMAP
0330
01a0
fffc
d9a0
dbf8
daa8
db78
dbf8
dbf8
f830
dffc
c330
01b0
0070
ENDCHAR
STARTCHAR 313e
ENCODING 12606
SWIDTH 960 0
DWIDTH 14 0
BBX 14 14 0 -2
BITMAP
0000
3ff0
0000
0000
0000
fffc
0300
0300
0340
0660
0630
0cf0
7f98
0018
ENDCHAR
STARTCHAR 313f
ENCODING 12607
SWIDTH 960 0
DWIDTH 14 0
BBX 14 14 0 -2
BITMAP
0000
6ffc
34d8
3ffc
00c0
07f8
f6d8
37f8
36d8
37f8
30c0
37fc
6cc0
c7fc
ENDCHAR
STARTCHAR 3140
ENCODING 12608
SWIDTH 960 0
DWIDTH 14 0
BBX 14 14 0 -2
BITMAP
0000
3ff0
0300
7ffc
630c
7d78
df78
0000
3ff0
0000
fffc
0660
0df0
7f18
ENDCHAR
STARTCHAR 3141
ENCODING 12609
SWIDTH 960 0
DWIDTH 14 0
BBX 14 14 0 -2
BITMAP
0cc0
0cc0
fffc
0cc0
1838
1be0
30c0
30c0
77fc
d0c0
30c0
30c0
37f8
3000
ENDCHAR
STARTCHAR 3142
ENCODING 12610
SWIDTH 960 0
DWIDTH 14 0
BBX 14 14 0 -2
BITMAP
1800
1dfc
36d8
6ad8
d8f8
7ed8
66d8
7ef8
66d8
7edc
6cf8
6f98
7a18
e018
ENDCHAR
STARTCHAR 3143
ENCODING 12611
SWIDTH 960 0
DWIDTH 14 0
BBX 14 14 0 -2
BITMAP
1e00
19f8
ff18
dd58
dad8
6d50
d6d0
3f70
7660
de70
36d0
3ed8
3698
3f0c
ENDCHAR
STARTCHAR 3144
ENCODING 12612
SWIDTH 960 0
DWIDTH 14 0
BBX 14 14 0 -2
BITMAP
3630
1b60
7ffc
6018
dfe0
1860
1860
1fe0
0600
3ff0
3030
3030
3ff0
3030
ENDCHAR
STARTCHAR 3145
ENCODING 12613
SWIDTH 960 0
DWIDTH 14 0
BBX 14 14 0 -2
BITMAP
0000
7ef8
6698
7ef8
6698
7ef8
6698
7ef8
3550
fffc
0c60
1f40
03e0
7e38
ENDCHAR
STARTCHAR 3146
ENCODING 12614
SWIDTH 960 0
DWIDTH 14 0
BBX 14 14 0 -2
BITMAP
0030
3f30
3360
3f60
3358
3f18
0c30
ffb0
3f6c
330c
3f18
3518
edb0
1c60
ENDCHAR
STARTCHAR 3147
ENCODING 12615
SWIDTH 960 0
DWIDTH 14 0
BBX 14 14 0 -2
BITMAP
00c0
00c0
f8c0
dbf8
dad8
dad8
fad8
dffc
d8c0
d9a0
f9a0
db30
0618
1c0c
ENDCHAR
STARTCHAR 3148
ENCODING 12616
SWIDTH 960 0
DWIDTH 14 0
BBX 14 14 0 -2
BITMAP
0300
3ff0
3330
3330
3ff0
3330
3330
3ff8
3330
01a0
01c0
074c
7c74
001c
ENDCHAR
STARTCHAR 3149
ENCODING 12617
SWIDTH 960 0
DWIDTH 14 0
BBX 14 14 0 -2
BITMAP
3630
1b30
1b60
7ffc
6018
c300
0300
fffc
0780
0d40
3b70
e31c
0300
0300
ENDCHAR
STARTCHAR 314a
ENCODING 12618
SWIDTH 960 0
DWIDTH 14 0
BBX 14 14 0 -2
BITMAP
0700
0180
0000
1f00
0318
0398
ffb0
0d60
0d40
1b60
3330
e31c
0300
0700
ENDCHAR
STARTCHAR 314b
ENCODING 12619
SWIDTH 960 0
DWIDTH 14 0
BBX 14 14 0 -2
BITMAP
31c0
1860
1800
c7c0
60d8
60d8
0ff0
31e0
3350
3350
66d8
6ccc
c0c0
c1c0
ENDCHAR
STARTCHAR 314c
ENCODING 12620
SWIDTH 960 0
DWIDTH 14 0
BBX 14 14 0 -2
BITMAP
30c0
18c0
1bf8
c6d8
66d8
67f8
06d8
1bf8
1ad8
1870
3060
31d4
6f1c
600c
ENDCHAR
STARTCHAR 314d
ENCODING 12621
SWIDTH 960 0
DWIDTH 14 0
BBX 14 14 0 -2
BITMAP
0330
0330
fffc
3330
30c0
37f8
fed8
36d8
37fc
30c0
3ce0
e1b0
0718
1c0c
ENDCHAR
STARTCHAR 314e
ENCODING 12622
SWIDTH 960 0
DWIDTH 14 0
BBX 14 14 0 -2
BITMAP
0000
3fc0
0cc0
0cc0
1ff8
1d98
3718
6698
dcf0
3ff0
36b0
36b0
fffc
0000
ENDCHAR
STARTCHAR 314f
ENCODING 12623
SWIDTH 960 0
DWIDTH 14 0
BBX 14 14 0 -2
BITMAP
6000
6dfc
7860
66c0
3df8
0698
7df8
1998
fef8
3998
3df8
6ad0
d998
1b0c
ENDCHAR
STARTCHAR 3150
ENCODING 12624
SWIDTH 960 0
DWIDTH 14 0
BBX 14 14 0 -2
BITMAP
6000
6dfc
7860
66c0
3ef8
0198
7ef8
0198
fff8
1d98
6af8
6ad0
d998
3b0c
ENDCHAR
STARTCHAR 3151
ENCODING 12625
SWIDTH 960 0
DWIDTH 14 0
BBX 14 14 0 -2
BITMAP
0cc0
0cc0
fffc
0cc0
0300
3ff0
3330
3330
3330
fffc
0680
0cc0
3870
e01c
ENDCHAR
STARTCHAR 3152
ENCODING 12626
SWIDTH 960 0
DWIDTH 14 0
BBX 14 14 0 -2
BITMAP
3300
37b8
6680
dfc0
18fc
37b0
35b0
77b0
d330
37b0
3530
3fd0
3330
3370
ENDCHAR
STARTCHAR 3153
ENCODING 12627
SWIDTH 960 0
DWIDTH 14 0
BBX 14 14 0 -2
BITMAP
00c0
7c60
0060
fee0
0068
7c68
03f0
7cf0
01b0
7da8
6d68
6e6c
7c60
60e0
ENDCHAR
STARTCHAR 3154
ENCODING 12628
SWIDTH 960 0
DWIDTH 14 0
BBX 14 14 0 -2
BITMAP
1998
18d8
34d0
36f8
6698
dd98
1998
fef8
18d0
6ad0
3db0
39b4
1f34
f61c
ENDCHAR
STARTCHAR 3155
ENCODING 12629
SWIDTH 960 0
DWIDTH 14 0
BBX 14 14 0 -2
BITMAP
30c0
18c0
1ffc
c340
6378
66d8
06a8
36b8
3b50
36d0
6660
66d0
c698
c70c
ENDCHAR
STARTCHAR 3156
ENCODING 12630
SWIDTH 960 0
DWIDTH 14 0
BBX 14 14 0 -2
BITMAP
0180
0180
1ffc
d800
6be0
6b6c
1b6c
3a3c
6ff0
db30
31a0
30c0
63b0
de1c
ENDCHAR
STARTCHAR 3157
ENCODING 12631
SWIDTH 960 0
DWIDTH 14 0
BBX 14 14 0 -2
BITMAP
1860
0c60
0cc0
fffc
1860
1860
3030
3ff0
6aa8
daac
1aa0
1aa0
fffc
0000
ENDCHAR
STARTCHAR 3158
ENCODING 12632
SWIDTH 960 0
DWIDTH 14 0
BBX 14 14 0 -2
BITMAP
0000
7ff8
6998
7e98
6998
7ef8
69a8
7ea0
1aa0
7eb0
7ab0
7718
cd18
3a0c
ENDCHAR
STARTCHAR 3159
ENCODING 12633
SWIDTH 960 0
DWIDTH 14 0
BBX 14 14 0 -2
BITMAP
3330
31b0
31a0
3bf8
7618
7618
77f8
d6a8
31a0
3360
3360
366c
346c
383c
ENDCHAR
STARTCHAR 315a
ENCODING 12634
SWIDTH 960 0
DWIDTH 14 0
BBX 14 14 0 -2
BITMAP
0000
7df0
0330
fff0
0330
7df0
0180
7df8
0768
7dd8
6d68
6de8
7c18
6070
ENDCHAR
STARTCHAR 315b
ENCODING 12635
SWIDTH 960 0
DWIDTH 14 0
BBX 14 14 0 -2
BITMAP
1860
1868
7e6c
1bfc
1b60
ff68
1b68
6b70
6f50
6bb4
7b6c
68cc
ce00
c3fc
ENDCHAR
STARTCHAR 315c
ENCODING 12636
SWIDTH 960 0
DWIDTH 14 0
BBX 14 14 0 -2
BITMAP
0000
7ef8
6698
7ef8
6698
7ef8
6cd8
6698
6fd8
6cd8
6fd8
6698
6da8
68f8
ENDCHAR
STARTCHAR 315d
ENCODING 12637
SWIDTH 960 0
DWIDTH 14 0
BBX 14 14 0 -2
BITMAP
1800
1bfc
18c0
fff8
1b18
3df8
3b18
3bf8
6b40
69f8
dbb0
18e0
1bb0
1e1c
ENDCHAR
STARTCHAR 315e
ENCODING 12638
SWIDTH 960 0
DWIDTH 14 0
BBX 14 14 0 -2
BITMAP
0000
7ffc
6000
6f68
6b6c
6f60
61fc
6f60
6b60
6f60
6b70
6f50
6b98
db0c
ENDCHAR
STARTCHAR 315f
ENCODING 12639
SWIDTH 960 0
DWIDTH 14 0
BBX 14 14 0 -2
BITMAP
0000
7ff8
6318
6318
6318
6318
6318
7ff8
6018
6018
6018
6018
6018
6038
ENDCHAR
STARTCHAR 3160
ENCODING 12640
SWIDTH 960 0
DWIDTH 14 0
BBX 14 14 0 -2
BITMAP
0000
7ff8
6318
6fe8
6318
7ff8
6fd8
6cd8
6fe8
67a8
6d58
6368
7ff8
6018
ENDCHAR
STARTCHAR 3161
ENCODING 12641
SWIDTH 960 0
DWIDTH 14 0
BBX 14 14 0 -2
BITMAP
0000
37fc
3600
36f8
fe98
36f8
3698
36f8
3660
3bfc
e6d0
0670
06d8
07fc
ENDCHAR
STARTCHAR 3162
ENCODING 12642
SWIDTH 960 0
DWIDTH 14 0
BBX 14 14 0 -2
BITMAP
0300
0300
fffc
0680
1d60
f33c
3ff0
3330
3ff0
3330
3ff0
3334
330c
01fc
ENDCHAR
STARTCHAR 3163
ENCODING 12643
SWIDTH 960 0
DWIDTH 14 0
BBX 14 14 0 -2
BITMAP
0300
7ffc
6018
dfe0
1860
1fe0
1860
1fe0
0300
fffc
0cc0
1e80
07c0
7c70
ENDCHAR
STARTCHAR 3164
ENCODING 12644
SWIDTH 960 0
DWIDTH 14 0
BBX 14 14 0 -2
BITMAP
0000
f83c
1be0
3060
3060
7d60
0d78
6d60
6d60
3560
3bfc
3800
6e00
c3fc
ENDCHAR
STARTCHAR 3165
ENCODING 12645
SWIDTH 960 0
DWIDTH 14 0
BBX 14 14 0 -2
BITMAP
1800
1800
3ff8
3398
6a98
ceb0
0d8c
38fc
e300
35b0
3598
6c6c
cc6c
07e0
ENDCHAR
STARTCHAR 3166
ENCODING 12646
SWIDTH 960 0
DWIDTH 14 0
BBX 14 14 0 -2
BITMAP
30c0
30c0
37fc
fda0
3350
36d8
3ffc
36d8
77f8
d6d8
37f8
36d8
30cc
707c
ENDCHAR
STARTCHAR 3167
ENCODING 12647
SWIDTH 960 0
DWIDTH 14 0
BBX 14 14 0 -2
BITMAP
3018
3070
37d8
fed8
3330
37f8
3180
3ffc
f300
33f8
36b0
34e0
39f0
771c
ENDCHAR
STARTCHAR 3168
ENCODING 12648
SWIDTH 960 0
DWIDTH 14 0
BBX 14 14 0 -2
BITMAP
31e0
1860
1b60
c360
6330
6630
0618
37f4
3630
3630
6630
6630
c7f0
c630
ENDCHAR
STARTCHAR 3169
ENCODING 12649
SWIDTH 960 0
DWIDTH 14 0
BBX 14 14 0 -2
BITMAP
30c0
18c0
1ffc
cc18
6ffc
60c0
07f8
36d8
37f8
36d8
67f8
61b0
c718
dc0c
ENDCHAR
STARTCHAR 316a
ENCODING 12650
SWIDTH 960 0
DWIDTH 14 0
BBX 14 14 0 -2
BITMAP
0330
1b30
1b60
3700
06c0
1c70
7318
0330
3330
3760
6680
0cc0
3870
e01c
ENDCHAR
STARTCHAR 316b
ENCODING 12651
SWIDTH 960 0
DWIDTH 14 0
BBX 14 14 0 -2
BITMAP
18c0
18c0
1af8
1a98
6b30
6c60
6b78
db58
1b58
1d78
3758
3758
6378
c358
ENDCHAR
STARTCHAR 316c
ENCODING 12652
SWIDTH 960 0
DWIDTH 14 0
BBX 14 14 0 -2
BITMAP
3000
37fc
31a0
37f8
76a8
7aa8
77f8
d6d8
38c0
37f8
6cc0
60c0
cffc
0000
ENDCHAR
STARTCHAR 316d
ENCODING 12653
SWIDTH 960 0
DWIDTH 14 0
BBX 14 14 0 -2
BITMAP
0cc0
0cc0
fffc
0cc0
1fec
f868
1bb0
3aa0
eaac
1bbc
35b0
36d8
66cc
c00c
ENDCHAR
STARTCHAR 316e
ENCODING 12654
SWIDTH 960 0
DWIDTH 14 0
BBX 14 14 0 -2
BITMAP
18c0
dbf8
70c0
37fc
7000
dbf0
1b30
3bf0
69d8
df58
1b70
1b30
73d8
360c
ENDCHAR
STARTCHAR 316f
ENCODING 12655
SWIDTH 960 0
DWIDTH 14 0
BBX 14 14 0 -2
BITMAP
3000
33f0
3430
edf0
3830
3bfc
6cc0
fdec
3768
79b0
7770
75a8
d76c
31c0
ENDCHAR
STARTCHAR 3170
ENCODING 12656
SWIDTH 960 0
DWIDTH 14 0
BBX 14 14 0 -2
BITMAP
3460
ff60
d578
ffb0
d560
fff8
01a8
ffa8
7ef8
6698
7e80
6d8c
3e8c
e0fc
ENDCHAR
STARTCHAR 3171
ENCODING 12657
SWIDTH 960 0
DWIDTH 14 0
BBX 14 14 0 -2
BITMAP
0cc0
0cc0
fffc
0cc0
1800
19f8
3e98
3698
6698
d5b0
1d80
198c
318c
60fc
ENDCHAR
STARTCHAR 3172
ENCODING 12658
SWIDTH 960 0
DWIDTH 14 0
BBX 14 14 0 -2
BITMAP
0cc0
fffc
0cc0
7ff8
6318
6fd8
7ff8
6cd8
6fe8
67a8
6ed8
6668
7ff8
6018
ENDCHAR
STARTCHAR 3173
ENCODING 12659
SWIDTH 960 0
DWIDTH 14 0
BBX 14 14 0 -2
BITMAP
00c0
67f8
30c0
37fc
0000
07f8
f618
37f8
3198
33d0
3eb0
3998
6e80
c3fc
ENDCHAR
STARTCHAR 3174
ENCODING 12660
SWIDTH 960 0
DWIDTH 14 0
BBX 14 14 0 -2
BITMAP
18f0
1830
35b0
36b0
6698
dd18
1b0c
fef8
1998
6a98
3d98
3998
1ef8
f198
ENDCHAR
STARTCHAR 3175
ENCODING 12661
SWIDTH 960 0
DWIDTH 14 0
BBX 14 14 0 -2
BITMAP
1800
3ff8
f698
1db0
398c
e6fc
1fc0
18c0
1ff8
1800
1ff8
3558
6d68
c070
ENDCHAR
STARTCHAR 3176
ENCODING 12662
SWIDTH 960 0
DWIDTH 14 0
BBX 14 14 0 -2
BITMAP
0300
3300
33fc
3600
fff0
3530
33f0
3000
37f8
3aa8
e6a8
06a8
1ffc
0000
ENDCHAR
STARTCHAR 3177
ENCODING 12663
SWIDTH 960 0
DWIDTH 14 0
BBX 14 14 0 -2
BITMAP
1860
1860
1860
ff50
18d0
1998
1f4c
1a60
1a60
3600
36c0
6660
c630
1c30
ENDCHAR
STARTCHAR 3178
ENCODING 12664
SWIDTH 960 0
DWIDTH 14 0
BBX 14 14 0 -2
BITMAP
3000
1bf8
18c0
c0c0
6ffc
6180
0180
1bf8
1b18
1818
3018
3018
6018
60f0
ENDCHAR
STARTCHAR 3179
ENCODING 12665
SWIDTH 960 0
DWIDTH 14 0
BBX 14 14 0 -2
BITMAP
1800
6bf8
6ad8
7ed8
6bf8
dad8
1ad8
7ff8
18c0
1bf8
1cd8
3998
e318
0e70
ENDCHAR
STARTCHAR 317a
ENCODING 12666
SWIDTH 960 0
DWIDTH 14 0
BBX 14 14 0 -2
BITMAP
0000
7cf8
6cd8
6cd8
6cd8
6cd8
6cd8
6fd8
6cd8
6018
6018
6018
7ff8
6018
ENDCHAR
STARTCHAR 317b
ENCODING 12667
SWIDTH 960 0
DWIDTH 14 0
BBX 14 14 0 -2
BITMAP
0300
0300
0300
3ff0
3330
3330
3330
3330
fffc
0700
0680
0cc0
3870
e01c
ENDCHAR
STARTCHAR 317c
ENCODING 12668
SWIDTH 960 0
DWIDTH 14 0
BBX 14 14 0 -2
BITMAP
0300
0600
3ff0
3b50
3550
35b0
3ff0
37b0
3550
3b70
fffc
0680
1ce0
7038
ENDCHAR
STARTCHAR 317d
ENCODING 12669
SWIDTH 960 0
DWIDTH 14 0
BBX 14 14 0 -2
BITMAP
1980
18c0
30c0
6ffc
ccc0
18c0
18c0
3bf8
68c0
d8c0
18c0
18c0
1ffc
1800
ENDCHAR
STARTCHAR 317e
ENCODING 12670
SWIDTH 960 0
DWIDTH 14 0
BBX 14 14 0 -2
BITMAP
0180
0180
3ffc
3180
30c0
3360
3360
3518
350c
350c
6b0c
6b30
c330
01f0
ENDCHAR
STARTCHAR 3221
ENCODING 12833
SWIDTH 960 0
DWIDTH 14 0
BBX 14 14 0 -2
BITMAP
3000
37f8
36d8
fed8
37f8
36d8
36d8
3ff8
f6d8
30c0
30c0
30c0
30c0
70c0
ENDCHAR
STARTCHAR 3222
ENCODING 12834
SWIDTH 960 0
DWIDTH 14 0
BBX 14 14 0 -2
BITMAP
0000
fffc
ccc0
ccc0
ccc0
fcc0
cff8
ccc0
ccc0
fcc0
ccc0
c0c0
0ffc
0000
ENDCHAR
STARTCHAR 3223
ENCODING 12835
SWIDTH 960 0
DWIDTH 14 0
BBX 14 14 0 -2
BITMAP
31a0
31a0
37f8
fda0
37fc
30c0
7bf8
76d8
77f8
d6d8
d7f8
31a0
3330
3618
ENDCHAR
STARTCHAR 3224
ENCODING 12836
SWIDTH 960 0
DWIDTH 14 0
BBX 14 14 0 -2
BITMAP
00c0
7f40
66c0
66fc
76ac
6b68
6c70
6e60
6a60
6b60
7350
61b0
7f18
660c
ENDCHAR
STARTCHAR 3225
ENCODING 12837
SWIDTH 960 0
DWIDTH 14 0
BBX 14 14 0 -2
BITMAP
0000
7f70
66d0
66d0
76d4
6ab4
6d1c
6df8
6ad8
6ad0
7070
6070
7ed8
670c
ENDCHAR
STARTCHAR 3226
ENCODING 12838
SWIDTH 960 0
DWIDTH 14 0
BBX 14 14 0 -2
BITMAP
0000
7ff8
0300
0300
0300
0300
3ff0
0300
0300
0300
0300
0300
fffc
0000
ENDCHAR
STARTCHAR 3227
ENCODING 12839
SWIDTH 960 0
DWIDTH 14 0
BBX 14 14 0 -2
BITMAP
0de0
0c60
3b30
e3dc
06e0
7fb0
0000
fff8
6698
36d8
0e38
3ae8
e798
0e38
ENDCHAR
STARTCHAR 3228
ENCODING 12840
SWIDTH 960 0
DWIDTH 14 0
BBX 14 14 0 -2
BITMAP
30c0
3180
37f8
ff58
1ae8
1bf8
36e8
3b58
76d8
d7fc
30c0
31a0
3730
3c1c
ENDCHAR
STARTCHAR 3229
ENCODING 12841
SWIDTH 960 0
DWIDTH 14 0
BBX 14 14 0 -2
BITMAP
3630
1b60
7ffc
6618
dfe0
1860
1fe0
1860
1ffc
1800
1ff8
6b58
6da8
c070
ENDCHAR
STARTCHAR 322a
ENCODING 12842
SWIDTH 960 0
DWIDTH 14 0
BBX 14 14 0 -2
BITMAP
0060
7f40
61f8
6698
66f8
7698
6df8
6dfc
6e80
6afc
70d4
63ac
7f4c
6638
ENDCHAR
STARTCHAR 322b
ENCODING 12843
SWIDTH 960 0
DWIDTH 14 0
BBX 14 14 0 -2
BITMAP
0cc0
0cc0
7ff8
0cc0
fffc
0300
3ff0
3330
3ff0
3330
3ff0
0cc0
3870
e018
ENDCHAR
STARTCHAR 322c
ENCODING 12844
SWIDTH 960 0
DWIDTH 14 0
BBX 14 14 0 -2
BITMAP
0000
7ff8
68d8
6cd8
6d98
7ff8
6318
6b68
6b68
6b68
6fe8
6868
6018
6038
ENDCHAR
STARTCHAR 322d
ENCODING 12845
SWIDTH 960 0
DWIDTH 14 0
BBX 14 14 0 -2
BITMAP
30c0
18c0
18c0
c7f8
66d8
66d8
06d8
1ad8
1bf8
1ad8
30c0
30c0
60c0
60c0
ENDCHAR
STARTCHAR 322e
ENCODING 12846
SWIDTH 960 0
DWIDTH 14 0
BBX 14 14 0 -2
BITMAP
0cc0
0cc0
fffc
0cc0
0c60
7468
19a8
39b0
ed60
1d60
34d0
edb0
0d18
3a0c
ENDCHAR
STARTCHAR 322f
ENCODING 12847
SWIDTH 960 0
DWIDTH 14 0
BBX 14 14 0 -2
BITMAP
18c0
1bf8
19a0
37fc
3000
73f0
d330
33f0
3330
33f0
3558
356c
3b34
31f0
ENDCHAR
STARTCHAR 3230
ENCODING 12848
SWIDTH 960 0
DWIDTH 14 0
BBX 14 14 0 -2
BITMAP
0000
3ff8
3018
3ff8
3000
3ff8
3340
3670
3fd8
3180
6ff0
6180
dffc
0000
ENDCHAR
STARTCHAR 3231
ENCODING 12849
SWIDTH 960 0
DWIDTH 14 0
BBX 14 14 0 -2
BITMAP
30c0
37f8
3330
37fc
7800
75f0
7530
d3f0
3330
33f0
3558
356c
3b34
31f0
ENDCHAR
STARTCHAR 3232
ENCODING 12850
SWIDTH 960 0
DWIDTH 14 0
BBX 14 14 0 -2
BITMAP
0060
7ffc
6db0
6ffc
7c00
6df8
6d18
7df8
6d18
6df8
6da8
6dac
6eb4
dcf0
ENDCHAR
STARTCHAR 3233
ENCODING 12851
SWIDTH 960 0
DWIDTH 14 0
BBX 14 14 0 -2
BITMAP
3000
37f8
31b0
fce0
37f8
36d8
7ad8
77f8
76d8
d6d8
d7f8
36d8
36d8
36d8
ENDCHAR
STARTCHAR 3234
ENCODING 12852
SWIDTH 960 0
DWIDTH 14 0
BBX 14 14 0 -2
BITMAP
18c0
18c0
68c0
68c0
7ec0
6bf8
68c0
d8c0
1ec0
f8c0
18c0
18c0
1bfc
1800
ENDCHAR
STARTCHAR 3235
ENCODING 12853
SWIDTH 960 0
DWIDTH 14 0
BBX 14 14 0 -2
BITMAP
0000
7fe0
00c0
0180
0300
0600
0c00
1800
3000
6018
6018
6018
3ff8
0000
ENDCHAR
STARTCHAR 3236
ENCODING 12854
SWIDTH 960 0
DWIDTH 14 0
BBX 14 14 0 -2
BITMAP
1980
1980
1ff8
3340
36a0
75b8
dff4
35b0
37f0
35b0
37f0
35b4
318c
30fc
ENDCHAR
STARTCHAR 3237
ENCODING 12855
SWIDTH 960 0
DWIDTH 14 0
BBX 14 14 0 -2
BITMAP
3000
30f8
3f58
6cd8
ccd8
ffd8
0cd8
6f58
6cd8
6cd8
6f70
7cc0
e0c0
00c0
ENDCHAR
STARTCHAR 3238
ENCODING 12856
SWIDTH 960 0
DWIDTH 14 0
BBX 14 14 0 -2
BITMAP
0000
3ff0
3330
3ff0
3330
36d0
3c70
3ff0
0300
35b0
3598
6c6c
cc6c
07e0
ENDCHAR
STARTCHAR 3239
ENCODING 12857
SWIDTH 960 0
DWIDTH 14 0
BBX 14 14 0 -2
BITMAP
3000
1bf0
1a30
c7f0
6630
67f0
0630
3000
37f8
3568
6d68
6d68
dffc
c000
ENDCHAR
STARTCHAR 323a
ENCODING 12858
SWIDTH 960 0
DWIDTH 14 0
BBX 14 14 0 -2
BITMAP
0c38
3be8
f6d8
3330
33f8
fc18
33f8
3818
75f8
74c0
d6a8
368c
35b4
30f0
ENDCHAR
STARTCHAR 323b
ENCODING 12859
SWIDTH 960 0
DWIDTH 14 0
BBX 14 14 0 -2
BITMAP
0300
0300
7ff8
1860
0cc0
fffc
0000
1fe0
1860
1fe0
1860
1860
1fe0
1860
ENDCHAR
STARTCHAR 323c
ENCODING 12860
SWIDTH 960 0
DWIDTH 14 0
BBX 14 14 0 -2
BITMAP
0000
fffc
0300
0300
0380
0340
0360
0330
0330
0300
0300
0300
0300
0300
ENDCHAR
STARTCHAR 323d
ENCODING 12861
SWIDTH 960 0
DWIDTH 14 0
BBX 14 14 0 -2
BITMAP
0d80
0d80
0d98
1998
19b0
39a0
69c0
d980
1980
1980
1980
198c
198c
18fc
ENDCHAR
STARTCHAR 323e
ENCODING 12862
SWIDTH 960 0
DWIDTH 14 0
BBX 14 14 0 -2
BITMAP
1800
1bfc
1a00
3600
37f8
7698
d698
36d0
36d0
3660
3460
34d0
3b98
360c
ENDCHAR
STARTCHAR 323f
ENCODING 12863
SWIDTH 960 0
DWIDTH 14 0
BBX 14 14 0 -2
BITMAP
1800
1ffc
1818
3018
37d8
76d8
d6d8
36d8
37d8
36d8
3018
3018
3018
3038
ENDCHAR
STARTCHAR 3240
ENCODING 12864
SWIDTH 960 0
DWIDTH 14 0
BBX 14 14 0 -2
BITMAP
1a00
1a00
1a78
3fa8
36a8
76a8
d6a8
36a8
36a8
36a8
35a8
35b8
3ba8
3000
ENDCHAR
STARTCHAR 3241
ENCODING 12865
SWIDTH 960 0
DWIDTH 14 0
BBX 14 14 0 -2
BITMAP
1800
1ffc
19a0
31a0
31a0
77f8
d6a8
36a8
36a8
36a8
36a8
36a8
37f8
3618
ENDCHAR
STARTCHAR 3242
ENCODING 12866
SWIDTH 960 0
DWIDTH 14 0
BBX 14 14 0 -2
BITMAP
18c0
18c0
18c0
37f8
30c0
70c0
d7fc
30c0
30c0
37f8
30c0
30c0
37fc
3000
ENDCHAR
STARTCHAR 3243
ENCODING 12867
SWIDTH 960 0
DWIDTH 14 0
BBX 14 14 0 -2
BITMAP
1800
1800
1800
18fc
ff4c
1b4c
1b4c
1b4c
1b4c
1b4c
334c
337c
634c
ce00
ENDCHAR
STARTCHAR 3244
ENCODING 12868
SWIDTH 960 0
DWIDTH 14 0
BBX 14 14 0 -2
BITMAP
0000
fffc
0030
0030
3f30
3330
3330
3330
3f30
3330
0030
0030
0030
0070
ENDCHAR
STARTCHAR 3245
ENCODING 12869
SWIDTH 960 0
DWIDTH 14 0
BBX 14 14 0 -2
BITMAP
0300
7ff8
0300
3ff0
0000
1fe0
1860
1fe0
0cc0
fffc
0c00
7f78
1b58
7778
ENDCHAR
STARTCHAR 3246
ENCODING 12870
SWIDTH 960 0
DWIDTH 14 0
BBX 14 14 0 -2
BITMAP
0000
fffc
0300
1fe0
1860
1fe0
1860
1fe0
1860
1fe0
7cc0
0780
0ee0
f83c
ENDCHAR
STARTCHAR 3247
ENCODING 12871
SWIDTH 960 0
DWIDTH 14 0
BBX 14 14 0 -2
BITMAP
30c0
30c0
37fc
3618
fffc
6cc0
6dec
6f68
f9b0
db70
1da8
376c
6060
c1c0
ENDCHAR
STARTCHAR 3248
ENCODING 12872
SWIDTH 960 0
DWIDTH 14 0
BBX 14 14 0 -2
BITMAP
0300
0300
7ffc
6018
fff8
0600
1d58
77d8
1db0
76a0
0db0
3998
e18c
0700
ENDCHAR
STARTCHAR 3249
ENCODING 12873
SWIDTH 960 0
DWIDTH 14 0
BBX 14 14 0 -2
BITMAP
0300
7ffc
6018
dff0
0600
1fe0
1860
1fe0
1860
fffc
1fe0
f6dc
0cc0
3b80
ENDCHAR
STARTCHAR 324a
ENCODING 12874
SWIDTH 960 0
DWIDTH 14 0
BBX 14 14 0 -2
BITMAP
0630
1db0
78d0
18d0
1b30
feb0
19b0
3c3c
3af0
6bb0
d830
1830
1830
1830
ENDCHAR
STARTCHAR 324b
ENCODING 12875
SWIDTH 960 0
DWIDTH 14 0
BBX 14 14 0 -2
BITMAP
0000
0fb8
f598
d598
d7b8
d598
f400
d778
d4d8
d468
f770
d430
cc68
0dcc
ENDCHAR
STARTCHAR 324c
ENCODING 12876
SWIDTH 960 0
DWIDTH 14 0
BBX 14 14 0 -2
BITMAP
0000
3ff0
3330
3330
3ff0
3330
3ff0
0300
fffc
0780
0d40
3b70
e31c
0300
ENDCHAR
STARTCHAR 324d
ENCODING 12877
SWIDTH 960 0
DWIDTH 14 0
BBX 14 14 0 -2
BITMAP
3000
31f8
fe98
3698
3698
66f8
dd98
0300
fffc
0780
0d40
3b70
e31c
0300
ENDCHAR
STARTCHAR 324e
ENCODING 12878
SWIDTH 960 0
DWIDTH 14 0
BBX 14 14 0 -2
BITMAP
00c0
ff40
06c0
7ac0
6afc
7aa8
0770
ff60
0660
7ae0
6ad0
7ab0
6b18
0e0c
ENDCHAR
STARTCHAR 324f
ENCODING 12879
SWIDTH 960 0
DWIDTH 14 0
BBX 14 14 0 -2
BITMAP
3000
1ffc
1818
c018
67d8
66d8
06d8
06d8
1bd8
1ad8
3018
3018
6018
6038
ENDCHAR
STARTCHAR 3250
ENCODING 12880
SWIDTH 960 0
DWIDTH 14 0
BBX 14 14 0 -2
BITMAP
0300
0300
0318
3318
3330
3360
6380
6680
06c0
0cc0
0c60
1830
3018
e00c
ENDCHAR
STARTCHAR 3251
ENCODING 12881
SWIDTH 960 0
DWIDTH 14 0
BBX 14 14 0 -2
BITMAP
0000
07fc
fc18
3018
33e8
3368
fd68
3368
33e8
3368
3c18
e018
0018
0038
ENDCHAR
STARTCHAR 3252
ENCODING 12882
SWIDTH 960 0
DWIDTH 14 0
BBX 14 14 0 -2
BITMAP
3000
33f0
3330
fd70
1b50
1b50
37f8
3a18
76e8
d6a8
36e8
36a8
3618
3638
ENDCHAR
STARTCHAR 3253
ENCODING 12883
SWIDTH 960 0
DWIDTH 14 0
BBX 14 14 0 -2
BITMAP
0070
03c0
3f00
0300
0300
fffc
0300
0780
0d40
3b70
e31c
0300
0300
0300
ENDCHAR
STARTCHAR 3254
ENCODING 12884
SWIDTH 960 0
DWIDTH 14 0
BBX 14 14 0 -2
BITMAP
0cc0
38c0
f7fc
3618
37f8
fcc0
31ec
7b68
75b0
d770
d1a8
376c
3060
31c0
ENDCHAR
STARTCHAR 3255
ENCODING 12885
SWIDTH 960 0
DWIDTH 14 0
BBX 14 14 0 -2
BITMAP
30c0
3ffc
69a0
cd30
7ff8
6318
6fe8
6318
6fd8
6cd8
6fd8
6018
7ff8
6018
ENDCHAR
STARTCHAR 3256
ENCODING 12886
SWIDTH 960 0
DWIDTH 14 0
BBX 14 14 0 -2
BITMAP
0cc0
0cc0
fffc
0cc0
0cc0
0d80
1998
19b0
39e0
6980
d980
198c
198c
18fc
ENDCHAR
STARTCHAR 3257
ENCODING 12887
SWIDTH 960 0
DWIDTH 14 0
BBX 14 14 0 -2
BITMAP
0cc0
0cc0
fffc
0cc0
0000
fffc
0030
3f30
3330
3330
3f30
3330
0030
0070
ENDCHAR
STARTCHAR 3258
ENCODING 12888
SWIDTH 960 0
DWIDTH 14 0
BBX 14 14 0 -2
BITMAP
0cc0
0cc0
fffc
0cc0
34c0
3000
fef8
3698
3698
3698
3698
6698
66f8
dd98
ENDCHAR
STARTCHAR 3259
ENCODING 12889
SWIDTH 960 0
DWIDTH 14 0
BBX 14 14 0 -2
BITMAP
0cc0
0cc0
fffc
0cc0
1800
1bfc
3030
37d0
76d0
d6d0
37d0
3630
3030
3070
ENDCHAR
STARTCHAR 325a
ENCODING 12890
SWIDTH 960 0
DWIDTH 14 0
BBX 14 14 0 -2
BITMAP
0cc0
0cc0
fffc
0cc0
3ff0
1b60
fffc
1b60
3ff8
0300
fffc
0300
0300
0300
ENDCHAR
STARTCHAR 325b
ENCODING 12891
SWIDTH 960 0
DWIDTH 14 0
BBX 14 14 0 -2
BITMAP
0cc0
fffc
0cc0
3ff0
3330
3ff0
3330
3ff0
0300
fffc
0780
1d60
f33c
0300
ENDCHAR
STARTCHAR 325c
ENCODING 12892
SWIDTH 960 0
DWIDTH 14 0
BBX 14 14 0 -2
BITMAP
3000
33d8
3358
fd58
d5d8
d518
d500
fdf8
d368
3b68
35d0
3d30
ed68
034c
ENDCHAR
STARTCHAR 325d
ENCODING 12893
SWIDTH 960 0
DWIDTH 14 0
BBX 14 14 0 -2
BITMAP
0000
7df8
0358
ff58
03f8
7d58
03f8
7cc0
07fc
7de0
6d50
6ed8
7ccc
6cc0
ENDCHAR
STARTCHAR 325e
ENCODING 12894
SWIDTH 960 0
DWIDTH 14 0
BBX 14 14 0 -2
BITMAP
0330
0330
fffc
db30
dbf8
db50
dffc
db50
dbf8
f8c0
dffc
c0c0
00c0
00c0
ENDCHAR
STARTCHAR 325f
ENCODING 12895
SWIDTH 960 0
DWIDTH 14 0
BBX 14 14 0 -2
BITMAP
0d80
0d9c
39f0
e98c
18fc
1fe0
1860
1fe0
1860
1fe0
1860
1fe0
0ee0
7838
ENDCHAR
STARTCHAR 3260
ENCODING 12896
SWIDTH 960 0
DWIDTH 14 0
BBX 14 14 0 -2
BITMAP
0600
6600
3678
3fa8
06a8
06a8
f6a8
36a8
35a8
35a8
39b8
3b68
6e00
c3fc
ENDCHAR
STARTCHAR 3261
ENCODING 12897
SWIDTH 960 0
DWIDTH 14 0
BBX 14 14 0 -2
BITMAP
0000
67f0
3630
36f0
06b0
0ff8
f418
35e8
3568
35e8
3568
3c38
6e00
c3fc
ENDCHAR
STARTCHAR 3262
ENCODING 12898
SWIDTH 960 0
DWIDTH 14 0
BBX 14 14 0 -2
BITMAP
0000
3ff0
0300
7ffc
6318
dd70
0300
7ef8
6618
7ef8
7df8
60d0
7cf0
639c
ENDCHAR
STARTCHAR 3263
ENCODING 12899
SWIDTH 960 0
DWIDTH 14 0
BBX 14 14 0 -2
BITMAP
1860
1860
1860
7ffc
6a98
6a98
6a98
7ed0
6ad0
1c60
1a60
1f50
f198
030c
ENDCHAR
STARTCHAR 3264
ENCODING 12900
SWIDTH 960 0
DWIDTH 14 0
BBX 14 14 0 -2
BITMAP
18e0
1ba8
1f6c
336c
3360
7ffc
d360
33a8
3368
3730
3d30
3374
375c
330c
ENDCHAR
STARTCHAR 3265
ENCODING 12901
SWIDTH 960 0
DWIDTH 14 0
BBX 14 14 0 -2
BITMAP
00e0
31a8
37ac
31ac
d5a0
d7fc
d5ac
d5a8
d5d8
d5b0
feb0
cddc
c19c
038c
ENDCHAR
STARTCHAR 3266
ENCODING 12902
SWIDTH 960 0
DWIDTH 14 0
BBX 14 14 0 -2
BITMAP
0680
0db0
7998
1998
1980
fffc
1998
1998
1ed0
f8d0
186c
19d4
1b1c
380c
ENDCHAR
STARTCHAR 3267
ENCODING 12903
SWIDTH 960 0
DWIDTH 14 0
BBX 14 14 0 -2
BITMAP
0000
1ff0
18c0
18c0
18c0
18c0
fffc
01c0
0340
06c0
0cc0
38c0
e0c0
01c0
ENDCHAR
STARTCHAR 3268
ENCODING 12904
SWIDTH 960 0
DWIDTH 14 0
BBX 14 14 0 -2
BITMAP
0000
fffc
0300
0300
6fe8
6b68
6b68
6fe8
6b68
6b68
6fe8
6018
7ff8
6018
ENDCHAR
STARTCHAR 3269
ENCODING 12905
SWIDTH 960 0
DWIDTH 14 0
BBX 14 14 0 -2
BITMAP
0060
7fa0
6c60
6c60
7f60
6360
6360
6360
7f50
6cd0
6db0
7f98
6318
060c
ENDCHAR
STARTCHAR 326a
ENCODING 12906
SWIDTH 960 0
DWIDTH 14 0
BBX 14 14 0 -2
BITMAP
0cc0
0cc0
fffc
0cc0
3ff0
18c0
18c0
fffc
01c0
0340
0ec0
38c0
e0c0
01c0
ENDCHAR
STARTCHAR 326b
ENCODING 12907
SWIDTH 960 0
DWIDTH 14 0
BBX 14 14 0 -2
BITMAP
30e0
31b0
37a8
fda8
d5a0
d7fc
d5a0
fda8
d1e8
3bb0
35b0
3eb4
e1dc
038c
ENDCHAR
STARTCHAR 326c
ENCODING 12908
SWIDTH 960 0
DWIDTH 14 0
BBX 14 14 0 -2
BITMAP
1800
19f8
fe98
36f8
3698
6fe0
d860
1fe0
1860
1fe0
1860
1fe0
0ee0
7838
ENDCHAR
STARTCHAR 326d
ENCODING 12909
SWIDTH 960 0
DWIDTH 14 0
BBX 14 14 0 -2
BITMAP
00d8
7ed8
6db0
6dfc
6db0
feb0
1dfc
1db0
35b0
35fc
6db0
cdb0
0dfc
1d80
ENDCHAR
STARTCHAR 326e
ENCODING 12910
SWIDTH 960 0
DWIDTH 14 0
BBX 14 14 0 -2
BITMAP
1860
18e8
37ac
3aac
69a0
fffc
6da0
7da8
6de8
7fb0
69b4
6dac
7edc
e38c
ENDCHAR
STARTCHAR 326f
ENCODING 12911
SWIDTH 960 0
DWIDTH 14 0
BBX 14 14 0 -2
BITMAP
1800
fef8
3698
3698
6ef8
c198
3ff0
3300
3fe0
3300
3ff8
6ad8
6d68
c070
ENDCHAR
STARTCHAR 3270
ENCODING 12912
SWIDTH 960 0
DWIDTH 14 0
BBX 14 14 0 -2
BITMAP
0300
0300
0680
0cc0
3870
ecdc
0cc0
0cc0
0cc0
0cc0
18c0
18c0
30c0
60c0
ENDCHAR
STARTCHAR 3271
ENCODING 12913
SWIDTH 960 0
DWIDTH 14 0
BBX 14 14 0 -2
BITMAP
0300
0300
0680
0cc0
3870
efdc
0000
0000
7ff8
06c0
0660
0df0
7f18
0018
ENDCHAR
STARTCHAR 3272
ENCODING 12914
SWIDTH 960 0
DWIDTH 14 0
BBX 14 14 0 -2
BITMAP
3000
3ff8
6cd8
d998
7f70
6aa0
6af8
7f60
6a60
7ffc
6660
6660
6660
ce60
ENDCHAR
STARTCHAR 3273
ENCODING 12915
SWIDTH 960 0
DWIDTH 14 0
BBX 14 14 0 -2
BITMAP
0000
7ff8
6018
6018
6fd8
6cd8
6cd8
6cd8
6cd8
6fd8
6018
6018
7ff8
6018
ENDCHAR
STARTCHAR 3274
ENCODING 12916
SWIDTH 960 0
DWIDTH 14 0
BBX 14 14 0 -2
BITMAP
00c0
3180
37f8
36d8
fff8
36d8
37f8
36d8
31d0
3d50
e368
06fc
0ccc
187c
ENDCHAR
STARTCHAR 3275
ENCODING 12917
SWIDTH 960 0
DWIDTH 14 0
BBX 14 14 0 -2
BITMAP
00c0
37fc
30c0
37f8
fea8
36a8
37f8
30c0
37fc
39d8
e750
1d60
03d0
0e1c
ENDCHAR
STARTCHAR 3276
ENCODING 12918
SWIDTH 960 0
DWIDTH 14 0
BBX 14 14 0 -2
BITMAP
0000
07f8
fa18
1ae8
36a8
36a8
7aa8
1aa8
dae8
6a18
37f8
3a18
6e00
c3fc
ENDCHAR
STARTCHAR 3277
ENCODING 12919
SWIDTH 960 0
DWIDTH 14 0
BBX 14 14 0 -2
BITMAP
30c0
30c0
30c0
37f8
78d8
74d8
74d8
d7fc
30e0
31a0
31b0
3330
3618
340c
ENDCHAR
STARTCHAR 3278
ENCODING 12920
SWIDTH 960 0
DWIDTH 14 0
BBX 14 14 0 -2
BITMAP
3000
37f8
3330
31a0
79c0
7770
74dc
d0c0
37f8
30c0
30c0
30c0
37fc
3000
ENDCHAR
STARTCHAR 3279
ENCODING 12921
SWIDTH 960 0
DWIDTH 14 0
BBX 14 14 0 -2
BITMAP
3300
3300
33fc
3a00
75f0
7550
7350
d7fc
36d0
36d0
37fc
3430
3030
30e0
ENDCHAR
STARTCHAR 327a
ENCODING 12922
SWIDTH 960 0
DWIDTH 14 0
BBX 14 14 0 -2
BITMAP
3000
37fc
3600
3660
7a68
76a8
76b0
d6a0
3760
3660
36d0
35b0
3b18
3c0c
ENDCHAR
STARTCHAR 327b
ENCODING 12923
SWIDTH 960 0
DWIDTH 14 0
BBX 14 14 0 -2
BITMAP
30c0
37fc
30c0
3bf8
76a8
76a8
77f8
d0c0
37fc
31d8
3750
3d60
33d0
361c
ENDCHAR
STARTCHAR 327c
ENCODING 12924
SWIDTH 960 0
DWIDTH 14 0
BBX 14 14 0 -2
BITMAP
01b0
0198
0198
fffc
0180
3698
3698
36d0
ffd0
3660
366c
66d4
669c
c30c
ENDCHAR
STARTCHAR 327d
ENCODING 12925
SWIDTH 960 0
DWIDTH 14 0
BBX 14 14 0 -2
BITMAP
3000
37f8
3618
fe18
37f8
3618
3000
3ff8
f198
3198
3198
3318
3618
7470
ENDCHAR
STARTCHAR 327e
ENCODING 12926
SWIDTH 960 0
DWIDTH 14 0
BBX 14 14 0 -2
BITMAP
0180
fd80
0d80
0dfc
0d30
fdb0
ceb0
c0d0
c0e0
cc60
cce0
7db0
0718
1c0c
ENDCHAR
STARTCHAR 3321
ENCODING 13089
SWIDTH 960 0
DWIDTH 14 0
BBX 14 14 0 -2
BITMAP
19b0
30d0
7ed0
6b30
7eb0
6ab0
7e3c
6df0
1d30
1d30
36b0
37d4
6c0c
c7fc
ENDCHAR
STARTCHAR 3322
ENCODING 13090
SWIDTH 960 0
DWIDTH 14 0
BBX 14 14 0 -2
BITMAP
0300
0300
fbfc
da00
ddf0
db50
fb50
dffc
dad0
dad0
fbfc
da30
c030
00e0
ENDCHAR
STARTCHAR 3323
ENCODING 13091
SWIDTH 960 0
DWIDTH 14 0
BBX 14 14 0 -2
BITMAP
3060
3068
306c
fffc
3060
36a8
7aa8
76a8
77f0
d6b0
d6b4
35ac
38dc
318c
ENDCHAR
STARTCHAR 3324
ENCODING 13092
SWIDTH 960 0
DWIDTH 14 0
BBX 14 14 0 -2
BITMAP
3300
1b00
1bfc
c600
6df0
6350
0350
3ffc
36d0
36d0
6ffc
6c30
c030
c0e0
ENDCHAR
STARTCHAR 3325
ENCODING 13093
SWIDTH 960 0
DWIDTH 14 0
BBX 14 14 0 -2
BITMAP
0000
3ffc
3000
3180
3198
3698
36b0
35a0
3180
3340
6340
6660
dc30
701c
ENDCHAR
STARTCHAR 3326
ENCODING 13094
SWIDTH 960 0
DWIDTH 14 0
BBX 14 14 0 -2
BITMAP
0000
3ff0
3330
3ff0
3330
3ff0
3330
0680
1ce0
f4dc
0cc0
0cc0
18c0
70c0
ENDCHAR
STARTCHAR 3327
ENCODING 13095
SWIDTH 960 0
DWIDTH 14 0
BBX 14 14 0 -2
BITMAP
3180
31b8
3fe0
318c
318c
3d7c
e600
1fe0
1860
1fe0
1860
1860
1fe0
1860
ENDCHAR
STARTCHAR 3328
ENCODING 13096
SWIDTH 960 0
DWIDTH 14 0
BBX 14 14 0 -2
BITMAP
1860
1860
1ad0
f6d0
3598
1d74
3600
fe00
1bfc
6cc0
6ad0
6ab8
dbec
180c
ENDCHAR
STARTCHAR 3329
ENCODING 13097
SWIDTH 960 0
DWIDTH 14 0
BBX 14 14 0 -2
BITMAP
0cc0
0cc0
fffc
0cc0
0d40
0680
0cc0
3cf0
ecdc
0cc0
18c0
18c0
30c0
60c0
ENDCHAR
STARTCHAR 332a
ENCODING 13098
SWIDTH 960 0
DWIDTH 14 0
BBX 14 14 0 -2
BITMAP
3000
3df8
68d8
feb8
6ba0
7ef8
6b60
7ffc
6760
dfe0
1b60
1fe0
0330
7fe8
ENDCHAR
STARTCHAR 332b
ENCODING 13099
SWIDTH 960 0
DWIDTH 14 0
BBX 14 14 0 -2
BITMAP
0000
7ef8
6698
7ef8
6698
7ef8
6018
6fe8
6698
7ff8
6698
6d98
6998
6038
ENDCHAR
STARTCHAR 332c
ENCODING 13100
SWIDTH 960 0
DWIDTH 14 0
BBX 14 14 0 -2
BITMAP
0360
7d6c
6df8
6b60
736c
6bbc
6ec0
6df8
6d18
6df8
7b18
6318
63f8
6318
ENDCHAR
STARTCHAR 332d
ENCODING 13101
SWIDTH 960 0
DWIDTH 14 0
BBX 14 14 0 -2
BITMAP
0000
3ff0
3030
3030
3ff0
3030
3030
3ff0
3030
3030
3ff0
0cc0
3870
e018
ENDCHAR
STARTCHAR 332e
ENCODING 13102
SWIDTH 960 0
DWIDTH 14 0
BBX 14 14 0 -2
BITMAP
1800
6af0
6ab0
7eb0
01b0
feb0
01b0
7eb0
66b0
7eb0
6db0
35b4
3f34
e61c
ENDCHAR
STARTCHAR 332f
ENCODING 13103
SWIDTH 960 0
DWIDTH 14 0
BBX 14 14 0 -2
BITMAP
18c0
18c0
ff40
30c0
35f8
ecd8
38d8
1ad8
36d8
6cd8
1d98
3698
6318
c670
ENDCHAR
STARTCHAR 3330
ENCODING 13104
SWIDTH 960 0
DWIDTH 14 0
BBX 14 14 0 -2
BITMAP
18c0
18c0
18c0
1f40
1bc0
3340
3b60
6ed8
c6cc
0cc0
0cc0
18c0
30c0
60c0
ENDCHAR
STARTCHAR 3331
ENCODING 13105
SWIDTH 960 0
DWIDTH 14 0
BBX 14 14 0 -2
BITMAP
00c0
00c0
fffc
d8c0
dad8
dbb0
d9a0
d8d8
d9b0
fb60
d8e0
c1b0
0718
1c0c
ENDCHAR
STARTCHAR 3332
ENCODING 13106
SWIDTH 960 0
DWIDTH 14 0
BBX 14 14 0 -2
BITMAP
0300
7ffc
6318
dff0
0300
3ff0
0300
fffc
0000
1fe0
1860
1860
1fe0
1860
ENDCHAR
STARTCHAR 3333
ENCODING 13107
SWIDTH 960 0
DWIDTH 14 0
BBX 14 14 0 -2
BITMAP
0300
3330
3ff0
0000
3ffc
3180
37f0
3180
3ff8
3180
6ff0
6180
dffc
0000
ENDCHAR
STARTCHAR 3334
ENCODING 13108
SWIDTH 960 0
DWIDTH 14 0
BBX 14 14 0 -2
BITMAP
3000
37f8
3550
3550
7f50
7d50
75fc
d730
3570
35b0
35d0
36d4
3db4
331c
ENDCHAR
STARTCHAR 3335
ENCODING 13109
SWIDTH 960 0
DWIDTH 14 0
BBX 14 14 0 -2
BITMAP
3000
37fc
3530
fd50
3750
3550
7dfc
7770
7670
d570
d5d0
36d4
3db4
331c
ENDCHAR
STARTCHAR 3336
ENCODING 13110
SWIDTH 960 0
DWIDTH 14 0
BBX 14 14 0 -2
BITMAP
3000
1bfc
1a60
c660
66f8
6660
07fc
0660
3660
36f8
6c60
6c60
dbfc
c000
ENDCHAR
STARTCHAR 3337
ENCODING 13111
SWIDTH 960 0
DWIDTH 14 0
BBX 14 14 0 -2
BITMAP
0000
fdf8
3318
33f8
3318
7df8
6c00
edf8
6c30
6ffc
7d30
61b0
61b0
0070
ENDCHAR
STARTCHAR 3338
ENCODING 13112
SWIDTH 960 0
DWIDTH 14 0
BBX 14 14 0 -2
BITMAP
0cc0
fffc
0d40
3ff0
0300
fffc
06c0
7ff0
0018
3ff0
36b0
36b0
fffc
0000
ENDCHAR
STARTCHAR 3339
ENCODING 13113
SWIDTH 960 0
DWIDTH 14 0
BBX 14 14 0 -2
BITMAP
3300
337c
6fc0
db00
1b00
37fc
3318
7318
d7d8
3318
3318
33d8
3618
3038
ENDCHAR
STARTCHAR 333a
ENCODING 13114
SWIDTH 960 0
DWIDTH 14 0
BBX 14 14 0 -2
BITMAP
00c0
7cc0
07fc
fcc0
00d0
7db0
01a0
7ce8
00d8
7db0
6d70
6cd8
7d8c
6e0c
ENDCHAR
STARTCHAR 333b
ENCODING 13115
SWIDTH 960 0
DWIDTH 14 0
BBX 14 14 0 -2
BITMAP
1860
19a8
35a8
36f8
6600
ddfc
1800
fef8
1998
6af8
3d98
38d0
1ffc
f000
ENDCHAR
STARTCHAR 333c
ENCODING 13116
SWIDTH 960 0
DWIDTH 14 0
BBX 14 14 0 -2
BITMAP
0060
7e60
67fc
6ec0
6ad0
ffb0
c6a0
fee8
66d8
7eb0
6670
7ed8
668c
6f0c
ENDCHAR
STARTCHAR 333d
ENCODING 13117
SWIDTH 960 0
DWIDTH 14 0
BBX 14 14 0 -2
BITMAP
3000
1bf8
1ad8
c6d8
67f8
66d8
06d8
1bf8
18c0
1bf8
30c0
30c0
6ffc
6000
ENDCHAR
STARTCHAR 333e
ENCODING 13118
SWIDTH 960 0
DWIDTH 14 0
BBX 14 14 0 -2
BITMAP
18f0
ff54
19bc
7ef0
6ad0
7ef0
6fdc
c300
fffc
0d40
3ff0
efdc
0cc0
0fc0
ENDCHAR
STARTCHAR 333f
ENCODING 13119
SWIDTH 960 0
DWIDTH 14 0
BBX 14 14 0 -2
BITMAP
1860
1860
1860
7ef8
6a60
6a60
6bfc
7e60
6a60
1df8
1a60
1e60
f7fc
0000
ENDCHAR
STARTCHAR 3340
ENCODING 13120
SWIDTH 960 0
DWIDTH 14 0
BBX 14 14 0 -2
BITMAP
0000
37fc
3000
33f0
fd30
3330
33f0
3330
3530
3bf0
e330
0000
1ffc
0000
ENDCHAR
STARTCHAR 3341
ENCODING 13121
SWIDTH 960 0
DWIDTH 14 0
BBX 14 14 0 -2
BITMAP
1860
1860
1860
fffc
1860
3860
3dfc
3b6c
6b6c
6b6c
db6c
1b6c
1860
1860
ENDCHAR
STARTCHAR 3342
ENCODING 13122
SWIDTH 960 0
DWIDTH 14 0
BBX 14 14 0 -2
BITMAP
1800
19fc
1980
7e80
6afc
6aa0
6aa0
7ebc
6aac
1dac
1b4c
1f4c
f68c
0338
ENDCHAR
STARTCHAR 3343
ENCODING 13123
SWIDTH 960 0
DWIDTH 14 0
BBX 14 14 0 -2
BITMAP
1980
1980
3580
36f8
6718
ded8
18d8
fed8
19a8
6bd8
3c18
3818
1e18
f070
ENDCHAR
STARTCHAR 3344
ENCODING 13124
SWIDTH 960 0
DWIDTH 14 0
BBX 14 14 0 -2
BITMAP
1818
7f58
1b58
ffd8
1b58
7f58
18d8
ffd8
6b58
7f58
6b58
7f18
0f18
f838
ENDCHAR
STARTCHAR 3345
ENCODING 13125
SWIDTH 960 0
DWIDTH 14 0
BBX 14 14 0 -2
BITMAP
0630
0630
fffc
d630
d630
dffc
d568
d568
ddec
fdac
d56c
db58
1b58
37b8
ENDCHAR
STARTCHAR 3346
ENCODING 13126
SWIDTH 960 0
DWIDTH 14 0
BBX 14 14 0 -2
BITMAP
0600
0600
0ff0
1c60
36c0
6380
0740
1c70
ffec
1860
1860
1860
1fe0
1860
ENDCHAR
STARTCHAR 3347
ENCODING 13127
SWIDTH 960 0
DWIDTH 14 0
BBX 14 14 0 -2
BITMAP
0180
3ffc
3300
3ffc
306c
37a8
35b0
37a8
306c
37ac
63ac
6f78
c360
0760
ENDCHAR
STARTCHAR 3348
ENCODING 13128
SWIDTH 960 0
DWIDTH 14 0
BBX 14 14 0 -2
BITMAP
3060
3060
33fc
fd00
3360
3360
3360
3d60
f360
3350
36d8
36fc
378c
780c
ENDCHAR
STARTCHAR 3349
ENCODING 13129
SWIDTH 960 0
DWIDTH 14 0
BBX 14 14 0 -2
BITMAP
3698
3350
37fc
fe18
35f0
3330
33f0
3d30
f3f0
3330
33f0
31ac
336c
763c
ENDCHAR
STARTCHAR 334a
ENCODING 13130
SWIDTH 960 0
DWIDTH 14 0
BBX 14 14 0 -2
BITMAP
18c0
18c0
18f8
fe98
1b50
3860
3cd0
3a98
6bfc
6998
d998
1998
19f8
1998
ENDCHAR
STARTCHAR 334b
ENCODING 13131
SWIDTH 960 0
DWIDTH 14 0
BBX 14 14 0 -2
BITMAP
1860
1860
1bfc
fe60
1b58
3d98
3ad0
3a60
68d8
6bb0
d870
18d8
1b8c
1e0c
ENDCHAR
STARTCHAR 334c
ENCODING 13132
SWIDTH 960 0
DWIDTH 14 0
BBX 14 14 0 -2
BITMAP
1800
18f0
ff50
18d4
7ed4
019c
7f00
66f8
dd98
34d0
34d0
3660
6dd0
c71c
ENDCHAR
STARTCHAR 334d
ENCODING 13133
SWIDTH 960 0
DWIDTH 14 0
BBX 14 14 0 -2
BITMAP
1b30
dffc
7370
33fc
7760
ddf8
1b60
3bfc
6800
dbf8
19b0
18e0
71f0
371c
ENDCHAR
STARTCHAR 334e
ENCODING 13134
SWIDTH 960 0
DWIDTH 14 0
BBX 14 14 0 -2
BITMAP
00c0
fec0
33fc
3358
36b0
7da0
6dfc
ef60
6df8
6d60
7df8
6d60
63fc
0300
ENDCHAR
STARTCHAR 334f
ENCODING 13135
SWIDTH 960 0
DWIDTH 14 0
BBX 14 14 0 -2
BITMAP
0db0
1bfc
f1b0
33fc
3760
fdf8
3360
3bfc
7400
77f8
d1b0
30e0
31f0
371c
ENDCHAR
STARTCHAR 3350
ENCODING 13136
SWIDTH 960 0
DWIDTH 14 0
BBX 14 14 0 -2
BITMAP
3630
1b60
7ffc
6018
dfe0
1860
1fe0
1860
1fe0
1860
1fe0
068c
1d8c
f0fc
ENDCHAR
STARTCHAR 3351
ENCODING 13137
SWIDTH 960 0
DWIDTH 14 0
BBX 14 14 0 -2
BITMAP
0600
0fe0
3980
e300
3ff0
3330
3ff0
3330
3330
3ff0
3030
3030
6030
c070
ENDCHAR
STARTCHAR 3352
ENCODING 13138
SWIDTH 960 0
DWIDTH 14 0
BBX 14 14 0 -2
BITMAP
1860
1860
7ef8
1860
1860
fffc
34d0
76d0
75d8
d554
36d4
6db0
6db0
dd70
ENDCHAR
STARTCHAR 3353
ENCODING 13139
SWIDTH 960 0
DWIDTH 14 0
BBX 14 14 0 -2
BITMAP
1860
1860
ff60
1bfc
7ed0
6a98
7fb4
6ab0
7ed0
18e0
ff60
18d0
1998
1b0c
ENDCHAR
STARTCHAR 3354
ENCODING 13140
SWIDTH 960 0
DWIDTH 14 0
BBX 14 14 0 -2
BITMAP
0c00
fff8
00d8
3f50
3350
3f60
00d0
7f58
06cc
0f4c
fcec
0cd8
0cc0
1cc0
ENDCHAR
STARTCHAR 3355
ENCODING 13141
SWIDTH 960 0
DWIDTH 14 0
BBX 14 14 0 -2
BITMAP
0000
7ef8
6698
7ef8
6698
7ef8
67d8
6ed8
6398
66d8
7ff8
6cd8
6fd8
6cd8
ENDCHAR
STARTCHAR 3356
ENCODING 13142
SWIDTH 960 0
DWIDTH 14 0
BBX 14 14 0 -2
BITMAP
0000
7ff8
6c00
6bf0
6b30
73f0
6800
6ff8
6ea8
6f78
7af8
66d8
66d8
66d8
ENDCHAR
STARTCHAR 3357
ENCODING 13143
SWIDTH 960 0
DWIDTH 14 0
BBX 14 14 0 -2
BITMAP
0cc0
0cc0
fffc
0cc0
0fc0
0300
3ff0
3330
3ff0
0300
fffc
0300
0300
0300
ENDCHAR
STARTCHAR 3358
ENCODING 13144
SWIDTH 960 0
DWIDTH 14 0
BBX 14 14 0 -2
BITMAP
3630
1b30
1b60
7ffc
6018
dfe0
00c0
0180
0300
fffc
0300
0300
0300
0700
ENDCHAR
STARTCHAR 3359
ENCODING 13145
SWIDTH 960 0
DWIDTH 14 0
BBX 14 14 0 -2
BITMAP
0060
01c0
1f00
1800
1ff8
18c0
18c0
fffc
0300
3330
3330
3330
3ff0
3030
ENDCHAR
STARTCHAR 335a
ENCODING 13146
SWIDTH 960 0
DWIDTH 14 0
BBX 14 14 0 -2
BITMAP
0300
6618
37d8
34d0
0fe0
3cd8
efcc
0300
fffc
0780
0d40
3b70
e31c
0300
ENDCHAR
STARTCHAR 335b
ENCODING 13147
SWIDTH 960 0
DWIDTH 14 0
BBX 14 14 0 -2
BITMAP
1800
1bfc
7f60
6b40
def8
3698
75f8
1d98
36f8
7f98
d6f8
36d0
3e98
370c
ENDCHAR
STARTCHAR 335c
ENCODING 13148
SWIDTH 960 0
DWIDTH 14 0
BBX 14 14 0 -2
BITMAP
0000
f7fc
d560
d540
f7f8
0198
7ef8
0198
fff8
3198
3ef8
66d0
0698
1f0c
ENDCHAR
STARTCHAR 335d
ENCODING 13149
SWIDTH 960 0
DWIDTH 14 0
BBX 14 14 0 -2
BITMAP
3330
3330
37d0
fb30
3330
37f8
3b34
3334
77f0
d330
3330
33d0
3e30
7030
ENDCHAR
STARTCHAR 335e
ENCODING 13150
SWIDTH 960 0
DWIDTH 14 0
BBX 14 14 0 -2
BITMAP
30c0
30c0
3ffc
39a0
6d30
cd30
0300
7ff8
0060
1860
0cc0
0d80
fffc
0000
ENDCHAR
STARTCHAR 335f
ENCODING 13151
SWIDTH 960 0
DWIDTH 14 0
BBX 14 14 0 -2
BITMAP
3000
37f8
36a8
ffe8
36d0
37d0
7aa8
77cc
74c0
d7f8
d0c0
30c0
37fc
3000
ENDCHAR
STARTCHAR 3360
ENCODING 13152
SWIDTH 960 0
DWIDTH 14 0
BBX 14 14 0 -2
BITMAP
3000
37fc
3000
fdf0
3350
3bf0
7550
77f8
7000
d3f0
d350
33f0
3350
37fc
ENDCHAR
STARTCHAR 3361
ENCODING 13153
SWIDTH 960 0
DWIDTH 14 0
BBX 14 14 0 -2
BITMAP
1800
1bf8
1b18
fff8
1b18
3bf0
3d40
3bf8
6b40
6bfc
db40
1acc
1acc
1c7c
ENDCHAR
STARTCHAR 3362
ENCODING 13154
SWIDTH 960 0
DWIDTH 14 0
BBX 14 14 0 -2
BITMAP
1870
1bd0
3eb0
6db4
feb4
6bf4
7eb8
6ad0
7ff0
0da8
7aa8
6ed8
69cc
c18c
ENDCHAR
STARTCHAR 3363
ENCODING 13155
SWIDTH 960 0
DWIDTH 14 0
BBX 14 14 0 -2
BITMAP
3180
1b78
1a18
c7b8
6618
67f8
0300
37fc
366c
6ab4
6d54
cd4c
d80c
c038
ENDCHAR
STARTCHAR 3364
ENCODING 13156
SWIDTH 960 0
DWIDTH 14 0
BBX 14 14 0 -2
BITMAP
1818
ff58
db58
ff58
18d8
7ed8
18d8
ff58
00d8
7ed8
66d8
6618
7e18
6638
ENDCHAR
STARTCHAR 3365
ENCODING 13157
SWIDTH 960 0
DWIDTH 14 0
BBX 14 14 0 -2
BITMAP
0000
07f0
fa30
dbf0
da30
dbf0
d980
dbf8
dee8
fb98
da18
c668
03e8
0070
ENDCHAR
STARTCHAR 3366
ENCODING 13158
SWIDTH 960 0
DWIDTH 14 0
BBX 14 14 0 -2
BITMAP
30c0
30c0
31a0
39a0
7530
77f8
740c
d000
33f0
3330
3330
3330
33f0
3330
ENDCHAR
STARTCHAR 3367
ENCODING 13159
SWIDTH 960 0
DWIDTH 14 0
BBX 14 14 0 -2
BITMAP
3018
3070
37c0
fcc0
30c0
37fc
30c0
3cc0
f7f8
3618
3618
3618
37f8
7618
ENDCHAR
STARTCHAR 3368
ENCODING 13160
SWIDTH 960 0
DWIDTH 14 0
BBX 14 14 0 -2
BITMAP
3018
1870
1bc0
c0c0
60c0
6ffc
00c0
30c0
37f8
3618
6618
6618
c7f8
c618
ENDCHAR
STARTCHAR 3369
ENCODING 13161
SWIDTH 960 0
DWIDTH 14 0
BBX 14 14 0 -2
BITMAP
3000
1bf0
1a30
c7f0
6630
67f0
0300
37f8
36d8
3b98
6618
6668
c3e8
c070
ENDCHAR
STARTCHAR 336a
ENCODING 13162
SWIDTH 960 0
DWIDTH 14 0
BBX 14 14 0 -2
BITMAP
3000
1bf0
1a30
c6f0
66b0
6ffc
0c0c
37f8
3a30
37f0
6630
67f0
c630
c670
ENDCHAR
STARTCHAR 336b
ENCODING 13163
SWIDTH 960 0
DWIDTH 14 0
BBX 14 14 0 -2
BITMAP
0cc0
fffc
0cc0
1fe0
1860
1fe0
1860
1fe0
0ff8
39d8
ef18
18d8
0fd8
00f0
ENDCHAR
STARTCHAR 336c
ENCODING 13164
SWIDTH 960 0
DWIDTH 14 0
BBX 14 14 0 -2
BITMAP
3000
33f0
3330
fdf0
1b30
1bf0
3580
3bf8
7768
d5d8
3318
3368
31e8
3070
ENDCHAR
STARTCHAR 336d
ENCODING 13165
SWIDTH 960 0
DWIDTH 14 0
BBX 14 14 0 -2
BITMAP
1860
1860
fffc
1b6c
7ff8
6a60
7ef8
6a60
7ffc
1800
fff8
1998
19f8
1998
ENDCHAR
STARTCHAR 336e
ENCODING 13166
SWIDTH 960 0
DWIDTH 14 0
BBX 14 14 0 -2
BITMAP
0000
1fe0
1860
1860
1860
1fe0
1860
1860
1fe0
1860
1860
1860
fffc
0000
ENDCHAR
STARTCHAR 336f
ENCODING 13167
SWIDTH 960 0
DWIDTH 14 0
BBX 14 14 0 -2
BITMAP
1800
1bfc
3f4c
6df4
ff68
6be8
7f54
6bec
7e60
0df8
7a60
6e60
6bfc
c000
ENDCHAR
STARTCHAR 3370
ENCODING 13168
SWIDTH 960 0
DWIDTH 14 0
BBX 14 14 0 -2
BITMAP
00c0
00c0
f8c0
d8c0
d8c0
dffc
d8c0
d8c0
d8c0
f8c0
d8c0
c0c0
00c0
00c0
ENDCHAR
STARTCHAR 3371
ENCODING 13169
SWIDTH 960 0
DWIDTH 14 0
BBX 14 14 0 -2
BITMAP
19b0
19b0
1bfc
feb0
18c0
3cec
3aac
3ba8
6bb0
6aa0
d9a0
19ac
19ac
19bc
ENDCHAR
STARTCHAR 3372
ENCODING 13170
SWIDTH 960 0
DWIDTH 14 0
BBX 14 14 0 -2
BITMAP
3330
3330
37fc
fd30
37f8
3b50
77fc
7550
77f8
d0c0
d7fc
30c0
30c0
30c0
ENDCHAR
STARTCHAR 3373
ENCODING 13171
SWIDTH 960 0
DWIDTH 14 0
BBX 14 14 0 -2
BITMAP
34c0
34c0
fff8
3598
3de8
1868
7e68
6ae8
7eb0
1980
ff80
198c
198c
18fc
ENDCHAR
STARTCHAR 3374
ENCODING 13172
SWIDTH 960 0
DWIDTH 14 0
BBX 14 14 0 -2
BITMAP
1860
19a0
19a0
fff8
1b60
3a60
3ffc
3ae0
6af0
69b0
db68
1a6c
1860
1860
ENDCHAR
STARTCHAR 3375
ENCODING 13173
SWIDTH 960 0
DWIDTH 14 0
BBX 14 14 0 -2
BITMAP
0180
1b00
77f8
6cd8
6fd8
6cd8
77d8
6018
0d80
0d80
0d80
198c
318c
e0fc
ENDCHAR
STARTCHAR 3376
ENCODING 13174
SWIDTH 960 0
DWIDTH 14 0
BBX 14 14 0 -2
BITMAP
0300
7ffc
6d58
f7b8
7ff8
1b60
1fe0
1b60
3ff0
3330
3ff0
3334
3ff4
31fc
ENDCHAR
STARTCHAR 3377
ENCODING 13175
SWIDTH 960 0
DWIDTH 14 0
BBX 14 14 0 -2
BITMAP
0cc0
0cc0
fffc
0cd0
30d8
1ffc
d8c0
67f8
6ad8
1bf8
36d8
37f8
66d8
66d8
ENDCHAR
STARTCHAR 3378
ENCODING 13176
SWIDTH 960 0
DWIDTH 14 0
BBX 14 14 0 -2
BITMAP
06c0
1c70
76d8
0380
06c0
1c70
ffec
0300
3ff0
1b60
0d60
0d40
fffc
0000
ENDCHAR
STARTCHAR 3379
ENCODING 13177
SWIDTH 960 0
DWIDTH 14 0
BBX 14 14 0 -2
BITMAP
3330
31a0
3bfc
6da0
6ff8
f9a8
37fc
fda8
37f8
d5a8
7bb0
76a8
3dac
e1a0
ENDCHAR
STARTCHAR 337a
ENCODING 13178
SWIDTH 960 0
DWIDTH 14 0
BBX 14 14 0 -2
BITMAP
00c0
0340
fb78
db40
dffc
db58
dad8
dae8
dbf8
fae8
db58
c6d8
07f8
0618
ENDCHAR
STARTCHAR 337b
ENCODING 13179
SWIDTH 960 0
DWIDTH 14 0
BBX 14 14 0 -2
BITMAP
0060
fcc0
d5f0
d530
fdf0
d530
d5f0
fdfc
d500
33fc
3354
36ac
368c
3438
ENDCHAR
STARTCHAR 337c
ENCODING 13180
SWIDTH 960 0
DWIDTH 14 0
BBX 14 14 0 -2
BITMAP
1800
1bfc
1860
fec0
1bf8
3b18
3d18
3b18
6bf8
6b18
db18
1b18
1bf8
1b18
ENDCHAR
STARTCHAR 337d
ENCODING 13181
SWIDTH 960 0
DWIDTH 14 0
BBX 14 14 0 -2
BITMAP
0cc0
0cc0
fffc
0cc0
3ff0
0dc0
0700
fffc
0338
0760
0d00
3b00
e300
0700
ENDCHAR
STARTCHAR 337e
ENCODING 13182
SWIDTH 960 0
DWIDTH 14 0
BBX 14 14 0 -2
BITMAP
0cc0
fffc
0d40
7ffc
6018
fff8
0000
1fe0
1860
1fe0
1860
1fe0
0000
fffc
ENDCHAR
STARTCHAR 3421
ENCODING 13345
SWIDTH 960 0
DWIDTH 14 0
BBX 14 14 0 -2
BITMAP
0300
f378
3b58
3558
f5b8
c360
dfe0
f378
d7a8
3758
3558
3b18
3318
e370
ENDCHAR
STARTCHAR 3422
ENCODING 13346
SWIDTH 960 0
DWIDTH 14 0
BBX 14 14 0 -2
BITMAP
0618
06d8
06d8
66d8
36d8
1cd8
0cd8
0ed8
1ad8
1b58
3358
3018
6018
c038
ENDCHAR
STARTCHAR 3423
ENCODING 13347
SWIDTH 960 0
DWIDTH 14 0
BBX 14 14 0 -2
BITMAP
0cc0
0cc0
fffc
0cc0
0cc0
0618
66d8
36d8
1cd8
0cd8
1cd8
36d8
6618
c038
ENDCHAR
STARTCHAR 3424
ENCODING 13348
SWIDTH 960 0
DWIDTH 14 0
BBX 14 14 0 -2
BITMAP
0000
fffc
0c00
0c00
0fc0
0cc0
0cc0
0ec0
1b40
1b40
18c0
1bcc
1ecc
f07c
ENDCHAR
STARTCHAR 3425
ENCODING 13349
SWIDTH 960 0
DWIDTH 14 0
BBX 14 14 0 -2
BITMAP
1980
1980
fffc
1980
7f00
66f8
7e30
6660
7ec0
18c0
ff80
198c
198c
18fc
ENDCHAR
STARTCHAR 3426
ENCODING 13350
SWIDTH 960 0
DWIDTH 14 0
BBX 14 14 0 -2
BITMAP
1800
1bf8
1a18
3618
3618
77f8
d000
36b0
36b0
36b0
36b0
35b4
35b4
381c
ENDCHAR
STARTCHAR 3427
ENCODING 13351
SWIDTH 960 0
DWIDTH 14 0
BBX 14 14 0 -2
BITMAP
0000
7ffc
6018
fe30
0030
03fc
ff30
35b0
35b0
3430
3430
6c74
6c0c
c7fc
ENDCHAR
STARTCHAR 3428
ENCODING 13352
SWIDTH 960 0
DWIDTH 14 0
BBX 14 14 0 -2
BITMAP
0300
7ffc
6cd8
fff8
0cc0
3ff0
0cc0
fffc
0cc0
3b70
e19c
0e00
0380
00c0
ENDCHAR
STARTCHAR 3429
ENCODING 13353
SWIDTH 960 0
DWIDTH 14 0
BBX 14 14 0 -2
BITMAP
0018
ff58
18d8
18d8
18d8
18d8
ff58
18d8
18d8
18d8
18d8
1818
1818
1838
ENDCHAR
STARTCHAR 342a
ENCODING 13354
SWIDTH 960 0
DWIDTH 14 0
BBX 14 14 0 -2
BITMAP
36c0
36c0
ff40
36f8
3ed8
36d8
3ed8
36d8
ffd8
6cd8
6d58
7798
7f98
6370
ENDCHAR
STARTCHAR 342b
ENCODING 13355
SWIDTH 960 0
DWIDTH 14 0
BBX 14 14 0 -2
BITMAP
30c0
30c0
7f40
69f8
df58
34d8
7f58
ecd8
7f58
6cd8
7f58
6d98
7f98
6370
ENDCHAR
STARTCHAR 342c
ENCODING 13356
SWIDTH 960 0
DWIDTH 14 0
BBX 14 14 0 -2
BITMAP
3330
1b30
1b60
7ff8
0680
fffc
0cc0
3ff0
e0dc
1fc0
18c0
1818
1818
0ff8
ENDCHAR
STARTCHAR 342d
ENCODING 13357
SWIDTH 960 0
DWIDTH 14 0
BBX 14 14 0 -2
BITMAP
0180
01f0
fb60
dac0
dff8
daa8
daa8
dab8
db68
fad8
dffc
c1a0
0738
1c0c
ENDCHAR
STARTCHAR 342e
ENCODING 13358
SWIDTH 960 0
DWIDTH 14 0
BBX 14 14 0 -2
BITMAP
0330
37fc
3330
33f0
fd30
33f0
3330
37fc
36a0
3aa8
e738
0600
07fc
0600
ENDCHAR
STARTCHAR 342f
ENCODING 13359
SWIDTH 960 0
DWIDTH 14 0
BBX 14 14 0 -2
BITMAP
0300
0300
7ff8
0cc0
1e80
07c0
3c70
1860
fffc
36d8
75d0
1c70
3ae8
e38c
ENDCHAR
STARTCHAR 3430
ENCODING 13360
SWIDTH 960 0
DWIDTH 14 0
BBX 14 14 0 -2
BITMAP
0300
0300
7ffc
6018
dfe0
0000
0000
fffc
0d80
0d80
0d80
198c
318c
e0fc
ENDCHAR
STARTCHAR 3431
ENCODING 13361
SWIDTH 960 0
DWIDTH 14 0
BBX 14 14 0 -2
BITMAP
0300
0300
7ffc
6018
dfe0
1860
1860
1fe0
1800
1ff0
1830
1830
1ff0
1830
ENDCHAR
STARTCHAR 3432
ENCODING 13362
SWIDTH 960 0
DWIDTH 14 0
BBX 14 14 0 -2
BITMAP
0300
7ffc
6cd8
fff8
0cc0
1fe0
1860
1fa0
1be0
1860
1fe0
068c
1d8c
f0fc
ENDCHAR
STARTCHAR 3433
ENCODING 13363
SWIDTH 960 0
DWIDTH 14 0
BBX 14 14 0 -2
BITMAP
0000
7ff8
0300
0300
0300
0300
fffc
0300
0300
0300
0300
0300
0300
0300
ENDCHAR
STARTCHAR 3434
ENCODING 13364
SWIDTH 960 0
DWIDTH 14 0
BBX 14 14 0 -2
BITMAP
1860
1860
ff50
1998
7f0c
66f8
7e60
6660
7ffc
1860
ff60
1860
1860
1860
ENDCHAR
STARTCHAR 3435
ENCODING 13365
SWIDTH 960 0
DWIDTH 14 0
BBX 14 14 0 -2
BITMAP
0300
1fe0
1b60
1fe0
0300
3ff0
3330
3ff0
0300
35b0
3598
6c6c
cc6c
07e0
ENDCHAR
STARTCHAR 3436
ENCODING 13366
SWIDTH 960 0
DWIDTH 14 0
BBX 14 14 0 -2
BITMAP
01b0
0198
3ffc
3198
3f58
30d0
6f60
6b54
df9c
030c
6d98
6dac
cc6c
07e0
ENDCHAR
STARTCHAR 3437
ENCODING 13367
SWIDTH 960 0
DWIDTH 14 0
BBX 14 14 0 -2
BITMAP
3000
33f8
3358
37fc
7ad0
77f8
7618
d7f8
3618
37f8
3618
37f8
33b8
360c
ENDCHAR
STARTCHAR 3438
ENCODING 13368
SWIDTH 960 0
DWIDTH 14 0
BBX 14 14 0 -2
BITMAP
3068
37fc
3660
3be8
7668
77d0
7754
d5ec
398c
3350
3558
3534
3b34
31f0
ENDCHAR
STARTCHAR 3439
ENCODING 13369
SWIDTH 960 0
DWIDTH 14 0
BBX 14 14 0 -2
BITMAP
3180
31f0
3360
fff8
36a8
36a8
3778
3ad8
f0c0
37fc
30c0
31a0
3330
761c
ENDCHAR
STARTCHAR 343a
ENCODING 13370
SWIDTH 960 0
DWIDTH 14 0
BBX 14 14 0 -2
BITMAP
00c0
7f40
0cc0
0cc0
fffc
3698
3f98
36d0
3ed0
3760
3e60
e6d0
0698
070c
ENDCHAR
STARTCHAR 343b
ENCODING 13371
SWIDTH 960 0
DWIDTH 14 0
BBX 14 14 0 -2
BITMAP
1998
1998
1998
fffc
1998
3998
3d98
3af8
6a98
6998
d998
1998
19f8
1998
ENDCHAR
STARTCHAR 343c
ENCODING 13372
SWIDTH 960 0
DWIDTH 14 0
BBX 14 14 0 -2
BITMAP
1800
1bfc
1800
fef8
1998
3998
3df8
3a98
6a98
69f8
d998
1800
1bfc
1800
ENDCHAR
STARTCHAR 343d
ENCODING 13373
SWIDTH 960 0
DWIDTH 14 0
BBX 14 14 0 -2
BITMAP
18c0
18c0
1bfc
fe18
1bf0
3b30
3d30
3bf0
6b00
6bf8
db18
1b18
1bf8
1b18
ENDCHAR
STARTCHAR 343e
ENCODING 13374
SWIDTH 960 0
DWIDTH 14 0
BBX 14 14 0 -2
BITMAP
18c0
18c0
ff40
18c0
7efc
01a8
7f70
0060
ff60
1ce0
6ad0
6ab0
db18
3a0c
ENDCHAR
STARTCHAR 343f
ENCODING 13375
SWIDTH 960 0
DWIDTH 14 0
BBX 14 14 0 -2
BITMAP
30c0
30c0
3f40
68c0
fffc
35a8
3f70
7460
df60
3460
3f50
34d0
3f98
330c
ENDCHAR
STARTCHAR 3440
ENCODING 13376
SWIDTH 960 0
DWIDTH 14 0
BBX 14 14 0 -2
BITMAP
3000
1bf8
18c0
c0c0
60c0
60c0
0ffc
18c0
18c0
18c0
30c0
30c0
60c0
60c0
ENDCHAR
STARTCHAR 3441
ENCODING 13377
SWIDTH 960 0
DWIDTH 14 0
BBX 14 14 0 -2
BITMAP
3360
1b60
1ffc
c360
67f8
66d8
07f8
30c0
37f8
30c0
6ffc
61a0
c330
ce1c
ENDCHAR
STARTCHAR 3442
ENCODING 13378
SWIDTH 960 0
DWIDTH 14 0
BBX 14 14 0 -2
BITMAP
6000
3f78
3b58
df78
6b58
6f78
1818
1be8
3a68
3be8
6a68
6be8
da68
d838
ENDCHAR
STARTCHAR 3443
ENCODING 13379
SWIDTH 960 0
DWIDTH 14 0
BBX 14 14 0 -2
BITMAP
3300
1b00
1bf8
c680
6ffc
6b60
07fc
3660
37f8
6a60
67f8
c660
c7fc
c600
ENDCHAR
STARTCHAR 3444
ENCODING 13380
SWIDTH 960 0
DWIDTH 14 0
BBX 14 14 0 -2
BITMAP
0000
07f8
fea8
37f8
3000
37fc
fdf0
3330
33f8
35d8
3bb0
eeb0
019c
0180
ENDCHAR
STARTCHAR 3445
ENCODING 13381
SWIDTH 960 0
DWIDTH 14 0
BBX 14 14 0 -2
BITMAP
1860
1860
1860
1860
fffc
1860
1860
1860
1fe0
1860
1860
1860
1fe0
1860
ENDCHAR
STARTCHAR 3446
ENCODING 13382
SWIDTH 960 0
DWIDTH 14 0
BBX 14 14 0 -2
BITMAP
00c0
7f40
6cc0
7efc
6680
7f00
6cf8
7f00
6000
3ff0
36b0
36b0
fffc
0000
ENDCHAR
STARTCHAR 3447
ENCODING 13383
SWIDTH 960 0
DWIDTH 14 0
BBX 14 14 0 -2
BITMAP
0070
3fc0
0600
7ff8
0600
fffc
0c00
0ff0
1c30
1ff0
3430
6ff0
cc30
0ff0
ENDCHAR
STARTCHAR 3448
ENCODING 13384
SWIDTH 960 0
DWIDTH 14 0
BBX 14 14 0 -2
BITMAP
30c0
30c0
3ffc
69a0
6d30
c630
7ff8
0300
0300
fffc
0300
0300
0300
0300
ENDCHAR
STARTCHAR 3449
ENCODING 13385
SWIDTH 960 0
DWIDTH 14 0
BBX 14 14 0 -2
BITMAP
30c0
3ffc
6ba0
cd30
7ffc
6018
dfe0
1860
1fe0
1800
1ff0
1830
1ff0
1830
ENDCHAR
STARTCHAR 344a
ENCODING 13386
SWIDTH 960 0
DWIDTH 14 0
BBX 14 14 0 -2
BITMAP
30c0
3ffc
69a0
cd30
7ef8
6698
7ef8
6698
7ff8
6cd8
6fd8
6cd8
6fd8
6c38
ENDCHAR
STARTCHAR 344b
ENCODING 13387
SWIDTH 960 0
DWIDTH 14 0
BBX 14 14 0 -2
BITMAP
183c
1bec
1aa8
f6d0
37fc
1cc0
37fc
fec0
1cf8
6ad8
6ab0
6b70
dad8
1b0c
ENDCHAR
STARTCHAR 344c
ENCODING 13388
SWIDTH 960 0
DWIDTH 14 0
BBX 14 14 0 -2
BITMAP
1800
1800
1800
3ff8
3300
6300
fffc
0300
3330
3330
3330
3330
3ff0
3030
ENDCHAR
STARTCHAR 344d
ENCODING 13389
SWIDTH 960 0
DWIDTH 14 0
BBX 14 14 0 -2
BITMAP
18c0
18c0
ffa0
19b0
7f18
67fc
7ed8
6768
7ed8
19d8
ff68
1b68
18d8
19d8
ENDCHAR
STARTCHAR 344e
ENCODING 13390
SWIDTH 960 0
DWIDTH 14 0
BBX 14 14 0 -2
BITMAP
0000
7ff8
6cc0
6cc0
6cc0
7cc0
6ffc
6cc0
7cc0
6cc0
6cc0
6cc0
6cc0
dcc0
ENDCHAR
STARTCHAR 344f
ENCODING 13391
SWIDTH 960 0
DWIDTH 14 0
BBX 14 14 0 -2
BITMAP
1830
33f0
7d50
6dfc
7570
6de0
6d5c
ffe0
6c00
6df8
6d68
6d68
6d68
dffc
ENDCHAR
STARTCHAR 3450
ENCODING 13392
SWIDTH 960 0
DWIDTH 14 0
BBX 14 14 0 -2
BITMAP
0cc0
0cc0
fffc
0cc0
0300
7ffc
6018
dfe0
0000
7ffc
0680
0d8c
398c
e0fc
ENDCHAR
STARTCHAR 3451
ENCODING 13393
SWIDTH 960 0
DWIDTH 14 0
BBX 14 14 0 -2
BITMAP
3000
31f8
7e98
d998
fff8
3598
7ff8
e998
7ef8
68d0
7ed0
69b4
7f34
661c
ENDCHAR
STARTCHAR 3452
ENCODING 13394
SWIDTH 960 0
DWIDTH 14 0
BBX 14 14 0 -2
BITMAP
00c0
7cc0
07fc
fcc0
03f8
7d58
03f8
7d58
03f8
7de0
6d50
6ed8
7ccc
6cc0
ENDCHAR
STARTCHAR 3453
ENCODING 13395
SWIDTH 960 0
DWIDTH 14 0
BBX 14 14 0 -2
BITMAP
0000
1fe0
1b60
fffc
36c0
3fe0
1860
1fe0
1860
1fe0
1860
1fe0
0ee0
7838
ENDCHAR
STARTCHAR 3454
ENCODING 13396
SWIDTH 960 0
DWIDTH 14 0
BBX 14 14 0 -2
BITMAP
0000
6ff8
3568
37f8
0000
1ffc
f7f0
3630
37f8
31d8
37b0
3998
6e80
c3fc
ENDCHAR
STARTCHAR 3455
ENCODING 13397
SWIDTH 960 0
DWIDTH 14 0
BBX 14 14 0 -2
BITMAP
3030
37d0
3ab0
6fdc
6ee0
fbc0
36bc
ffc0
3600
d5f8
7b68
7368
3ffc
e000
ENDCHAR
STARTCHAR 3456
ENCODING 13398
SWIDTH 960 0
DWIDTH 14 0
BBX 14 14 0 -2
BITMAP
0000
7ef8
6698
7ef8
6698
7ef8
6018
6fd8
6cd8
6fd8
6cd8
6fd8
6cd8
6038
ENDCHAR
STARTCHAR 3457
ENCODING 13399
SWIDTH 960 0
DWIDTH 14 0
BBX 14 14 0 -2
BITMAP
0000
7ef8
6698
7ef8
6698
7ef8
6318
6318
6fe8
6798
6d58
6b68
6318
6038
ENDCHAR
STARTCHAR 3458
ENCODING 13400
SWIDTH 960 0
DWIDTH 14 0
BBX 14 14 0 -2
BITMAP
0000
7ef8
6698
7ef8
6698
7ef8
6cd8
6698
6fd8
6318
6fe8
6698
6cd8
6838
ENDCHAR
STARTCHAR 3459
ENCODING 13401
SWIDTH 960 0
DWIDTH 14 0
BBX 14 14 0 -2
BITMAP
00c0
7cc0
6df8
69b0
7330
6a60
6d78
6d58
6d58
6d78
7b58
6358
6378
6358
ENDCHAR
STARTCHAR 345a
ENCODING 13402
SWIDTH 960 0
DWIDTH 14 0
BBX 14 14 0 -2
BITMAP
1860
19f8
fe68
1bfc
7e00
66f8
7e98
66f8
7e30
19f8
feb0
1bfc
1830
1830
ENDCHAR
STARTCHAR 345b
ENCODING 13403
SWIDTH 960 0
DWIDTH 14 0
BBX 14 14 0 -2
BITMAP
1860
1860
35fc
3b18
69f0
feb0
66b0
7ef0
6680
7ef8
6d98
6e98
7bf8
e198
ENDCHAR
STARTCHAR 345c
ENCODING 13404
SWIDTH 960 0
DWIDTH 14 0
BBX 14 14 0 -2
BITMAP
1860
1860
35fc
3718
66f0
feb0
19b0
fef0
1980
7ef8
6698
6698
7ef8
6698
ENDCHAR
STARTCHAR 345d
ENCODING 13405
SWIDTH 960 0
DWIDTH 14 0
BBX 14 14 0 -2
BITMAP
0600
0600
0600
0600
ffc0
06c0
06c0
3ac0
0ec0
0d40
19cc
30cc
60cc
c07c
ENDCHAR
STARTCHAR 345e
ENCODING 13406
SWIDTH 960 0
DWIDTH 14 0
BBX 14 14 0 -2
BITMAP
0300
0300
0680
0cc0
3ff0
e01c
3fe0
00c0
0180
3ff0
3030
3030
3ff0
3030
ENDCHAR
STARTCHAR 345f
ENCODING 13407
SWIDTH 960 0
DWIDTH 14 0
BBX 14 14 0 -2
BITMAP
0300
3330
3330
3ff0
0000
3ffc
3000
37f0
3180
3180
6ff8
6180
c180
0180
ENDCHAR
STARTCHAR 3460
ENCODING 13408
SWIDTH 960 0
DWIDTH 14 0
BBX 14 14 0 -2
BITMAP
0300
3318
3ff8
1b30
7ffc
6f60
6660
7fbc
6b58
6fa8
6b30
6fb0
7b58
c38c
ENDCHAR
STARTCHAR 3461
ENCODING 13409
SWIDTH 960 0
DWIDTH 14 0
BBX 14 14 0 -2
BITMAP
0000
03f8
fc00
3000
3000
37fc
fda0
31a0
31a0
3360
3d60
e66c
0c6c
183c
ENDCHAR
STARTCHAR 3462
ENCODING 13410
SWIDTH 960 0
DWIDTH 14 0
BBX 14 14 0 -2
BITMAP
0180
1ffc
1800
dbf0
6b30
6bf0
1fbc
3dac
6fbc
dccc
36d8
36d8
67f8
c618
ENDCHAR
STARTCHAR 3463
ENCODING 13411
SWIDTH 960 0
DWIDTH 14 0
BBX 14 14 0 -2
BITMAP
0000
fbf0
db30
db30
fbf0
db30
db30
fbf8
db58
db50
fb60
db50
c398
0e0c
ENDCHAR
STARTCHAR 3464
ENCODING 13412
SWIDTH 960 0
DWIDTH 14 0
BBX 14 14 0 -2
BITMAP
0300
3330
3330
3ff0
0000
fffc
0c00
0c00
1ff0
1c30
3430
6c30
cff0
0c30
ENDCHAR
STARTCHAR 3465
ENCODING 13413
SWIDTH 960 0
DWIDTH 14 0
BBX 14 14 0 -2
BITMAP
0000
fff8
dd80
6a80
3b80
edfc
3bb0
1870
7f70
6370
7f50
6354
7fb4
631c
ENDCHAR
STARTCHAR 3466
ENCODING 13414
SWIDTH 960 0
DWIDTH 14 0
BBX 14 14 0 -2
BITMAP
0000
3ffc
36b0
35fc
3db0
36f8
35b0
37fc
3630
37f0
6630
67f0
c770
3c1c
ENDCHAR
STARTCHAR 3467
ENCODING 13415
SWIDTH 960 0
DWIDTH 14 0
BBX 14 14 0 -2
BITMAP
0000
3ffc
36d8
36d0
35fc
35b0
3db0
36f8
35b0
35f8
6db0
6db0
cdfc
0d80
ENDCHAR
STARTCHAR 3468
ENCODING 13416
SWIDTH 960 0
DWIDTH 14 0
BBX 14 14 0 -2
BITMAP
0000
03fc
7e60
00c0
01f8
ff98
35f8
3598
35f8
3598
67f8
60d0
c398
0e0c
ENDCHAR
STARTCHAR 3469
ENCODING 13417
SWIDTH 960 0
DWIDTH 14 0
BBX 14 14 0 -2
BITMAP
1800
1bfc
ff60
66c0
35f8
7f98
6df8
6998
76f8
6d98
7bf8
66d0
dd98
770c
ENDCHAR
STARTCHAR 346a
ENCODING 13418
SWIDTH 960 0
DWIDTH 14 0
BBX 14 14 0 -2
BITMAP
0000
7ffc
6630
6c60
6f78
6b58
6f78
6b58
6f78
6ed8
6d78
7570
ccd8
1d8c
ENDCHAR
STARTCHAR 346b
ENCODING 13419
SWIDTH 960 0
DWIDTH 14 0
BBX 14 14 0 -2
BITMAP
0300
0300
0680
0cc0
3b70
e31c
0300
1b00
1bf0
1b00
1b00
1b00
fffc
0000
ENDCHAR
STARTCHAR 346c
ENCODING 13420
SWIDTH 960 0
DWIDTH 14 0
BBX 14 14 0 -2
BITMAP
18c0
18c0
18c0
37fc
30c0
70c0
d7f8
3318
3330
31b0
31a0
30c0
33b0
361c
ENDCHAR
STARTCHAR 346d
ENCODING 13421
SWIDTH 960 0
DWIDTH 14 0
BBX 14 14 0 -2
BITMAP
0600
0fe0
39c0
e300
3ffc
3000
37f0
3630
3630
3630
36e0
660c
660c
c3fc
ENDCHAR
STARTCHAR 346e
ENCODING 13422
SWIDTH 960 0
DWIDTH 14 0
BBX 14 14 0 -2
BITMAP
0300
fffc
0300
3ff0
0000
1fe0
1860
1fe0
0cc0
fffc
0000
3ff0
3030
3ff0
ENDCHAR
STARTCHAR 346f
ENCODING 13423
SWIDTH 960 0
DWIDTH 14 0
BBX 14 14 0 -2
BITMAP
0000
3ef0
36b0
36b0
3ef0
0300
fffc
0cc0
3870
fefc
36b0
36b0
3ef0
36b0
ENDCHAR
STARTCHAR 3470
ENCODING 13424
SWIDTH 960 0
DWIDTH 14 0
BBX 14 14 0 -2
BITMAP
0cc0
fffc
0cc0
0fc0
0cc0
0fc0
0cc0
fffc
1b60
3ff0
e31c
0300
7ff8
0000
ENDCHAR
STARTCHAR 3471
ENCODING 13425
SWIDTH 960 0
DWIDTH 14 0
BBX 14 14 0 -2
BITMAP
0300
0300
7ff8
0680
0cc0
3860
fffc
0030
3f30
3330
3330
3f30
3330
0070
ENDCHAR
STARTCHAR 3472
ENCODING 13426
SWIDTH 960 0
DWIDTH 14 0
BBX 14 14 0 -2
BITMAP
30c0
37fc
30c0
37f8
fdf8
6d18
6df8
6db0
fbfc
d800
1df8
3518
63f8
c318
ENDCHAR
STARTCHAR 3473
ENCODING 13427
SWIDTH 960 0
DWIDTH 14 0
BBX 14 14 0 -2
BITMAP
0300
0300
7ffc
6318
dff8
06c0
1c60
fffc
0030
3f30
3330
3f30
3330
0070
ENDCHAR
STARTCHAR 3474
ENCODING 13428
SWIDTH 960 0
DWIDTH 14 0
BBX 14 14 0 -2
BITMAP
00c0
30c0
30c0
37fc
d4c0
d4c0
d7f8
d518
d5b0
fdb0
cce0
c0e0
03b0
0e1c
ENDCHAR
STARTCHAR 3475
ENCODING 13429
SWIDTH 960 0
DWIDTH 14 0
BBX 14 14 0 -2
BITMAP
0e60
03c0
0f60
7b30
0600
fffc
0d80
1ff8
3998
6998
d998
1998
19b0
0180
ENDCHAR
STARTCHAR 3476
ENCODING 13430
SWIDTH 960 0
DWIDTH 14 0
BBX 14 14 0 -2
BITMAP
3360
3568
edd8
3b70
1d70
3758
fffc
0330
7ffc
19b0
1da0
36cc
63b4
ce1c
ENDCHAR
STARTCHAR 3477
ENCODING 13431
SWIDTH 960 0
DWIDTH 14 0
BBX 14 14 0 -2
BITMAP
0000
3fe0
0060
0060
3fe0
3060
3018
1ff8
0300
35b0
3598
6c6c
cc6c
07e0
ENDCHAR
STARTCHAR 3478
ENCODING 13432
SWIDTH 960 0
DWIDTH 14 0
BBX 14 14 0 -2
BITMAP
3000
37fc
36d8
fff8
30c0
37f8
36d8
3ff8
f6d8
37f8
30c0
37fc
30c0
70c0
ENDCHAR
STARTCHAR 3479
ENCODING 13433
SWIDTH 960 0
DWIDTH 14 0
BBX 14 14 0 -2
BITMAP
1800
19f0
19b0
ffb0
19b0
3db0
3ab0
3ab0
69b0
69b0
db30
1b34
1a34
1c1c
ENDCHAR
STARTCHAR 347a
ENCODING 13434
SWIDTH 960 0
DWIDTH 14 0
BBX 14 14 0 -2
BITMAP
3180
3180
33fc
feb0
37fc
31b0
3df0
35b0
35f0
35b0
6ffc
6cd0
cd98
3b0c
ENDCHAR
STARTCHAR 347b
ENCODING 13435
SWIDTH 960 0
DWIDTH 14 0
BBX 14 14 0 -2
BITMAP
0000
7efc
66d0
66d0
7ed0
66d0
67fc
7e70
6870
6cd0
6ed0
7ab4
e334
061c
ENDCHAR
STARTCHAR 347c
ENCODING 13436
SWIDTH 960 0
DWIDTH 14 0
BBX 14 14 0 -2
BITMAP
3600
36f8
36d8
ffd8
36f8
3ed8
36d8
3ef8
36d8
ffd8
34d8
3698
6698
c338
ENDCHAR
STARTCHAR 347d
ENCODING 13437
SWIDTH 960 0
DWIDTH 14 0
BBX 14 14 0 -2
BITMAP
19b0
19b0
19b0
fffc
19b0
3df0
3ab0
3af0
69b0
6bfc
d9b0
1998
1b0c
1a0c
ENDCHAR
STARTCHAR 347e
ENCODING 13438
SWIDTH 960 0
DWIDTH 14 0
BBX 14 14 0 -2
BITMAP
0300
fffc
06c0
3fe0
1b70
fffc
1b60
1fe0
0300
fffc
0780
1d60
f33c
0300
ENDCHAR
STARTCHAR 3521
ENCODING 13601
SWIDTH 960 0
DWIDTH 14 0
BBX 14 14 0 -2
BITMAP
3358
3358
36f4
fed4
3358
3ad4
77fc
74d0
77fc
d668
d768
35b0
347c
39cc
ENDCHAR
STARTCHAR 3522
ENCODING 13602
SWIDTH 960 0
DWIDTH 14 0
BBX 14 14 0 -2
BITMAP
1800
1bf8
1818
1bf8
6818
6bf8
6800
dffc
1ccc
1bf8
1ad8
36d8
36d8
60c0
ENDCHAR
STARTCHAR 3523
ENCODING 13603
SWIDTH 960 0
DWIDTH 14 0
BBX 14 14 0 -2
BITMAP
1800
18f0
7f50
36d0
1cd4
ffb4
3b1c
edf8
36d8
ed50
3570
ec70
0dd8
3b0c
ENDCHAR
STARTCHAR 3524
ENCODING 13604
SWIDTH 960 0
DWIDTH 14 0
BBX 14 14 0 -2
BITMAP
1800
1800
3ff8
3000
6fe0
c000
7fe0
0360
0360
3a60
0e34
0d34
381c
e00c
ENDCHAR
STARTCHAR 3525
ENCODING 13605
SWIDTH 960 0
DWIDTH 14 0
BBX 14 14 0 -2
BITMAP
3300
1b00
1bf8
c600
6df0
6000
0ff0
0030
1830
1830
3034
301c
601c
600c
ENDCHAR
STARTCHAR 3526
ENCODING 13606
SWIDTH 960 0
DWIDTH 14 0
BBX 14 14 0 -2
BITMAP
3360
3568
edd8
3b70
3568
fffc
06ac
fffc
7e98
6ad8
7ed0
6a60
7ed4
639c
ENDCHAR
STARTCHAR 3527
ENCODING 13607
SWIDTH 960 0
DWIDTH 14 0
BBX 14 14 0 -2
BITMAP
1818
1870
19c0
fe80
0d80
19fc
1db0
3ab0
6ab0
d9b0
1b30
1b30
1a30
1c30
ENDCHAR
STARTCHAR 3528
ENCODING 13608
SWIDTH 960 0
DWIDTH 14 0
BBX 14 14 0 -2
BITMAP
00e0
3f80
0300
fffc
0780
0d40
3b70
efec
00c0
0380
fffc
0300
0300
0f00
ENDCHAR
STARTCHAR 3529
ENCODING 13609
SWIDTH 960 0
DWIDTH 14 0
BBX 14 14 0 -2
BITMAP
0630
1dd0
7870
1bd8
18c0
fffc
19a0
3df8
3ba8
6aa8
d9a8
19b8
1860
1860
ENDCHAR
STARTCHAR 352a
ENCODING 13610
SWIDTH 960 0
DWIDTH 14 0
BBX 14 14 0 -2
BITMAP
1800
19f8
1a18
f618
3418
1df8
3698
fd80
1980
6d80
6a80
6a8c
d98c
18fc
ENDCHAR
STARTCHAR 352b
ENCODING 13611
SWIDTH 960 0
DWIDTH 14 0
BBX 14 14 0 -2
BITMAP
3660
3aa0
6aa0
dfa0
34fc
3558
7dd8
e668
6d68
7fb0
6ab0
6b70
76d8
668c
ENDCHAR
STARTCHAR 352c
ENCODING 13612
SWIDTH 960 0
DWIDTH 14 0
BBX 14 14 0 -2
BITMAP
1800
1bf8
1b18
7ff8
1b18
1bf8
ff18
1bf8
1ba8
19a0
3560
356c
666c
cc3c
ENDCHAR
STARTCHAR 352d
ENCODING 13613
SWIDTH 960 0
DWIDTH 14 0
BBX 14 14 0 -2
BITMAP
0000
7ef8
0018
ff18
0018
7ef8
0198
7e80
0180
7e80
6680
668c
7e8c
66fc
ENDCHAR
STARTCHAR 352e
ENCODING 13614
SWIDTH 960 0
DWIDTH 14 0
BBX 14 14 0 -2
BITMAP
0300
1fe0
1b60
1fe0
0300
fffc
1860
1fe0
1860
1fe0
1860
1fe0
0ee0
7838
ENDCHAR
STARTCHAR 352f
ENCODING 13615
SWIDTH 960 0
DWIDTH 14 0
BBX 14 14 0 -2
BITMAP
1800
19f8
7e18
1818
1818
fff8
1998
6980
6f80
698c
798c
68fc
6e00
c3fc
ENDCHAR
STARTCHAR 3530
ENCODING 13616
SWIDTH 960 0
DWIDTH 14 0
BBX 14 14 0 -2
BITMAP
18c0
18c0
ff40
18f0
7fd0
6ad0
7ed0
6ad0
7ed0
18d0
ffb0
19b4
1b34
1a1c
ENDCHAR
STARTCHAR 3531
ENCODING 13617
SWIDTH 960 0
DWIDTH 14 0
BBX 14 14 0 -2
BITMAP
1800
1bfc
db68
6bfc
6c60
19f8
ffa8
35f8
35a8
35f8
3660
6dfc
6060
c060
ENDCHAR
STARTCHAR 3532
ENCODING 13618
SWIDTH 960 0
DWIDTH 14 0
BBX 14 14 0 -2
BITMAP
1800
19f0
35b0
3ab0
69b0
feb0
66b0
7eb0
66b0
7eb0
69b0
6d34
7b34
e61c
ENDCHAR
STARTCHAR 3533
ENCODING 13619
SWIDTH 960 0
DWIDTH 14 0
BBX 14 14 0 -2
BITMAP
0060
7f60
6bfc
7e60
68d0
7e98
6bfc
7e18
1ae8
7ea8
7ee8
76a8
c618
1c38
ENDCHAR
STARTCHAR 3534
ENCODING 13620
SWIDTH 960 0
DWIDTH 14 0
BBX 14 14 0 -2
BITMAP
0300
0600
3ff0
3330
3ff0
3330
3ff0
3530
0d60
0d60
1b50
1bfc
330c
61fc
ENDCHAR
STARTCHAR 3535
ENCODING 13621
SWIDTH 960 0
DWIDTH 14 0
BBX 14 14 0 -2
BITMAP
0600
07c0
1d80
ffe0
1b60
1fe0
1b60
3ff0
3330
3ff0
3330
3ff4
330c
01fc
ENDCHAR
STARTCHAR 3536
ENCODING 13622
SWIDTH 960 0
DWIDTH 14 0
BBX 14 14 0 -2
BITMAP
1ac0
1b40
1b40
37f0
31b0
71b0
d3f8
3318
37fc
3554
3dac
368c
360c
3038
ENDCHAR
STARTCHAR 3537
ENCODING 13623
SWIDTH 960 0
DWIDTH 14 0
BBX 14 14 0 -2
BITMAP
1b30
19a0
1ffc
30c0
37f8
70c0
d7fc
37a8
336c
3ffc
33a8
3730
336c
370c
ENDCHAR
STARTCHAR 3538
ENCODING 13624
SWIDTH 960 0
DWIDTH 14 0
BBX 14 14 0 -2
BITMAP
1860
1860
1bfc
1860
fe60
37f8
3698
3698
7cd0
6cd0
0e60
1ad0
3398
660c
ENDCHAR
STARTCHAR 3539
ENCODING 13625
SWIDTH 960 0
DWIDTH 14 0
BBX 14 14 0 -2
BITMAP
0300
0300
7ffc
6018
dfc0
18c0
18c0
1fc0
18c0
1fc0
18c0
18c0
fffc
0000
ENDCHAR
STARTCHAR 353a
ENCODING 13626
SWIDTH 960 0
DWIDTH 14 0
BBX 14 14 0 -2
BITMAP
0c70
0f68
0c68
7fa0
6f7c
7de0
6768
6a68
6ab0
7b30
7a74
6b5c
dd9c
700c
ENDCHAR
STARTCHAR 353b
ENCODING 13627
SWIDTH 960 0
DWIDTH 14 0
BBX 14 14 0 -2
BITMAP
30c0
30c0
30c0
fffc
30c0
30c0
37f8
3d18
f1b0
31b0
30e0
30e0
33b0
761c
ENDCHAR
STARTCHAR 353c
ENCODING 13628
SWIDTH 960 0
DWIDTH 14 0
BBX 14 14 0 -2
BITMAP
3400
35fc
3668
fdb0
37b0
36fc
37b8
3d50
f7dc
3350
3750
36f0
35b0
7b1c
ENDCHAR
STARTCHAR 353d
ENCODING 13629
SWIDTH 960 0
DWIDTH 14 0
BBX 14 14 0 -2
BITMAP
36c0
36c0
36c0
ff40
36fc
3ea8
3770
3e60
3660
ff60
36d0
33b0
6318
c60c
ENDCHAR
STARTCHAR 353e
ENCODING 13630
SWIDTH 960 0
DWIDTH 14 0
BBX 14 14 0 -2
BITMAP
1b30
19a0
6bfc
68c0
7df8
68c0
dbfc
1de8
39ac
effc
19e8
1bb4
19ac
1bcc
ENDCHAR
STARTCHAR 353f
ENCODING 13631
SWIDTH 960 0
DWIDTH 14 0
BBX 14 14 0 -2
BITMAP
6000
6ff8
79b0
66e0
3e60
33fc
3e68
69b0
fea0
19b8
35a0
3760
6670
cc1c
ENDCHAR
STARTCHAR 3540
ENCODING 13632
SWIDTH 960 0
DWIDTH 14 0
BBX 14 14 0 -2
BITMAP
3018
3070
33e0
fd60
0d60
1b60
1bfc
3b60
7530
d534
3334
33dc
361c
300c
ENDCHAR
STARTCHAR 3541
ENCODING 13633
SWIDTH 960 0
DWIDTH 14 0
BBX 14 14 0 -2
BITMAP
0cc0
7ff8
0300
3ff0
0300
fffc
0eb0
7998
fffc
18d8
1ed0
f86c
19d4
3b1c
ENDCHAR
STARTCHAR 3542
ENCODING 13634
SWIDTH 960 0
DWIDTH 14 0
BBX 14 14 0 -2
BITMAP
31b0
37fc
30c0
fdf8
d4c0
d7fc
d5a8
ffac
d7fc
39a8
35d8
3fb4
e1ec
038c
ENDCHAR
STARTCHAR 3543
ENCODING 13635
SWIDTH 960 0
DWIDTH 14 0
BBX 14 14 0 -2
BITMAP
00c0
7cc0
07fc
fe18
07f0
7d30
0330
7df0
0330
7df0
6d30
6d30
7ffc
6000
ENDCHAR
STARTCHAR 3544
ENCODING 13636
SWIDTH 960 0
DWIDTH 14 0
BBX 14 14 0 -2
BITMAP
0330
79a0
0ffc
f8c0
07f8
78c0
0ffc
7ba8
036c
7ffc
6ba8
6f34
7b6c
6b0c
ENDCHAR
STARTCHAR 3545
ENCODING 13637
SWIDTH 960 0
DWIDTH 14 0
BBX 14 14 0 -2
BITMAP
3300
3300
3300
fff8
3698
35a8
36a8
3ad8
f7f8
33d8
33a8
36b8
3598
71b0
ENDCHAR
STARTCHAR 3546
ENCODING 13638
SWIDTH 960 0
DWIDTH 14 0
BBX 14 14 0 -2
BITMAP
0cc0
0cc0
fffc
1cc0
1800
3ff8
36d8
6ad8
da98
7fe8
0f18
1ad8
7668
0670
ENDCHAR
STARTCHAR 3547
ENCODING 13639
SWIDTH 960 0
DWIDTH 14 0
BBX 14 14 0 -2
BITMAP
3580
3580
fff8
35d8
3d58
1b58
7ee8
6bf8
7ee8
19d8
ff58
1ad8
18d8
1870
ENDCHAR
STARTCHAR 3548
ENCODING 13640
SWIDTH 960 0
DWIDTH 14 0
BBX 14 14 0 -2
BITMAP
0300
0300
0300
fffc
0300
0300
7ff8
0000
3ff0
3030
3030
3030
3ff0
3030
ENDCHAR
STARTCHAR 3549
ENCODING 13641
SWIDTH 960 0
DWIDTH 14 0
BBX 14 14 0 -2
BITMAP
0300
0300
0300
fbfc
da00
da00
ddf0
d860
d8c0
f980
db00
c60c
060c
03fc
ENDCHAR
STARTCHAR 354a
ENCODING 13642
SWIDTH 960 0
DWIDTH 14 0
BBX 14 14 0 -2
BITMAP
0600
06f8
ffa8
d668
dfa8
d668
d7d8
ded8
d180
fffc
d180
c340
0e70
381c
ENDCHAR
STARTCHAR 354b
ENCODING 13643
SWIDTH 960 0
DWIDTH 14 0
BBX 14 14 0 -2
BITMAP
18c0
18c0
18c0
fffc
18c0
3cc0
3bf8
3a00
6bf8
6b18
db18
1b18
1bf8
1b18
ENDCHAR
STARTCHAR 354c
ENCODING 13644
SWIDTH 960 0
DWIDTH 14 0
BBX 14 14 0 -2
BITMAP
3000
37f0
31a0
fffc
31d8
3b50
75c0
77f8
76a8
d778
d6e8
36a8
36e8
3638
ENDCHAR
STARTCHAR 354d
ENCODING 13645
SWIDTH 960 0
DWIDTH 14 0
BBX 14 14 0 -2
BITMAP
00c0
7cc0
00c0
fffc
00c0
7cc0
03f8
7c00
03f8
7d18
6d18
6d18
7df8
6d18
ENDCHAR
STARTCHAR 354e
ENCODING 13646
SWIDTH 960 0
DWIDTH 14 0
BBX 14 14 0 -2
BITMAP
0060
7f60
1860
187c
1860
3060
3e60
76f8
d698
3698
3698
3e98
31f8
0198
ENDCHAR
STARTCHAR 354f
ENCODING 13647
SWIDTH 960 0
DWIDTH 14 0
BBX 14 14 0 -2
BITMAP
1980
1980
1980
fffc
1b60
3a60
3c60
3bfc
6a60
6860
d860
1860
1860
1860
ENDCHAR
STARTCHAR 3550
ENCODING 13648
SWIDTH 960 0
DWIDTH 14 0
BBX 14 14 0 -2
BITMAP
0070
3fc0
0300
fffc
0780
1d60
f33c
0780
1d60
fb7c
0fc0
1d60
7338
0700
ENDCHAR
STARTCHAR 3551
ENCODING 13649
SWIDTH 960 0
DWIDTH 14 0
BBX 14 14 0 -2
BITMAP
1800
18f8
18d8
7f58
18d8
18d8
ffd8
18d8
1cd8
36d8
3770
fd40
0340
00c0
ENDCHAR
STARTCHAR 3552
ENCODING 13650
SWIDTH 960 0
DWIDTH 14 0
BBX 14 14 0 -2
BITMAP
0300
0300
7ffc
6618
cfe0
1cc0
7680
0780
1cf0
ffec
1860
1860
1fe0
1860
ENDCHAR
STARTCHAR 3553
ENCODING 13651
SWIDTH 960 0
DWIDTH 14 0
BBX 14 14 0 -2
BITMAP
0300
7b78
6b68
6fe8
7b68
6b68
6fe8
7b68
6b68
6aa8
6af8
6f60
6860
d860
ENDCHAR
STARTCHAR 3554
ENCODING 13652
SWIDTH 960 0
DWIDTH 14 0
BBX 14 14 0 -2
BITMAP
0300
03f8
0300
3ffc
36e8
3f30
33f0
3000
37f8
3400
6ff8
6c00
cff8
0c00
ENDCHAR
STARTCHAR 3555
ENCODING 13653
SWIDTH 960 0
DWIDTH 14 0
BBX 14 14 0 -2
BITMAP
0630
6330
3360
37fc
00c0
06d8
06d8
f6d8
37f8
36d8
30c0
3980
6f00
c3fc
ENDCHAR
STARTCHAR 3556
ENCODING 13654
SWIDTH 960 0
DWIDTH 14 0
BBX 14 14 0 -2
BITMAP
0060
01c0
1f00
1800
1800
1ff8
18c0
18c0
18c0
18c0
18c0
18c0
fffc
0000
ENDCHAR
STARTCHAR 3557
ENCODING 13655
SWIDTH 960 0
DWIDTH 14 0
BBX 14 14 0 -2
BITMAP
0600
0600
0600
07e0
0c60
0c60
18c0
30c0
61c0
0360
0660
0c30
3818
e00c
ENDCHAR
STARTCHAR 3558
ENCODING 13656
SWIDTH 960 0
DWIDTH 14 0
BBX 14 14 0 -2
BITMAP
1b00
1b00
1b00
3300
33e0
7f60
d360
3360
3360
3360
366c
366c
346c
383c
ENDCHAR
STARTCHAR 3559
ENCODING 13657
SWIDTH 960 0
DWIDTH 14 0
BBX 14 14 0 -2
BITMAP
18c0
18c0
18c0
30c0
37fc
70c0
d1e0
31e0
3350
3350
36d8
34cc
30c0
30c0
ENDCHAR
STARTCHAR 355a
ENCODING 13658
SWIDTH 960 0
DWIDTH 14 0
BBX 14 14 0 -2
BITMAP
0000
7fe0
0c60
0cc0
0cc0
0ef0
1a30
1b30
1b60
19a0
30c0
31a0
6730
dc1c
ENDCHAR
STARTCHAR 355b
ENCODING 13659
SWIDTH 960 0
DWIDTH 14 0
BBX 14 14 0 -2
BITMAP
0000
0ff0
fb30
db60
db60
dbf8
db98
db98
fad0
dad0
c660
0cd0
1b98
360c
ENDCHAR
STARTCHAR 355c
ENCODING 13660
SWIDTH 960 0
DWIDTH 14 0
BBX 14 14 0 -2
BITMAP
0300
0300
7ffc
6018
dfe0
1860
1860
1fe0
0300
3ff0
3030
3030
3ff0
3030
ENDCHAR
STARTCHAR 355d
ENCODING 13661
SWIDTH 960 0
DWIDTH 14 0
BBX 14 14 0 -2
BITMAP
0000
3ff0
0030
0030
3ff0
3030
3000
3ff8
3018
3018
0018
0018
0030
01e0
ENDCHAR
STARTCHAR 355e
ENCODING 13662
SWIDTH 960 0
DWIDTH 14 0
BBX 14 14 0 -2
BITMAP
0600
0fc0
1980
7ff0
0030
1ff0
0030
3ff0
0300
35b0
3598
6c6c
cc6c
07e0
ENDCHAR
STARTCHAR 355f
ENCODING 13663
SWIDTH 960 0
DWIDTH 14 0
BBX 14 14 0 -2
BITMAP
18c0
1ac0
1b40
ff7c
1998
da98
6b50
6cd0
3c70
3a60
6a70
d8d0
1998
3b0c
ENDCHAR
STARTCHAR 3560
ENCODING 13664
SWIDTH 960 0
DWIDTH 14 0
BBX 14 14 0 -2
BITMAP
1800
1bfc
18c0
ff40
18c0
3df8
3a98
3a98
6b18
6818
d818
1818
1818
1870
ENDCHAR
STARTCHAR 3561
ENCODING 13665
SWIDTH 960 0
DWIDTH 14 0
BBX 14 14 0 -2
BITMAP
0360
0330
0330
fffc
0300
0398
7398
1b50
0760
0d60
3b30
e318
030c
0700
ENDCHAR
STARTCHAR 3562
ENCODING 13666
SWIDTH 960 0
DWIDTH 14 0
BBX 14 14 0 -2
BITMAP
6000
37f0
3630
c660
6660
6778
0718
36b0
36b0
36e0
6c60
6cd0
d998
d70c
ENDCHAR
STARTCHAR 3563
ENCODING 13667
SWIDTH 960 0
DWIDTH 14 0
BBX 14 14 0 -2
BITMAP
30c0
18c0
18c0
cffc
6030
6630
0330
1b30
19b0
31a0
31a0
60c0
6ffc
6000
ENDCHAR
STARTCHAR 3564
ENCODING 13668
SWIDTH 960 0
DWIDTH 14 0
BBX 14 14 0 -2
BITMAP
0300
07c0
1d80
7380
06c0
1d70
f31c
0330
3330
36a0
66c0
0c60
3830
e01c
ENDCHAR
STARTCHAR 3565
ENCODING 13669
SWIDTH 960 0
DWIDTH 14 0
BBX 14 14 0 -2
BITMAP
00d0
00d8
fcd8
37fc
30c0
36d8
fd68
3370
30d0
35d0
3b58
eecc
00c0
01c0
ENDCHAR
STARTCHAR 3566
ENCODING 13670
SWIDTH 960 0
DWIDTH 14 0
BBX 14 14 0 -2
BITMAP
0300
0300
7ffc
6d98
cd80
0d98
1b78
3300
7fc0
06c0
06c0
0ccc
18cc
707c
ENDCHAR
STARTCHAR 3567
ENCODING 13671
SWIDTH 960 0
DWIDTH 14 0
BBX 14 14 0 -2
BITMAP
0300
7ffc
6d98
d9b0
34f0
3ef0
3630
3ef0
3e80
36f8
fe98
0e18
3a18
ee70
ENDCHAR
STARTCHAR 3568
ENCODING 13672
SWIDTH 960 0
DWIDTH 14 0
BBX 14 14 0 -2
BITMAP
18c0
18c0
3ffc
35a0
6730
dfe0
0c60
0cc0
0ef0
1a30
1b60
31c0
6760
dc3c
ENDCHAR
STARTCHAR 3569
ENCODING 13673
SWIDTH 960 0
DWIDTH 14 0
BBX 14 14 0 -2
BITMAP
1800
19f8
1a98
f6b0
35b0
1db8
36d8
fed8
19a8
6db0
6ab0
6b70
db58
1a8c
ENDCHAR
STARTCHAR 356a
ENCODING 13674
SWIDTH 960 0
DWIDTH 14 0
BBX 14 14 0 -2
BITMAP
1830
19b0
1ab0
f6b0
35b0
1db0
36b0
fdb0
19bc
6df0
6bb0
6a30
d830
1830
ENDCHAR
STARTCHAR 356b
ENCODING 13675
SWIDTH 960 0
DWIDTH 14 0
BBX 14 14 0 -2
BITMAP
1860
1860
1ad0
f6d0
3598
1dfc
3600
fe00
19f8
6d98
6a98
6a98
d9f8
1998
ENDCHAR
STARTCHAR 356c
ENCODING 13676
SWIDTH 960 0
DWIDTH 14 0
BBX 14 14 0 -2
BITMAP
6000
6ff0
6c30
6c30
6c30
6c30
6ff0
6c30
6c30
6c30
6c30
6ff0
6c30
6000
ENDCHAR
STARTCHAR 356d
ENCODING 13677
SWIDTH 960 0
DWIDTH 14 0
BBX 14 14 0 -2
BITMAP
0300
1b00
1b00
1b00
3ff0
3300
6300
0300
fffc
0300
0300
0300
0300
0300
ENDCHAR
STARTCHAR 356e
ENCODING 13678
SWIDTH 960 0
DWIDTH 14 0
BBX 14 14 0 -2
BITMAP
0300
0300
0300
3ff0
0300
0300
0300
fffc
0600
06c0
0c60
19f0
7f18
0018
ENDCHAR
STARTCHAR 356f
ENCODING 13679
SWIDTH 960 0
DWIDTH 14 0
BBX 14 14 0 -2
BITMAP
0000
3ff8
3018
3ff8
3198
3180
3ffc
3180
3180
37f0
6c30
6c30
cff0
0c30
ENDCHAR
STARTCHAR 3570
ENCODING 13680
SWIDTH 960 0
DWIDTH 14 0
BBX 14 14 0 -2
BITMAP
0000
7ff8
6000
6000
7fe0
6060
6060
6060
7fe0
6060
6000
6000
7ffc
6000
ENDCHAR
STARTCHAR 3571
ENCODING 13681
SWIDTH 960 0
DWIDTH 14 0
BBX 14 14 0 -2
BITMAP
1800
1bfc
1b00
ff00
1bf8
1b18
1b18
1f18
fbf8
1b18
1b00
1b00
1bfc
3b00
ENDCHAR
STARTCHAR 3572
ENCODING 13682
SWIDTH 960 0
DWIDTH 14 0
BBX 14 14 0 -2
BITMAP
3000
36f0
36d0
fad0
3750
3550
3550
3b50
f6b0
36b4
3534
3b1c
31c0
707c
ENDCHAR
STARTCHAR 3573
ENCODING 13683
SWIDTH 960 0
DWIDTH 14 0
BBX 14 14 0 -2
BITMAP
3630
1b30
1b60
fffc
0cc0
18e0
3fb8
e30c
3ff0
0300
7ff8
0300
0300
0700
ENDCHAR
STARTCHAR 3574
ENCODING 13684
SWIDTH 960 0
DWIDTH 14 0
BBX 14 14 0 -2
BITMAP
3000
1bf8
da00
67f0
6630
1bf0
1a00
37f8
6300
fffc
0780
1d60
f33c
0300
ENDCHAR
STARTCHAR 3575
ENCODING 13685
SWIDTH 960 0
DWIDTH 14 0
BBX 14 14 0 -2
BITMAP
0300
03f8
0300
3ffc
33e8
3f18
33f8
3340
3b58
3558
6d50
6340
dffc
0000
ENDCHAR
STARTCHAR 3576
ENCODING 13686
SWIDTH 960 0
DWIDTH 14 0
BBX 14 14 0 -2
BITMAP
0180
7d80
0180
fff8
0340
7ec0
00c0
7ffc
00c0
7cc0
6cc0
6cc0
7cc0
6cc0
ENDCHAR
STARTCHAR 3577
ENCODING 13687
SWIDTH 960 0
DWIDTH 14 0
BBX 14 14 0 -2
BITMAP
0000
7efc
6680
6680
7ef8
1998
6998
6e98
69f8
6998
6980
6e80
79fc
e180
ENDCHAR
STARTCHAR 3578
ENCODING 13688
SWIDTH 960 0
DWIDTH 14 0
BBX 14 14 0 -2
BITMAP
1800
1bf8
3518
3718
67f8
dd60
1bfc
ff60
1b60
6bf8
3d98
3b98
1ef8
f198
ENDCHAR
STARTCHAR 3579
ENCODING 13689
SWIDTH 960 0
DWIDTH 14 0
BBX 14 14 0 -2
BITMAP
3180
1980
1bf0
c360
66c0
6ff8
06d8
37f8
36d8
37f8
6000
6d58
cdac
d9ac
ENDCHAR
STARTCHAR 357a
ENCODING 13690
SWIDTH 960 0
DWIDTH 14 0
BBX 14 14 0 -2
BITMAP
3600
37f8
6d68
dfe8
3368
75e8
d568
35f8
3e60
3ff0
0000
fffc
3b70
e71c
ENDCHAR
STARTCHAR 357b
ENCODING 13691
SWIDTH 960 0
DWIDTH 14 0
BBX 14 14 0 -2
BITMAP
0c00
0fc0
1980
3300
7ff0
d330
3ff0
3330
3330
3ff0
0000
6d98
66cc
c6cc
ENDCHAR
STARTCHAR 357c
ENCODING 13692
SWIDTH 960 0
DWIDTH 14 0
BBX 14 14 0 -2
BITMAP
0300
fffc
0000
1fe0
1860
1fe0
0000
3fe0
00c0
0380
0300
0300
0300
0700
ENDCHAR
STARTCHAR 357d
ENCODING 13693
SWIDTH 960 0
DWIDTH 14 0
BBX 14 14 0 -2
BITMAP
0300
fffc
0000
1fe0
1860
1fe0
0000
3fe0
00c0
0380
fffc
0300
0300
0700
ENDCHAR
STARTCHAR 357e
ENCODING 13694
SWIDTH 960 0
DWIDTH 14 0
BBX 14 14 0 -2
BITMAP
0300
0300
fffc
0000
1fe0
1860
1860
1fe0
0300
1b60
1b30
3318
6318
0700
ENDCHAR
STARTCHAR 3621
ENCODING 13857
SWIDTH 960 0
DWIDTH 14 0
BBX 14 14 0 -2
BITMAP
1b60
1b60
1b60
3360
37f8
7360
d360
3360
3ffc
3000
3360
3330
3618
3418
ENDCHAR
STARTCHAR 3622
ENCODING 13858
SWIDTH 960 0
DWIDTH 14 0
BBX 14 14 0 -2
BITMAP
18c0
18c0
18c0
37fc
36d8
7358
d350
3ffc
30c0
31a0
31a0
3330
3618
340c
ENDCHAR
STARTCHAR 3623
ENCODING 13859
SWIDTH 960 0
DWIDTH 14 0
BBX 14 14 0 -2
BITMAP
1870
1bc0
1980
3ffc
3360
77f0
d568
3bec
37f8
3418
35e8
3568
35e8
3438
ENDCHAR
STARTCHAR 3624
ENCODING 13860
SWIDTH 960 0
DWIDTH 14 0
BBX 14 14 0 -2
BITMAP
0180
61b0
6d30
6730
66b0
6db0
6830
7ff0
6db0
0d80
1980
198c
318c
e0fc
ENDCHAR
STARTCHAR 3625
ENCODING 13861
SWIDTH 960 0
DWIDTH 14 0
BBX 14 14 0 -2
BITMAP
1860
1860
7ff8
34d0
34d0
fffc
0000
7ef8
6698
7ef8
34d0
3550
6eb4
cd1c
ENDCHAR
STARTCHAR 3626
ENCODING 13862
SWIDTH 960 0
DWIDTH 14 0
BBX 14 14 0 -2
BITMAP
0cc0
0cc0
0cc0
0cc0
7ff8
0cc0
0cc0
0cc0
fffc
0000
0cc0
0c60
1830
7030
ENDCHAR
STARTCHAR 3627
ENCODING 13863
SWIDTH 960 0
DWIDTH 14 0
BBX 14 14 0 -2
BITMAP
00c0
00c0
c0d8
d998
ce98
c318
c398
c6d8
cc68
d868
d018
fff8
c018
c018
ENDCHAR
STARTCHAR 3628
ENCODING 13864
SWIDTH 960 0
DWIDTH 14 0
BBX 14 14 0 -2
BITMAP
30c0
30c0
37f8
30d8
fd98
3318
3670
3630
3ffc
36b4
36b4
35ac
35ac
3bdc
ENDCHAR
STARTCHAR 3629
ENCODING 13865
SWIDTH 960 0
DWIDTH 14 0
BBX 14 14 0 -2
BITMAP
0000
7ffc
6000
6ff8
6180
6180
6ff0
6180
6180
6180
6ff8
6000
7ffc
6000
ENDCHAR
STARTCHAR 362a
ENCODING 13866
SWIDTH 960 0
DWIDTH 14 0
BBX 14 14 0 -2
BITMAP
1800
77b8
66a8
6aa8
6ba8
6aa8
6aa8
6ba8
6a68
7b68
eaa8
37f0
3660
6060
ENDCHAR
STARTCHAR 362b
ENCODING 13867
SWIDTH 960 0
DWIDTH 14 0
BBX 14 14 0 -2
BITMAP
0030
0030
fb30
db30
db30
db30
db30
db30
db3c
fbf0
df30
c030
0030
0030
ENDCHAR
STARTCHAR 362c
ENCODING 13868
SWIDTH 960 0
DWIDTH 14 0
BBX 14 14 0 -2
BITMAP
00e0
1f80
0300
fffc
0cc0
3ff0
ecdc
0fc0
7ff8
6018
6fd8
6cd8
6fd8
6038
ENDCHAR
STARTCHAR 362d
ENCODING 13869
SWIDTH 960 0
DWIDTH 14 0
BBX 14 14 0 -2
BITMAP
00c0
37f8
3360
31a0
fffc
3000
33f0
3330
35f0
3b30
e3f0
01a0
076c
1c3c
ENDCHAR
STARTCHAR 362e
ENCODING 13870
SWIDTH 960 0
DWIDTH 14 0
BBX 14 14 0 -2
BITMAP
00c0
30c0
37f8
30c0
d6d8
d558
d550
d7fc
d4c0
fda0
cdb0
c330
0618
1c0c
ENDCHAR
STARTCHAR 362f
ENCODING 13871
SWIDTH 960 0
DWIDTH 14 0
BBX 14 14 0 -2
BITMAP
00c0
f8d0
1998
1ffc
f8cc
dbf8
c6d8
fad8
dbf8
dad0
18d8
18fc
37cc
e00c
ENDCHAR
STARTCHAR 3630
ENCODING 13872
SWIDTH 960 0
DWIDTH 14 0
BBX 14 14 0 -2
BITMAP
0000
fbf8
1b50
1bf0
fb50
dbf0
c000
fbf8
db50
dbf0
1b50
1bf0
37fc
e000
ENDCHAR
STARTCHAR 3631
ENCODING 13873
SWIDTH 960 0
DWIDTH 14 0
BBX 14 14 0 -2
BITMAP
30c0
30c0
30c0
37f8
78c0
74c0
74c0
d7fc
30c0
31b0
3198
3378
37cc
300c
ENDCHAR
STARTCHAR 3632
ENCODING 13874
SWIDTH 960 0
DWIDTH 14 0
BBX 14 14 0 -2
BITMAP
0000
fff0
1b30
1b30
1bb0
1f54
f6d4
0c1c
0300
35b0
3598
6c6c
cc6c
07e0
ENDCHAR
STARTCHAR 3633
ENCODING 13875
SWIDTH 960 0
DWIDTH 14 0
BBX 14 14 0 -2
BITMAP
0cc0
0cc0
7ff8
0cc0
0cc0
fffc
0cc0
1a60
3630
e61c
36b0
36d8
66d8
0e00
ENDCHAR
STARTCHAR 3634
ENCODING 13876
SWIDTH 960 0
DWIDTH 14 0
BBX 14 14 0 -2
BITMAP
30c0
30c0
37fc
f8c0
36d8
3358
3350
3ffc
f0c0
31a0
31b0
3330
3618
740c
ENDCHAR
STARTCHAR 3635
ENCODING 13877
SWIDTH 960 0
DWIDTH 14 0
BBX 14 14 0 -2
BITMAP
18c0
1b40
7f40
1ac0
1afc
ff98
1b98
3f58
66d0
cf70
7c60
0cd0
0d98
1e0c
ENDCHAR
STARTCHAR 3636
ENCODING 13878
SWIDTH 960 0
DWIDTH 14 0
BBX 14 14 0 -2
BITMAP
3038
37e0
30c0
fffc
31a0
3bf0
76a8
75ec
77f8
d618
d6e8
36a8
36e8
3638
ENDCHAR
STARTCHAR 3637
ENCODING 13879
SWIDTH 960 0
DWIDTH 14 0
BBX 14 14 0 -2
BITMAP
3000
1bf8
1a18
c618
6618
67f8
06a8
31a0
31a0
3360
6360
666c
cc6c
d83c
ENDCHAR
STARTCHAR 3638
ENCODING 13880
SWIDTH 960 0
DWIDTH 14 0
BBX 14 14 0 -2
BITMAP
1800
dffc
70c0
30c0
70c0
d8c0
1bf8
38c0
68c0
d8c0
18c0
18c0
7ffc
3000
ENDCHAR
STARTCHAR 3639
ENCODING 13881
SWIDTH 960 0
DWIDTH 14 0
BBX 14 14 0 -2
BITMAP
0cc0
ccc0
68c0
37fc
76d8
db58
1b50
3ffc
68c0
d9a0
19a0
1b30
7618
340c
ENDCHAR
STARTCHAR 363a
ENCODING 13882
SWIDTH 960 0
DWIDTH 14 0
BBX 14 14 0 -2
BITMAP
3038
37e0
30c0
7ffc
69a0
dbf0
1aa8
feec
1bf8
1e18
36e8
36a8
66e8
c638
ENDCHAR
STARTCHAR 363b
ENCODING 13883
SWIDTH 960 0
DWIDTH 14 0
BBX 14 14 0 -2
BITMAP
0180
7d80
6d80
6dfc
6d6c
7e6c
6dd4
6d74
7db4
6d34
6df4
6d34
6c0c
dc38
ENDCHAR
STARTCHAR 363c
ENCODING 13884
SWIDTH 960 0
DWIDTH 14 0
BBX 14 14 0 -2
BITMAP
0600
1fc0
06c0
1dc0
fff8
36d8
6eb8
dfe0
1860
1fe0
1860
1fe0
1860
18e0
ENDCHAR
STARTCHAR 363d
ENCODING 13885
SWIDTH 960 0
DWIDTH 14 0
BBX 14 14 0 -2
BITMAP
1800
77f8
6cd8
6fd8
7cf8
6fd8
7ef8
6fd8
6cd8
fffc
0000
0ce0
3830
e018
ENDCHAR
STARTCHAR 363e
ENCODING 13886
SWIDTH 960 0
DWIDTH 14 0
BBX 14 14 0 -2
BITMAP
0cc0
fffc
0ce0
3fc0
0300
7ff8
0ec0
3ff0
ecdc
3ff0
37d0
34d0
37d0
3070
ENDCHAR
STARTCHAR 363f
ENCODING 13887
SWIDTH 960 0
DWIDTH 14 0
BBX 14 14 0 -2
BITMAP
3000
37b8
36a8
eea8
6bb0
3ab0
36a8
3ba8
6b6c
faac
36ec
3778
6c60
c060
ENDCHAR
STARTCHAR 3640
ENCODING 13888
SWIDTH 960 0
DWIDTH 14 0
BBX 14 14 0 -2
BITMAP
1860
1bf8
35b0
37fc
6600
ddf8
1998
fef8
1998
6af8
3cd0
38d4
1eb4
f71c
ENDCHAR
STARTCHAR 3641
ENCODING 13889
SWIDTH 960 0
DWIDTH 14 0
BBX 14 14 0 -2
BITMAP
37b8
eaa8
6bb8
3fac
eaf8
3760
7ff8
0cc0
fffc
1860
1fe0
1860
1fe0
1860
ENDCHAR
STARTCHAR 3642
ENCODING 13890
SWIDTH 960 0
DWIDTH 14 0
BBX 14 14 0 -2
BITMAP
37b8
daa8
6bb0
36a8
ffac
1b78
77a0
0d40
3ff0
ecdc
0fc0
0db0
0f60
7838
ENDCHAR
STARTCHAR 3643
ENCODING 13891
SWIDTH 960 0
DWIDTH 14 0
BBX 14 14 0 -2
BITMAP
34c0
ff40
35fc
7f58
fa70
6adc
7ff0
1980
1fe0
1980
1ff8
6ad8
6d68
c070
ENDCHAR
STARTCHAR 3644
ENCODING 13892
SWIDTH 960 0
DWIDTH 14 0
BBX 14 14 0 -2
BITMAP
18c0
1980
1b78
36d8
36d8
76d8
d6d8
36d8
36d8
37d8
3ef0
30c0
30c0
30c0
ENDCHAR
STARTCHAR 3645
ENCODING 13893
SWIDTH 960 0
DWIDTH 14 0
BBX 14 14 0 -2
BITMAP
1800
1bfc
de18
69b0
6fb0
0cfc
37b8
3ad0
66dc
7fd0
ced0
cd70
d9b0
331c
ENDCHAR
STARTCHAR 3646
ENCODING 13894
SWIDTH 960 0
DWIDTH 14 0
BBX 14 14 0 -2
BITMAP
0300
0300
7ff8
0300
1b60
fffc
1860
1860
fffc
0d80
0d80
198c
318c
e0fc
ENDCHAR
STARTCHAR 3647
ENCODING 13895
SWIDTH 960 0
DWIDTH 14 0
BBX 14 14 0 -2
BITMAP
00c0
00c0
fbf8
d8c0
db50
dffc
fb30
db30
dffc
d9a0
f9a0
db6c
c66c
1c3c
ENDCHAR
STARTCHAR 3648
ENCODING 13896
SWIDTH 960 0
DWIDTH 14 0
BBX 14 14 0 -2
BITMAP
0680
36b0
1aa0
fffc
0cc0
7ff8
0300
3ff0
0300
fffc
0780
1d60
f33c
0300
ENDCHAR
STARTCHAR 3649
ENCODING 13897
SWIDTH 960 0
DWIDTH 14 0
BBX 14 14 0 -2
BITMAP
0000
3ff8
3018
3018
3ff8
3000
3ffc
300c
37ec
366c
366c
67ec
666c
c038
ENDCHAR
STARTCHAR 364a
ENCODING 13898
SWIDTH 960 0
DWIDTH 14 0
BBX 14 14 0 -2
BITMAP
0cc0
0cc0
0cc0
7ff8
6cd8
6cd8
6cd8
7ff8
6cd8
6cd8
6cd8
7ff8
6018
6018
ENDCHAR
STARTCHAR 364b
ENCODING 13899
SWIDTH 960 0
DWIDTH 14 0
BBX 14 14 0 -2
BITMAP
3000
37fc
3180
fd80
33dc
336c
7bb4
76a8
76a8
d7b4
d66c
30c0
37fc
3000
ENDCHAR
STARTCHAR 364c
ENCODING 13900
SWIDTH 960 0
DWIDTH 14 0
BBX 14 14 0 -2
BITMAP
0000
7ff8
0300
0300
0300
0300
3ff0
0300
0360
0330
0330
0300
fffc
0000
ENDCHAR
STARTCHAR 364d
ENCODING 13901
SWIDTH 960 0
DWIDTH 14 0
BBX 14 14 0 -2
BITMAP
3000
37f8
3618
fe18
37f8
3618
7ae8
76a8
76a8
d6e8
d6a8
3618
3618
3638
ENDCHAR
STARTCHAR 364e
ENCODING 13902
SWIDTH 960 0
DWIDTH 14 0
BBX 14 14 0 -2
BITMAP
1818
da30
6ae0
6c60
1860
fe60
1bfc
3c60
3a60
6a60
d860
1860
1860
1860
ENDCHAR
STARTCHAR 364f
ENCODING 13903
SWIDTH 960 0
DWIDTH 14 0
BBX 14 14 0 -2
BITMAP
1b30
1b30
1ffc
3330
37f8
76d8
d7f8
30c0
37f8
30c0
37f8
30c0
37fc
3000
ENDCHAR
STARTCHAR 3650
ENCODING 13904
SWIDTH 960 0
DWIDTH 14 0
BBX 14 14 0 -2
BITMAP
34c0
ff40
34c0
7ec0
6bf8
6ad8
7ed8
18d8
7ed8
18d8
7ed8
1998
1e98
fb70
ENDCHAR
STARTCHAR 3651
ENCODING 13905
SWIDTH 960 0
DWIDTH 14 0
BBX 14 14 0 -2
BITMAP
0300
3300
3300
33f8
fe18
3718
3598
3198
3068
35d8
3b18
e018
0018
0070
ENDCHAR
STARTCHAR 3652
ENCODING 13906
SWIDTH 960 0
DWIDTH 14 0
BBX 14 14 0 -2
BITMAP
0300
0300
0300
7ff8
6318
6318
6318
6318
6318
6318
6318
6370
0300
0300
ENDCHAR
STARTCHAR 3653
ENCODING 13907
SWIDTH 960 0
DWIDTH 14 0
BBX 14 14 0 -2
BITMAP
1860
18c0
35f8
3698
66f8
dd98
19f8
fe60
1bfc
6b6c
3d6c
3b6c
1f78
f060
ENDCHAR
STARTCHAR 3654
ENCODING 13908
SWIDTH 960 0
DWIDTH 14 0
BBX 14 14 0 -2
BITMAP
0030
00e0
1f80
1800
1800
1ffc
18c0
18c0
18c0
30c0
30c0
60c0
c0c0
00c0
ENDCHAR
STARTCHAR 3655
ENCODING 13909
SWIDTH 960 0
DWIDTH 14 0
BBX 14 14 0 -2
BITMAP
0340
06c0
3cc0
30c0
31fc
3fa8
3570
3460
3460
34e0
6cd0
6db0
cd18
0e0c
ENDCHAR
STARTCHAR 3656
ENCODING 13910
SWIDTH 960 0
DWIDTH 14 0
BBX 14 14 0 -2
BITMAP
18c0
18c0
34c0
36c0
66fc
dda8
1b70
fe60
1860
6ae0
3cd0
39b0
1f18
f60c
ENDCHAR
STARTCHAR 3657
ENCODING 13911
SWIDTH 960 0
DWIDTH 14 0
BBX 14 14 0 -2
BITMAP
0000
7ef8
1860
7ef8
1860
1ffc
f680
0cc0
3ff0
e01c
1fe0
00c0
0180
0300
ENDCHAR
STARTCHAR 3658
ENCODING 13912
SWIDTH 960 0
DWIDTH 14 0
BBX 14 14 0 -2
BITMAP
1860
1860
fffc
3ce0
3af0
6aa8
db6c
1fe0
0000
fffc
1b60
3330
e318
0700
ENDCHAR
STARTCHAR 3659
ENCODING 13913
SWIDTH 960 0
DWIDTH 14 0
BBX 14 14 0 -2
BITMAP
0300
0680
0d40
3ff0
eaac
1ba0
1ee0
1fe0
0300
3ff0
36b0
3fd0
30d0
3070
ENDCHAR
STARTCHAR 365a
ENCODING 13914
SWIDTH 960 0
DWIDTH 14 0
BBX 14 14 0 -2
BITMAP
18c0
18c0
3ffc
35a0
6730
c0c0
3ec0
37f8
3ed8
36d8
3ed8
6698
6698
cf70
ENDCHAR
STARTCHAR 365b
ENCODING 13915
SWIDTH 960 0
DWIDTH 14 0
BBX 14 14 0 -2
BITMAP
0000
7ff8
6d98
7ed0
6660
7ed0
7f1c
6360
1ee0
03b8
ffec
1d70
7318
0300
ENDCHAR
STARTCHAR 365c
ENCODING 13916
SWIDTH 960 0
DWIDTH 14 0
BBX 14 14 0 -2
BITMAP
0cc0
0cc0
fffc
0cc0
0cf0
1fc0
1800
1ffc
18c0
18c0
30c0
30c0
60c0
c0c0
ENDCHAR
STARTCHAR 365d
ENCODING 13917
SWIDTH 960 0
DWIDTH 14 0
BBX 14 14 0 -2
BITMAP
0cc0
fffc
0cc0
7ff8
60e8
6f98
6318
7ff8
6798
6d58
7b68
6318
7ff8
6018
ENDCHAR
STARTCHAR 365e
ENCODING 13918
SWIDTH 960 0
DWIDTH 14 0
BBX 14 14 0 -2
BITMAP
30c0
30c0
30e0
fda0
19b0
1bf8
360c
7c00
d5f8
3630
3030
3060
3060
3060
ENDCHAR
STARTCHAR 365f
ENCODING 13919
SWIDTH 960 0
DWIDTH 14 0
BBX 14 14 0 -2
BITMAP
31b0
31b0
37fc
fdd0
1bb8
1ad4
35b0
3bf8
7400
d7fc
3368
336c
366c
30e0
ENDCHAR
STARTCHAR 3660
ENCODING 13920
SWIDTH 960 0
DWIDTH 14 0
BBX 14 14 0 -2
BITMAP
01b0
7db0
07fc
fdb0
07f8
7ed8
07f8
7cc0
07f8
7cc0
6ff8
6cc0
7ffc
6000
ENDCHAR
STARTCHAR 3661
ENCODING 13921
SWIDTH 960 0
DWIDTH 14 0
BBX 14 14 0 -2
BITMAP
0030
60e0
3780
3600
0600
07fc
0660
f660
3660
3460
3460
3860
6e00
c3fc
ENDCHAR
STARTCHAR 3662
ENCODING 13922
SWIDTH 960 0
DWIDTH 14 0
BBX 14 14 0 -2
BITMAP
0300
0300
0680
0cc0
3870
efdc
0300
7ff8
0300
1b60
0d60
0d40
7ff8
0000
ENDCHAR
STARTCHAR 3663
ENCODING 13923
SWIDTH 960 0
DWIDTH 14 0
BBX 14 14 0 -2
BITMAP
00c0
00c0
f9a0
d9a0
db30
dbf8
dc0c
d800
dbf8
f818
d830
c030
0060
0060
ENDCHAR
STARTCHAR 3664
ENCODING 13924
SWIDTH 960 0
DWIDTH 14 0
BBX 14 14 0 -2
BITMAP
1800
19f8
3598
3698
66f8
dd98
1998
fef8
19ac
6aa8
3db0
39b0
1ed8
f70c
ENDCHAR
STARTCHAR 3665
ENCODING 13925
SWIDTH 960 0
DWIDTH 14 0
BBX 14 14 0 -2
BITMAP
0600
0600
0600
0600
ffc0
06c0
06c0
06c0
0cc0
0cc0
18cc
30cc
60cc
c07c
ENDCHAR
STARTCHAR 3666
ENCODING 13926
SWIDTH 960 0
DWIDTH 14 0
BBX 14 14 0 -2
BITMAP
1800
1bf0
1a30
3630
37f0
7630
d7f0
3630
37f0
3000
3ffc
3360
3630
3c18
ENDCHAR
STARTCHAR 3667
ENCODING 13927
SWIDTH 960 0
DWIDTH 14 0
BBX 14 14 0 -2
BITMAP
1800
1800
1800
3ff8
3018
6f98
d998
1998
1998
1f98
1998
0018
0018
0070
ENDCHAR
STARTCHAR 3668
ENCODING 13928
SWIDTH 960 0
DWIDTH 14 0
BBX 14 14 0 -2
BITMAP
0000
7ff8
6060
6060
60c0
6cc0
6780
6180
6340
6660
6c60
6800
7ffc
6000
ENDCHAR
STARTCHAR 3669
ENCODING 13929
SWIDTH 960 0
DWIDTH 14 0
BBX 14 14 0 -2
BITMAP
1980
d980
7180
33f8
7318
da18
1de8
3b68
6b68
dbe8
1b68
1818
7018
3070
ENDCHAR
STARTCHAR 366a
ENCODING 13930
SWIDTH 960 0
DWIDTH 14 0
BBX 14 14 0 -2
BITMAP
0180
0180
fd80
31f0
3330
3330
fe60
3060
30e0
34e0
39b0
e330
0618
1c0c
ENDCHAR
STARTCHAR 366b
ENCODING 13931
SWIDTH 960 0
DWIDTH 14 0
BBX 14 14 0 -2
BITMAP
3000
31fc
3180
7f80
69f8
d998
1998
ff98
19f8
1d98
3580
3680
66fc
c180
ENDCHAR
STARTCHAR 366c
ENCODING 13932
SWIDTH 960 0
DWIDTH 14 0
BBX 14 14 0 -2
BITMAP
0cc0
0cc0
fffc
0cc0
0d40
0300
fffc
0300
0300
1fe0
1860
1860
1fe0
1860
ENDCHAR
STARTCHAR 366d
ENCODING 13933
SWIDTH 960 0
DWIDTH 14 0
BBX 14 14 0 -2
BITMAP
1800
31fc
7e80
6698
7e98
66d8
7eb0
67b0
7eb0
eea8
1ad8
3680
e6fc
0e80
ENDCHAR
STARTCHAR 366e
ENCODING 13934
SWIDTH 960 0
DWIDTH 14 0
BBX 14 14 0 -2
BITMAP
0000
7ffc
6998
7e98
69d8
7eb0
69b0
7eb0
06a8
6aa8
6ac0
6a80
c6fc
1d80
ENDCHAR
STARTCHAR 366f
ENCODING 13935
SWIDTH 960 0
DWIDTH 14 0
BBX 14 14 0 -2
BITMAP
0018
7f30
69e0
7e80
6980
7efc
69b0
7eb0
06b0
6ab0
6ab0
6ab0
c7fc
1c00
ENDCHAR
STARTCHAR 3670
ENCODING 13936
SWIDTH 960 0
DWIDTH 14 0
BBX 14 14 0 -2
BITMAP
00c0
7f40
68c0
7ef8
6998
7fe8
69a8
7ea8
06e8
6aa8
6a18
6a18
c618
1c70
ENDCHAR
STARTCHAR 3671
ENCODING 13937
SWIDTH 960 0
DWIDTH 14 0
BBX 14 14 0 -2
BITMAP
0000
1fe0
1860
1860
1fe0
1860
1fe0
1860
1fe0
0000
fffc
0ce0
3830
e018
ENDCHAR
STARTCHAR 3672
ENCODING 13938
SWIDTH 960 0
DWIDTH 14 0
BBX 14 14 0 -2
BITMAP
0000
1fe0
1b60
1fe0
1b60
1fe0
7ff8
6358
6fe8
6378
3598
6dac
cc6c
07e0
ENDCHAR
STARTCHAR 3673
ENCODING 13939
SWIDTH 960 0
DWIDTH 14 0
BBX 14 14 0 -2
BITMAP
0300
03f0
3ffc
33e8
3f18
31f8
35f0
3530
35f0
37e0
6060
7ffc
ce70
381c
ENDCHAR
STARTCHAR 3674
ENCODING 13940
SWIDTH 960 0
DWIDTH 14 0
BBX 14 14 0 -2
BITMAP
00c0
00c0
f9a0
dbf0
de1c
dbf0
db30
dbf0
db30
fbf8
db58
c370
03d8
1f0c
ENDCHAR
STARTCHAR 3675
ENCODING 13941
SWIDTH 960 0
DWIDTH 14 0
BBX 14 14 0 -2
BITMAP
0300
0300
7ffc
6d98
cd80
1998
30f8
0000
3ff0
0300
0300
0300
fffc
0000
ENDCHAR
STARTCHAR 3676
ENCODING 13942
SWIDTH 960 0
DWIDTH 14 0
BBX 14 14 0 -2
BITMAP
1800
1bf0
1ab0
37f0
36b0
77f0
d180
37f8
35a8
35f8
3738
3418
3418
3438
ENDCHAR
STARTCHAR 3677
ENCODING 13943
SWIDTH 960 0
DWIDTH 14 0
BBX 14 14 0 -2
BITMAP
0300
7ffc
6018
dfe0
1b60
1fe0
1b60
1fe0
0300
7ff8
6358
6fe8
6068
6038
ENDCHAR
STARTCHAR 3678
ENCODING 13944
SWIDTH 960 0
DWIDTH 14 0
BBX 14 14 0 -2
BITMAP
0000
67f0
36b0
37f0
06b0
07f0
f180
37f8
35a8
35f8
3718
3c38
6e00
c3fc
ENDCHAR
STARTCHAR 3679
ENCODING 13945
SWIDTH 960 0
DWIDTH 14 0
BBX 14 14 0 -2
BITMAP
0000
7df8
6d58
6b58
73f8
6b58
6df8
6cc0
6ffc
6ed4
7afc
679c
660c
661c
ENDCHAR
STARTCHAR 367a
ENCODING 13946
SWIDTH 960 0
DWIDTH 14 0
BBX 14 14 0 -2
BITMAP
0300
0300
3ff0
3330
3330
3ff0
0300
7ff8
6318
6318
7ff8
6318
0300
0300
ENDCHAR
STARTCHAR 367b
ENCODING 13947
SWIDTH 960 0
DWIDTH 14 0
BBX 14 14 0 -2
BITMAP
3660
37fc
3770
fdd8
3000
3bb8
76a8
77a8
76a8
d7a8
d768
36b0
37e0
3c60
ENDCHAR
STARTCHAR 367c
ENCODING 13948
SWIDTH 960 0
DWIDTH 14 0
BBX 14 14 0 -2
BITMAP
1818
1998
35a8
36a8
66a8
dda8
19a8
fea8
19a8
6aa8
3d68
3b68
1e18
f418
ENDCHAR
STARTCHAR 367d
ENCODING 13949
SWIDTH 960 0
DWIDTH 14 0
BBX 14 14 0 -2
BITMAP
0000
3ff8
3018
3ff8
35b0
36a0
37f0
3430
37f0
3430
6ff0
6c30
cc30
0c70
ENDCHAR
STARTCHAR 367e
ENCODING 13950
SWIDTH 960 0
DWIDTH 14 0
BBX 14 14 0 -2
BITMAP
0000
3ff8
3018
3ff8
3198
35b0
35b0
37f0
35b0
3998
6998
6998
dff8
1818
ENDCHAR
STARTCHAR 3721
ENCODING 14113
SWIDTH 960 0
DWIDTH 14 0
BBX 14 14 0 -2
BITMAP
3000
37fc
360c
fffc
366c
36a8
36a8
3ef8
f6a8
376c
356c
356c
3bfc
730c
ENDCHAR
STARTCHAR 3722
ENCODING 14114
SWIDTH 960 0
DWIDTH 14 0
BBX 14 14 0 -2
BITMAP
0300
7ffc
6e98
d8f8
3ff8
3018
3ff8
35b0
35b0
37f0
6998
6998
dff8
1818
ENDCHAR
STARTCHAR 3723
ENCODING 14115
SWIDTH 960 0
DWIDTH 14 0
BBX 14 14 0 -2
BITMAP
0300
0318
7fb0
0d60
1b60
3330
e71c
1fe0
1860
1fe0
1860
1860
1fe0
1860
ENDCHAR
STARTCHAR 3724
ENCODING 14116
SWIDTH 960 0
DWIDTH 14 0
BBX 14 14 0 -2
BITMAP
34e0
34e0
ff60
35ac
3dac
1ba8
7eb0
6aa0
7ea0
19a0
ffa0
19ac
19ac
19bc
ENDCHAR
STARTCHAR 3725
ENCODING 14117
SWIDTH 960 0
DWIDTH 14 0
BBX 14 14 0 -2
BITMAP
6330
6fd4
dfec
7558
6fd4
fd7c
77d8
dff4
3330
1fe0
1860
1860
1fe0
1860
ENDCHAR
STARTCHAR 3726
ENCODING 14118
SWIDTH 960 0
DWIDTH 14 0
BBX 14 14 0 -2
BITMAP
0300
7ffc
6d98
cd98
18f8
30c0
1bf8
d8c0
6ffc
60c0
1bf8
18c0
37fc
6000
ENDCHAR
STARTCHAR 3727
ENCODING 14119
SWIDTH 960 0
DWIDTH 14 0
BBX 14 14 0 -2
BITMAP
18c0
36d8
ff70
034c
7e7c
66c0
7edc
66f0
7ec0
66cc
6e7c
35b0
66d8
c6cc
ENDCHAR
STARTCHAR 3728
ENCODING 14120
SWIDTH 960 0
DWIDTH 14 0
BBX 14 14 0 -2
BITMAP
0000
7df8
6d58
6bf8
7358
6bf8
6c00
6ffc
6d58
6d70
7b60
6350
6398
6e0c
ENDCHAR
STARTCHAR 3729
ENCODING 14121
SWIDTH 960 0
DWIDTH 14 0
BBX 14 14 0 -2
BITMAP
0300
0fe0
38c0
03c0
0f70
fb6c
1b60
0d40
7ff8
0780
0d40
3b70
e31c
0300
ENDCHAR
STARTCHAR 372a
ENCODING 14122
SWIDTH 960 0
DWIDTH 14 0
BBX 14 14 0 -2
BITMAP
0000
fffc
0680
3ff0
36b0
36b0
3ff0
0300
fffc
0780
0d40
3b70
e31c
0300
ENDCHAR
STARTCHAR 372b
ENCODING 14123
SWIDTH 960 0
DWIDTH 14 0
BBX 14 14 0 -2
BITMAP
1800
19f8
1a98
f6f8
3400
1ddc
3754
ffdc
1860
6dfc
6af0
6aa8
db6c
1860
ENDCHAR
STARTCHAR 372c
ENCODING 14124
SWIDTH 960 0
DWIDTH 14 0
BBX 14 14 0 -2
BITMAP
0000
3fe0
0cc0
0780
7ef8
36d8
1d70
3bd8
e30c
7ff8
0780
1d60
f33c
0300
ENDCHAR
STARTCHAR 372d
ENCODING 14125
SWIDTH 960 0
DWIDTH 14 0
BBX 14 14 0 -2
BITMAP
30d0
31b0
3bb0
6db4
6db4
fbf4
31b8
fdd0
33b0
d5b8
7aa8
71a8
3dcc
e18c
ENDCHAR
STARTCHAR 372e
ENCODING 14126
SWIDTH 960 0
DWIDTH 14 0
BBX 14 14 0 -2
BITMAP
06c0
7cc0
18c0
fff8
6ad8
7ed8
6ad8
ff58
1998
1f98
fb70
0000
6d98
c6cc
ENDCHAR
STARTCHAR 372f
ENCODING 14127
SWIDTH 960 0
DWIDTH 14 0
BBX 14 14 0 -2
BITMAP
0000
3fe0
0660
0660
fffc
0660
0660
3fe0
0c00
1ff0
3430
6c30
cff0
0c30
ENDCHAR
STARTCHAR 3730
ENCODING 14128
SWIDTH 960 0
DWIDTH 14 0
BBX 14 14 0 -2
BITMAP
0cc0
fffc
0de0
3f00
fffc
1fe0
1b60
1fe0
1b60
3ff0
0300
fffc
36d8
e36c
ENDCHAR
STARTCHAR 3731
ENCODING 14129
SWIDTH 960 0
DWIDTH 14 0
BBX 14 14 0 -2
BITMAP
0018
7e98
01a8
ffa8
01a8
7ea8
01a8
7ea8
01a8
7ea8
66a8
6718
7f18
6618
ENDCHAR
STARTCHAR 3732
ENCODING 14130
SWIDTH 960 0
DWIDTH 14 0
BBX 14 14 0 -2
BITMAP
0198
7ed8
36d0
37fc
ff60
3660
7ef8
3060
3e60
77fc
7660
d660
3e60
3060
ENDCHAR
STARTCHAR 3733
ENCODING 14131
SWIDTH 960 0
DWIDTH 14 0
BBX 14 14 0 -2
BITMAP
0000
7ffc
6318
fff8
0300
3ff0
3330
3ff0
3330
3ff0
0300
fffc
0300
0300
ENDCHAR
STARTCHAR 3734
ENCODING 14132
SWIDTH 960 0
DWIDTH 14 0
BBX 14 14 0 -2
BITMAP
0000
7f78
1b58
1b50
ffd0
1b60
7f50
18d8
1f4c
3b4c
3b6c
6b58
df40
1b40
ENDCHAR
STARTCHAR 3735
ENCODING 14133
SWIDTH 960 0
DWIDTH 14 0
BBX 14 14 0 -2
BITMAP
0c60
0c60
0c60
7fa0
0c60
0c70
ffe8
0c6c
0c6c
7fa0
0c60
0c60
0fa0
fc60
ENDCHAR
STARTCHAR 3736
ENCODING 14134
SWIDTH 960 0
DWIDTH 14 0
BBX 14 14 0 -2
BITMAP
3000
31f8
fe98
3698
3698
66f8
dd98
0300
fffc
0730
1da0
f4c0
0f70
781c
ENDCHAR
STARTCHAR 3737
ENCODING 14135
SWIDTH 960 0
DWIDTH 14 0
BBX 14 14 0 -2
BITMAP
1800
19f8
1998
feb0
06b0
0da0
19b0
3d98
6a8c
da8c
19cc
19b8
1980
1980
ENDCHAR
STARTCHAR 3738
ENCODING 14136
SWIDTH 960 0
DWIDTH 14 0
BBX 14 14 0 -2
BITMAP
1838
19e0
1fb0
31b0
3760
71d0
d1b8
33ec
3740
30d0
36d8
36cc
34cc
30c0
ENDCHAR
STARTCHAR 3739
ENCODING 14137
SWIDTH 960 0
DWIDTH 14 0
BBX 14 14 0 -2
BITMAP
1800
1bfc
1830
3460
3578
7558
d6f8
34d8
34f8
3558
3578
3770
30d8
338c
ENDCHAR
STARTCHAR 373a
ENCODING 14138
SWIDTH 960 0
DWIDTH 14 0
BBX 14 14 0 -2
BITMAP
0018
7fd8
36d8
36d8
36d8
36d8
ffd8
36d8
36d8
36d8
36d8
6618
6618
c638
ENDCHAR
STARTCHAR 373b
ENCODING 14139
SWIDTH 960 0
DWIDTH 14 0
BBX 14 14 0 -2
BITMAP
0000
3fe0
3060
3060
3060
3fe0
3560
0d00
0d00
1b00
1b18
3318
6318
c1f8
ENDCHAR
STARTCHAR 373c
ENCODING 14140
SWIDTH 960 0
DWIDTH 14 0
BBX 14 14 0 -2
BITMAP
00c0
ff40
01fc
7fb0
66b0
66e0
7ee0
67b0
601c
dfe0
1860
1860
1fe0
1860
ENDCHAR
STARTCHAR 373d
ENCODING 14141
SWIDTH 960 0
DWIDTH 14 0
BBX 14 14 0 -2
BITMAP
0300
0300
3ff0
0300
0300
fffc
0300
0300
7ff8
0300
0300
0300
fffc
0000
ENDCHAR
STARTCHAR 373e
ENCODING 14142
SWIDTH 960 0
DWIDTH 14 0
BBX 14 14 0 -2
BITMAP
00c0
00c0
fff8
30c0
30c0
37fc
fcc0
30c0
37f8
34c0
38c0
e0c0
1ffc
0000
ENDCHAR
STARTCHAR 373f
ENCODING 14143
SWIDTH 960 0
DWIDTH 14 0
BBX 14 14 0 -2
BITMAP
0018
7fd8
36d8
36d8
ffd8
36d8
36d8
6638
c300
3ff0
0300
0300
fffc
0000
ENDCHAR
STARTCHAR 3740
ENCODING 14144
SWIDTH 960 0
DWIDTH 14 0
BBX 14 14 0 -2
BITMAP
1800
1bf8
ff58
18d8
7ed8
1998
1f18
f370
0300
fffc
0680
0cc0
3870
e01c
ENDCHAR
STARTCHAR 3741
ENCODING 14145
SWIDTH 960 0
DWIDTH 14 0
BBX 14 14 0 -2
BITMAP
0030
7f30
3660
3660
36d8
3618
ffb0
3630
366c
360c
3618
6618
6630
c660
ENDCHAR
STARTCHAR 3742
ENCODING 14146
SWIDTH 960 0
DWIDTH 14 0
BBX 14 14 0 -2
BITMAP
1800
1bf8
3330
6da0
0cc0
1bf0
3edc
68c0
dbf8
18c0
18c0
18c0
1ffc
1800
ENDCHAR
STARTCHAR 3743
ENCODING 14147
SWIDTH 960 0
DWIDTH 14 0
BBX 14 14 0 -2
BITMAP
0300
fffc
0300
3ff0
3330
3ff0
3330
3ff0
0300
0db0
6d98
6c6c
cc6c
07e0
ENDCHAR
STARTCHAR 3744
ENCODING 14148
SWIDTH 960 0
DWIDTH 14 0
BBX 14 14 0 -2
BITMAP
0180
3ffc
36c0
3ff8
36d8
3ff8
3000
3ffc
3558
35f4
6b6c
61c0
c760
3c3c
ENDCHAR
STARTCHAR 3745
ENCODING 14149
SWIDTH 960 0
DWIDTH 14 0
BBX 14 14 0 -2
BITMAP
1860
fffc
1860
7ef8
1860
fffc
1860
0fe0
0060
1fe0
6d18
6dac
cc6c
07e0
ENDCHAR
STARTCHAR 3746
ENCODING 14150
SWIDTH 960 0
DWIDTH 14 0
BBX 14 14 0 -2
BITMAP
0660
7df8
1998
fff8
1998
7ef8
6698
7ef8
6198
0d00
6d98
6dac
cc6c
07e0
ENDCHAR
STARTCHAR 3747
ENCODING 14151
SWIDTH 960 0
DWIDTH 14 0
BBX 14 14 0 -2
BITMAP
3000
33f8
3318
fdf8
3318
33f8
3180
3dfc
f774
35cc
330c
3334
31f4
7038
ENDCHAR
STARTCHAR 3748
ENCODING 14152
SWIDTH 960 0
DWIDTH 14 0
BBX 14 14 0 -2
BITMAP
3360
33fc
3760
fff8
3560
33f8
3360
35fc
3fe0
f360
337c
330c
360c
7438
ENDCHAR
STARTCHAR 3749
ENCODING 14153
SWIDTH 960 0
DWIDTH 14 0
BBX 14 14 0 -2
BITMAP
34c0
34c0
ff40
34fc
3198
3e98
6758
fad0
6a70
6a60
7a70
66d0
0698
1d0c
ENDCHAR
STARTCHAR 374a
ENCODING 14154
SWIDTH 960 0
DWIDTH 14 0
BBX 14 14 0 -2
BITMAP
0000
1fe0
1860
1fe0
1860
1fe0
0300
fffc
1fe0
1860
1fe0
0d60
1b30
7718
ENDCHAR
STARTCHAR 374b
ENCODING 14155
SWIDTH 960 0
DWIDTH 14 0
BBX 14 14 0 -2
BITMAP
18c0
18c0
1bf8
fec0
18c0
3bfc
3cc0
3ac0
6bf8
68c0
d8c0
18c0
1ffc
1800
ENDCHAR
STARTCHAR 374c
ENCODING 14156
SWIDTH 960 0
DWIDTH 14 0
BBX 14 14 0 -2
BITMAP
3018
18f0
1b98
c6d8
6350
6360
00c0
37f8
30c0
37fc
61c0
61a0
c330
ce1c
ENDCHAR
STARTCHAR 374d
ENCODING 14157
SWIDTH 960 0
DWIDTH 14 0
BBX 14 14 0 -2
BITMAP
00c0
00c0
fff8
d4c0
d4c0
d7fc
fcc0
d4c0
d7f8
d4c0
fcc0
ccc0
0ffc
0000
ENDCHAR
STARTCHAR 374e
ENCODING 14158
SWIDTH 960 0
DWIDTH 14 0
BBX 14 14 0 -2
BITMAP
0668
1dfc
f8e0
19ac
1bbc
fef0
198c
3cfc
3af8
6a98
d9f8
1998
19f8
1998
ENDCHAR
STARTCHAR 374f
ENCODING 14159
SWIDTH 960 0
DWIDTH 14 0
BBX 14 14 0 -2
BITMAP
0078
7fc0
0660
0660
3cc0
07b0
0318
fffc
030c
1b60
1b30
3318
6318
0300
ENDCHAR
STARTCHAR 3750
ENCODING 14160
SWIDTH 960 0
DWIDTH 14 0
BBX 14 14 0 -2
BITMAP
1800
1bf8
1a98
f6d0
3460
1cf0
37ac
ff60
1df8
6a60
6a60
6860
dbfc
1800
ENDCHAR
STARTCHAR 3751
ENCODING 14161
SWIDTH 960 0
DWIDTH 14 0
BBX 14 14 0 -2
BITMAP
1860
1b60
1ba8
f768
3570
1d60
37fc
ff60
1b70
6da8
6b68
6b60
dbfc
1b00
ENDCHAR
STARTCHAR 3752
ENCODING 14162
SWIDTH 960 0
DWIDTH 14 0
BBX 14 14 0 -2
BITMAP
1800
ff70
7ed4
6a9c
7ff8
6ab0
7ee0
ffb0
1adc
1ec0
0370
ff98
1d70
7318
ENDCHAR
STARTCHAR 3753
ENCODING 14163
SWIDTH 960 0
DWIDTH 14 0
BBX 14 14 0 -2
BITMAP
0000
7ff8
6cd8
7ff8
0c60
7f60
0c70
ffa8
0c6c
7f6c
0c60
0fa0
f860
0060
ENDCHAR
STARTCHAR 3754
ENCODING 14164
SWIDTH 960 0
DWIDTH 14 0
BBX 14 14 0 -2
BITMAP
0cc0
0cc0
fffc
0cc0
3ff0
0ce0
0780
1d60
f33c
1fe0
0300
0300
fffc
0000
ENDCHAR
STARTCHAR 3755
ENCODING 14165
SWIDTH 960 0
DWIDTH 14 0
BBX 14 14 0 -2
BITMAP
0cc0
0cc0
fffc
0cc0
0000
7f58
36d8
36d8
ffd8
36d8
36d8
36d8
6618
c638
ENDCHAR
STARTCHAR 3756
ENCODING 14166
SWIDTH 960 0
DWIDTH 14 0
BBX 14 14 0 -2
BITMAP
3630
1b30
1b60
7ffc
6318
c300
1fe0
1b60
1b60
1fe0
1b60
0330
03f8
7e18
ENDCHAR
STARTCHAR 3757
ENCODING 14167
SWIDTH 960 0
DWIDTH 14 0
BBX 14 14 0 -2
BITMAP
0060
7c60
0060
fe60
03fc
7c60
0060
7c60
0060
7c60
6c60
6c60
7c60
6c60
ENDCHAR
STARTCHAR 3758
ENCODING 14168
SWIDTH 960 0
DWIDTH 14 0
BBX 14 14 0 -2
BITMAP
0180
7db8
01e0
fe80
018c
7cfc
0000
7df8
0198
7df8
6d98
6d98
7df8
6d98
ENDCHAR
STARTCHAR 3759
ENCODING 14169
SWIDTH 960 0
DWIDTH 14 0
BBX 14 14 0 -2
BITMAP
36c0
fffc
3fd8
7d50
d570
3edc
0fc0
0000
fffc
0000
1fe0
1860
1fe0
1860
ENDCHAR
STARTCHAR 375a
ENCODING 14170
SWIDTH 960 0
DWIDTH 14 0
BBX 14 14 0 -2
BITMAP
1800
1bf8
fe98
18d0
7e60
6af0
7f6c
6a60
7ef8
1860
ff60
1860
1bfc
1800
ENDCHAR
STARTCHAR 375b
ENCODING 14171
SWIDTH 960 0
DWIDTH 14 0
BBX 14 14 0 -2
BITMAP
0000
fffc
0660
74c0
1df8
3a98
6bf8
d998
7ef8
1998
19f8
1ed0
f198
070c
ENDCHAR
STARTCHAR 375c
ENCODING 14172
SWIDTH 960 0
DWIDTH 14 0
BBX 14 14 0 -2
BITMAP
0660
1cc0
f6f8
da98
6df8
1998
7ef8
19fc
fe80
19fc
34d4
37ac
634c
c678
ENDCHAR
STARTCHAR 375d
ENCODING 14173
SWIDTH 960 0
DWIDTH 14 0
BBX 14 14 0 -2
BITMAP
0cc0
0cc0
fffc
0cc0
0cc0
3ff0
0000
0000
fffc
06c0
0660
0df0
7f18
0018
ENDCHAR
STARTCHAR 375e
ENCODING 14174
SWIDTH 960 0
DWIDTH 14 0
BBX 14 14 0 -2
BITMAP
00c0
6180
3778
36d8
06d8
06d8
f6d8
36d8
37d8
3ef0
30c0
38c0
6ec0
c3fc
ENDCHAR
STARTCHAR 375f
ENCODING 14175
SWIDTH 960 0
DWIDTH 14 0
BBX 14 14 0 -2
BITMAP
1860
1860
3ffc
6c00
fef8
6a98
7e98
6af8
7e60
0db0
7aa8
6eac
6b6c
c0e0
ENDCHAR
STARTCHAR 3760
ENCODING 14176
SWIDTH 960 0
DWIDTH 14 0
BBX 14 14 0 -2
BITMAP
0c18
0fa8
7fe8
6ea8
7ba8
7fa8
6ea8
7da8
6f68
7b68
6ea8
7a98
c618
1c38
ENDCHAR
STARTCHAR 3761
ENCODING 14177
SWIDTH 960 0
DWIDTH 14 0
BBX 14 14 0 -2
BITMAP
18c0
18d0
ff58
18dc
7fe0
66d8
7ed8
66d0
7e70
1860
ff60
19b4
1b1c
180c
ENDCHAR
STARTCHAR 3762
ENCODING 14178
SWIDTH 960 0
DWIDTH 14 0
BBX 14 14 0 -2
BITMAP
1800
ff70
7ed4
6a9c
7ff8
6ad0
ff70
19dc
1f00
3ff0
0300
fffc
0300
0700
ENDCHAR
STARTCHAR 3763
ENCODING 14179
SWIDTH 960 0
DWIDTH 14 0
BBX 14 14 0 -2
BITMAP
6360
3660
37a0
cda0
6ffc
6dd8
0fa8
3668
3fe8
37b0
6db0
6da8
db58
d18c
ENDCHAR
STARTCHAR 3764
ENCODING 14180
SWIDTH 960 0
DWIDTH 14 0
BBX 14 14 0 -2
BITMAP
00c0
7d50
6d58
6ad8
73f0
6b30
6df0
6d30
6df0
6d50
7b58
66cc
6ccc
61c0
ENDCHAR
STARTCHAR 3765
ENCODING 14181
SWIDTH 960 0
DWIDTH 14 0
BBX 14 14 0 -2
BITMAP
1980
19f8
1b00
fe00
1980
3dfc
3b30
3b30
6b30
6b30
db30
1b30
1b30
1b70
ENDCHAR
STARTCHAR 3766
ENCODING 14182
SWIDTH 960 0
DWIDTH 14 0
BBX 14 14 0 -2
BITMAP
1b18
1b18
1bfc
36a8
35a8
737c
d6d8
34d8
3ffc
31e0
3350
36d8
34cc
30c0
ENDCHAR
STARTCHAR 3767
ENCODING 14183
SWIDTH 960 0
DWIDTH 14 0
BBX 14 14 0 -2
BITMAP
1800
1800
1800
1800
3ffc
3318
6330
c360
0380
0680
06c0
0c60
3830
e01c
ENDCHAR
STARTCHAR 3768
ENCODING 14184
SWIDTH 960 0
DWIDTH 14 0
BBX 14 14 0 -2
BITMAP
3180
1980
1980
cff0
61b0
61b0
01b0
3ffc
31c0
3360
6360
6630
cc18
d80c
ENDCHAR
STARTCHAR 3769
ENCODING 14185
SWIDTH 960 0
DWIDTH 14 0
BBX 14 14 0 -2
BITMAP
6600
3ff8
3668
dfa8
6668
67d8
1da0
3360
3750
31b8
6fd8
66b0
dd98
c180
ENDCHAR
STARTCHAR 376a
ENCODING 14186
SWIDTH 960 0
DWIDTH 14 0
BBX 14 14 0 -2
BITMAP
0300
0300
7ffc
6018
c000
03c0
0cc0
0cc0
0cc0
1860
1860
3030
6018
c00c
ENDCHAR
STARTCHAR 376b
ENCODING 14187
SWIDTH 960 0
DWIDTH 14 0
BBX 14 14 0 -2
BITMAP
1860
1860
1a60
f7fc
3460
1c60
36f8
fe00
19f8
6d98
6a98
6a98
d9f8
1998
ENDCHAR
STARTCHAR 376c
ENCODING 14188
SWIDTH 960 0
DWIDTH 14 0
BBX 14 14 0 -2
BITMAP
0300
0300
0300
0600
3ff0
36b0
36b0
36b0
36b0
36b0
36b0
36b0
fffc
0000
ENDCHAR
STARTCHAR 376d
ENCODING 14189
SWIDTH 960 0
DWIDTH 14 0
BBX 14 14 0 -2
BITMAP
00c0
7cc0
00c0
fff8
00d8
7cd8
00d8
7ffc
00c0
7da0
6da0
6d30
7e18
6c0c
ENDCHAR
STARTCHAR 376e
ENCODING 14190
SWIDTH 960 0
DWIDTH 14 0
BBX 14 14 0 -2
BITMAP
0000
1ff0
1830
1830
1830
1ff0
1830
1830
1ff0
1830
3030
3030
6030
c070
ENDCHAR
STARTCHAR 376f
ENCODING 14191
SWIDTH 960 0
DWIDTH 14 0
BBX 14 14 0 -2
BITMAP
18c0
1b40
1b40
37f8
36c0
74c0
d0c0
37fc
30c0
30c0
30c0
30c0
30c0
30c0
ENDCHAR
STARTCHAR 3770
ENCODING 14192
SWIDTH 960 0
DWIDTH 14 0
BBX 14 14 0 -2
BITMAP
1980
1980
1b40
3660
37f0
7998
d7f0
35b0
37f0
35b0
3340
3360
3630
3418
ENDCHAR
STARTCHAR 3771
ENCODING 14193
SWIDTH 960 0
DWIDTH 14 0
BBX 14 14 0 -2
BITMAP
18c0
1ad8
1b50
37f8
30c0
77fc
d1a0
33f0
3668
35ec
3360
3318
3318
31f8
ENDCHAR
STARTCHAR 3772
ENCODING 14194
SWIDTH 960 0
DWIDTH 14 0
BBX 14 14 0 -2
BITMAP
1860
19f8
1e68
37fc
3668
75f8
df60
33f8
3560
35fc
3660
3760
35c0
387c
ENDCHAR
STARTCHAR 3773
ENCODING 14195
SWIDTH 960 0
DWIDTH 14 0
BBX 14 14 0 -2
BITMAP
1860
0cc0
fffc
0d80
7ff0
0db0
fffc
0db0
7ff0
0dc0
3db0
ed9c
0d80
0d80
ENDCHAR
STARTCHAR 3774
ENCODING 14196
SWIDTH 960 0
DWIDTH 14 0
BBX 14 14 0 -2
BITMAP
0300
3330
1b60
7ff8
0680
fffc
0cc0
3870
efec
0660
0660
0c60
1860
71c0
ENDCHAR
STARTCHAR 3775
ENCODING 14197
SWIDTH 960 0
DWIDTH 14 0
BBX 14 14 0 -2
BITMAP
0c18
0c18
1ad8
3358
ffd8
0cd8
7f58
6d58
7f58
6cd8
1ad8
1b18
3318
e038
ENDCHAR
STARTCHAR 3776
ENCODING 14198
SWIDTH 960 0
DWIDTH 14 0
BBX 14 14 0 -2
BITMAP
00c0
00c0
fbf8
da18
dbf8
d800
dbf0
db30
dbf0
fb30
dbf0
c000
1ffc
0000
ENDCHAR
STARTCHAR 3777
ENCODING 14199
SWIDTH 960 0
DWIDTH 14 0
BBX 14 14 0 -2
BITMAP
0000
7ff8
6d58
6fe8
6698
7ff8
6cd8
6fe8
70d8
6fd8
6c68
67e8
7ff8
6018
ENDCHAR
STARTCHAR 3778
ENCODING 14200
SWIDTH 960 0
DWIDTH 14 0
BBX 14 14 0 -2
BITMAP
0000
7ff8
6d98
7ed0
66d0
7e60
6dd0
7f1c
6300
3ff0
0300
0300
fffc
0000
ENDCHAR
STARTCHAR 3779
ENCODING 14201
SWIDTH 960 0
DWIDTH 14 0
BBX 14 14 0 -2
BITMAP
3318
31b0
37fc
31a0
fdf8
6da8
6ffc
6da8
fbf8
d9a0
1db0
36a8
6dac
c1a0
ENDCHAR
STARTCHAR 377a
ENCODING 14202
SWIDTH 960 0
DWIDTH 14 0
BBX 14 14 0 -2
BITMAP
00c0
00c0
fbf8
18d8
37fc
30d8
7bf8
18c0
dbf8
68c0
37fc
38c0
6ec0
c3fc
ENDCHAR
STARTCHAR 377b
ENCODING 14203
SWIDTH 960 0
DWIDTH 14 0
BBX 14 14 0 -2
BITMAP
0300
7ffc
6318
fff8
0300
3ff0
0300
fffc
36b0
3ff0
6d18
6dac
cc6c
07e0
ENDCHAR
STARTCHAR 377c
ENCODING 14204
SWIDTH 960 0
DWIDTH 14 0
BBX 14 14 0 -2
BITMAP
3e38
d6e0
de68
d6d0
de68
d7fc
feec
6aa8
6b6c
db60
0d80
6d98
6c6c
c7ec
ENDCHAR
STARTCHAR 377d
ENCODING 14205
SWIDTH 960 0
DWIDTH 14 0
BBX 14 14 0 -2
BITMAP
3330
1b60
3ff0
0680
fffc
1860
3fd8
e30c
3ff0
0300
7ff8
0300
0300
0700
ENDCHAR
STARTCHAR 377e
ENCODING 14206
SWIDTH 960 0
DWIDTH 14 0
BBX 14 14 0 -2
BITMAP
30c0
36d8
3350
fff8
31a0
37fc
3330
37e8
3c6c
f3e0
3360
3318
3318
71f8
ENDCHAR
STARTCHAR 3821
ENCODING 14369
SWIDTH 960 0
DWIDTH 14 0
BBX 14 14 0 -2
BITMAP
18c0
18c0
19a0
ff30
1bf8
38cc
3df8
3b58
6b58
6bf8
d8e0
19b0
1b18
1c0c
ENDCHAR
STARTCHAR 3822
ENCODING 14370
SWIDTH 960 0
DWIDTH 14 0
BBX 14 14 0 -2
BITMAP
3180
3180
33f8
fec0
37fc
71b0
7bfc
7760
d5f8
d360
33f8
3360
33fc
3300
ENDCHAR
STARTCHAR 3823
ENCODING 14371
SWIDTH 960 0
DWIDTH 14 0
BBX 14 14 0 -2
BITMAP
0300
0300
7ff8
0ec0
0700
fffc
ccd8
dfe0
1b30
1fe0
3300
fffc
0300
0300
ENDCHAR
STARTCHAR 3824
ENCODING 14372
SWIDTH 960 0
DWIDTH 14 0
BBX 14 14 0 -2
BITMAP
0300
0360
0330
0330
fffc
0300
0700
0680
0680
0cc0
0cc0
1860
3030
e01c
ENDCHAR
STARTCHAR 3825
ENCODING 14373
SWIDTH 960 0
DWIDTH 14 0
BBX 14 14 0 -2
BITMAP
0c60
0c68
ffac
0c6c
7ffc
7760
6d60
7f70
6d50
7f50
6d58
6d98
6d8c
670c
ENDCHAR
STARTCHAR 3826
ENCODING 14374
SWIDTH 960 0
DWIDTH 14 0
BBX 14 14 0 -2
BITMAP
0000
7ff8
19b0
19b0
19b0
31b0
3ffc
76b0
d6b0
36b0
36b0
3f30
3330
0630
ENDCHAR
STARTCHAR 3827
ENCODING 14375
SWIDTH 960 0
DWIDTH 14 0
BBX 14 14 0 -2
BITMAP
0000
fff8
3318
3318
33f8
3318
7df8
6d18
edf8
6da0
6da0
7d6c
666c
0c3c
ENDCHAR
STARTCHAR 3828
ENCODING 14376
SWIDTH 960 0
DWIDTH 14 0
BBX 14 14 0 -2
BITMAP
1800
19f8
1a98
f698
35f8
1c00
36f8
fe98
19f8
6d98
6af8
6a98
d998
19b8
ENDCHAR
STARTCHAR 3829
ENCODING 14377
SWIDTH 960 0
DWIDTH 14 0
BBX 14 14 0 -2
BITMAP
0000
0ff0
6c30
6ff0
6c30
6ff0
6c30
6ff0
6000
7ffc
6d60
3b38
e30c
0300
ENDCHAR
ENDFONT
